MFB Oldstyle-Bold.ufo
<glyph name="numbersign" format="2">
  <advance width="601"/>
  <unicode hex="0023"/>
  <outline>
    <contour>
      <point x="110" y="0" type="line"/>
      <point x="177" y="0" type="line"/>
      <point x="211" y="236" type="line"/>
      <point x="350" y="236" type="line"/>
      <point x="317" y="0" type="line"/>
      <point x="384" y="0" type="line"/>
      <point x="417" y="236" type="line"/>
      <point x="537" y="236" type="line"/>
      <point x="537" y="294" type="line"/>
      <point x="425" y="294" type="line"/>
      <point x="448" y="452" type="line"/>
      <point x="570" y="452" type="line"/>
      <point x="570" y="510" type="line"/>
      <point x="455" y="510" type="line"/>
      <point x="489" y="746" type="line"/>
      <point x="423" y="746" type="line"/>
      <point x="389" y="510" type="line"/>
      <point x="249" y="510" type="line"/>
      <point x="282" y="746" type="line"/>
      <point x="216" y="746" type="line"/>
      <point x="183" y="510" type="line"/>
      <point x="59" y="510" type="line"/>
      <point x="59" y="452" type="line"/>
      <point x="175" y="452" type="line"/>
      <point x="152" y="294" type="line"/>
      <point x="31" y="294" type="line"/>
      <point x="31" y="236" type="line"/>
      <point x="144" y="236" type="line"/>
    </contour>
    <contour>
      <point x="218" y="294" type="line"/>
      <point x="241" y="452" type="line"/>
      <point x="382" y="452" type="line"/>
      <point x="359" y="294" type="line"/>
    </contour>
  </outline>
</glyph>
<glyph name="dollar" format="2">
  <advance width="623"/>
  <unicode hex="0024"/>
  <outline>
    <contour>
      <point x="290" y="-105" type="line"/>
      <point x="333" y="-105" type="line"/>
      <point x="333" y="-24" type="line"/>
      <point x="484" y="-12"/>
      <point x="550" y="105"/>
      <point x="550" y="203" type="curve" smooth="yes"/>
      <point x="550" y="337"/>
      <point x="428" y="398"/>
      <point x="333" y="443" type="curve"/>
      <point x="333" y="691" type="line"/>
      <point x="414" y="686"/>
      <point x="454" y="651"/>
      <point x="454" y="623" type="curve" smooth="yes"/>
      <point x="454" y="590"/>
      <point x="397" y="608"/>
      <point x="397" y="552" type="curve" smooth="yes"/>
      <point x="397" y="511"/>
      <point x="427" y="497"/>
      <point x="452" y="497" type="curve" smooth="yes"/>
      <point x="501" y="497"/>
      <point x="521" y="548"/>
      <point x="521" y="580" type="curve" smooth="yes"/>
      <point x="521" y="635"/>
      <point x="463" y="732"/>
      <point x="333" y="739" type="curve"/>
      <point x="333" y="813" type="line"/>
      <point x="290" y="813" type="line"/>
      <point x="290" y="739" type="line"/>
      <point x="160" y="726"/>
      <point x="72" y="634"/>
      <point x="72" y="520" type="curve" smooth="yes"/>
      <point x="72" y="381"/>
      <point x="203" y="323"/>
      <point x="290" y="281" type="curve"/>
      <point x="290" y="26" type="line"/>
      <point x="196" y="31"/>
      <point x="150" y="69"/>
      <point x="150" y="103" type="curve" smooth="yes"/>
      <point x="150" y="141"/>
      <point x="203" y="122"/>
      <point x="203" y="174" type="curve" smooth="yes"/>
      <point x="203" y="213"/>
      <point x="173" y="230"/>
      <point x="147" y="230" type="curve" smooth="yes"/>
      <point x="106" y="230"/>
      <point x="75" y="190"/>
      <point x="75" y="140" type="curve" smooth="yes"/>
      <point x="75" y="53"/>
      <point x="167" y="-18"/>
      <point x="290" y="-24" type="curve"/>
    </contour>
    <contour>
      <point x="333" y="27" type="curve"/>
      <point x="333" y="259" type="line"/>
      <point x="392" y="228"/>
      <point x="432" y="197"/>
      <point x="432" y="137" type="curve" smooth="yes"/>
      <point x="432" y="74"/>
      <point x="388" y="35"/>
    </contour>
    <contour>
      <point x="290" y="465" type="line"/>
      <point x="226" y="498"/>
      <point x="181" y="531"/>
      <point x="181" y="588" type="curve" smooth="yes"/>
      <point x="181" y="641"/>
      <point x="219" y="683"/>
      <point x="290" y="691" type="curve"/>
    </contour>
  </outline>
</glyph>
<glyph name="percent" format="2">
  <advance width="721"/>
  <unicode hex="0025"/>
  <outline>
    <contour>
      <point x="121" y="-10" type="line"/>
      <point x="188" y="-10" type="line"/>
      <point x="599" y="741" type="line"/>
      <point x="532" y="741" type="line"/>
    </contour>
    <contour>
      <point x="536" y="-17" type="curve" smooth="yes"/>
      <point x="626" y="-17"/>
      <point x="685" y="78"/>
      <point x="685" y="179" type="curve" smooth="yes"/>
      <point x="685" y="277"/>
      <point x="630" y="374"/>
      <point x="536" y="374" type="curve" smooth="yes"/>
      <point x="442" y="374"/>
      <point x="386" y="278"/>
      <point x="386" y="179" type="curve" smooth="yes"/>
      <point x="386" y="76"/>
      <point x="446" y="-17"/>
    </contour>
    <contour>
      <point x="536" y="16" type="curve" smooth="yes"/>
      <point x="485" y="16"/>
      <point x="471" y="93"/>
      <point x="471" y="179" type="curve" smooth="yes"/>
      <point x="471" y="263"/>
      <point x="484" y="339"/>
      <point x="535" y="339" type="curve" smooth="yes"/>
      <point x="578" y="339"/>
      <point x="600" y="286"/>
      <point x="600" y="177" type="curve" smooth="yes"/>
      <point x="600" y="81"/>
      <point x="583" y="16"/>
    </contour>
    <contour>
      <point x="186" y="350" type="curve" smooth="yes"/>
      <point x="276" y="350"/>
      <point x="335" y="445"/>
      <point x="335" y="546" type="curve" smooth="yes"/>
      <point x="335" y="644"/>
      <point x="280" y="742"/>
      <point x="186" y="742" type="curve" smooth="yes"/>
      <point x="92" y="742"/>
      <point x="36" y="645"/>
      <point x="36" y="546" type="curve" smooth="yes"/>
      <point x="36" y="443"/>
      <point x="96" y="350"/>
    </contour>
    <contour>
      <point x="186" y="384" type="curve" smooth="yes"/>
      <point x="135" y="384"/>
      <point x="121" y="461"/>
      <point x="121" y="547" type="curve" smooth="yes"/>
      <point x="121" y="630"/>
      <point x="134" y="707"/>
      <point x="185" y="707" type="curve" smooth="yes"/>
      <point x="228" y="707"/>
      <point x="250" y="653"/>
      <point x="250" y="544" type="curve" smooth="yes"/>
      <point x="250" y="449"/>
      <point x="233" y="384"/>
    </contour>
  </outline>
</glyph>
<glyph name="ampersand" format="2">
  <advance width="832"/>
  <unicode hex="0026"/>
  <outline>
    <contour>
      <point x="288" y="-14" type="curve" smooth="yes"/>
      <point x="377" y="-14"/>
      <point x="448" y="16"/>
      <point x="485" y="39" type="curve"/>
      <point x="511" y="14"/>
      <point x="558" y="-14"/>
      <point x="619" y="-14" type="curve" smooth="yes"/>
      <point x="702" y="-14"/>
      <point x="758" y="37"/>
      <point x="813" y="105" type="curve"/>
      <point x="779" y="132" type="line"/>
      <point x="751" y="102"/>
      <point x="722" y="76"/>
      <point x="681" y="76" type="curve" smooth="yes"/>
      <point x="643" y="76"/>
      <point x="615" y="99"/>
      <point x="598" y="128" type="curve"/>
      <point x="653" y="188"/>
      <point x="663" y="235"/>
      <point x="692" y="310" type="curve" smooth="yes"/>
      <point x="707" y="348"/>
      <point x="725" y="388"/>
      <point x="795" y="388" type="curve"/>
      <point x="795" y="434" type="line"/>
      <point x="542" y="434" type="line"/>
      <point x="542" y="388" type="line"/>
      <point x="609" y="388"/>
      <point x="631" y="366"/>
      <point x="631" y="329" type="curve" smooth="yes"/>
      <point x="631" y="298"/>
      <point x="616" y="260"/>
      <point x="602" y="229" type="curve" smooth="yes"/>
      <point x="587" y="196"/>
      <point x="582" y="189"/>
      <point x="564" y="165" type="curve"/>
      <point x="496" y="261"/>
      <point x="459" y="336"/>
      <point x="403" y="429" type="curve"/>
      <point x="528" y="491"/>
      <point x="574" y="531"/>
      <point x="574" y="599" type="curve" smooth="yes"/>
      <point x="574" y="688"/>
      <point x="496" y="735"/>
      <point x="404" y="735" type="curve" smooth="yes"/>
      <point x="291" y="735"/>
      <point x="206" y="663"/>
      <point x="206" y="553" type="curve" smooth="yes"/>
      <point x="206" y="507"/>
      <point x="221" y="464"/>
      <point x="246" y="412" type="curve"/>
      <point x="138" y="359"/>
      <point x="43" y="281"/>
      <point x="43" y="176" type="curve" smooth="yes"/>
      <point x="43" y="68"/>
      <point x="142" y="-14"/>
    </contour>
    <contour>
      <point x="359" y="48" type="curve" smooth="yes"/>
      <point x="252" y="48"/>
      <point x="190" y="182"/>
      <point x="190" y="256" type="curve" smooth="yes"/>
      <point x="190" y="301"/>
      <point x="214" y="337"/>
      <point x="267" y="369" type="curve"/>
      <point x="304" y="282"/>
      <point x="364" y="171"/>
      <point x="451" y="75" type="curve"/>
      <point x="415" y="56"/>
      <point x="385" y="48"/>
    </contour>
    <contour>
      <point x="384" y="471" type="curve"/>
      <point x="368" y="505"/>
      <point x="343" y="556"/>
      <point x="343" y="612" type="curve" smooth="yes"/>
      <point x="343" y="667"/>
      <point x="368" y="689"/>
      <point x="405" y="689" type="curve" smooth="yes"/>
      <point x="442" y="689"/>
      <point x="465" y="666"/>
      <point x="465" y="608" type="curve" smooth="yes"/>
      <point x="465" y="546"/>
      <point x="438" y="502"/>
    </contour>
  </outline>
</glyph>
<glyph name="quotesingle" format="2">
  <advance width="216"/>
  <unicode hex="0027"/>
  <outline>
    <contour>
      <point x="88" y="418" type="curve"/>
      <point x="129" y="418" type="line"/>
      <point x="129" y="481"/>
      <point x="179" y="585"/>
      <point x="179" y="646" type="curve" smooth="yes"/>
      <point x="179" y="704"/>
      <point x="136" y="729"/>
      <point x="107" y="729" type="curve" smooth="yes"/>
      <point x="76" y="729"/>
      <point x="36" y="702"/>
      <point x="36" y="647" type="curve" smooth="yes"/>
      <point x="36" y="584"/>
      <point x="88" y="481"/>
    </contour>
  </outline>
</glyph>
<glyph name="parenleft" format="2">
  <advance width="376"/>
  <unicode hex="0028"/>
  <outline>
    <contour>
      <point x="333" y="-198" type="curve"/>
      <point x="333" y="-158" type="line"/>
      <point x="228" y="-93"/>
      <point x="190" y="11"/>
      <point x="190" y="270" type="curve" smooth="yes"/>
      <point x="190" y="493"/>
      <point x="213" y="618"/>
      <point x="333" y="695" type="curve"/>
      <point x="333" y="735" type="line"/>
      <point x="230" y="690"/>
      <point x="68" y="534"/>
      <point x="68" y="270" type="curve" smooth="yes"/>
      <point x="68" y="6"/>
      <point x="216" y="-143"/>
    </contour>
  </outline>
</glyph>
<glyph name="asterisk" format="2">
  <advance width="475"/>
  <unicode hex="002A"/>
  <outline>
    <contour>
      <point x="132" y="415" type="curve" smooth="yes"/>
      <point x="148" y="403"/>
      <point x="176" y="406"/>
      <point x="192" y="428" type="curve" smooth="yes"/>
      <point x="210" y="452"/>
      <point x="208" y="493"/>
      <point x="237" y="533" type="curve"/>
      <point x="266" y="493"/>
      <point x="265" y="452"/>
      <point x="282" y="428" type="curve" smooth="yes"/>
      <point x="297" y="406"/>
      <point x="325" y="402"/>
      <point x="342" y="415" type="curve" smooth="yes"/>
      <point x="359" y="428"/>
      <point x="362" y="455"/>
      <point x="349" y="474" type="curve" smooth="yes"/>
      <point x="333" y="498"/>
      <point x="292" y="508"/>
      <point x="262" y="550" type="curve"/>
      <point x="308" y="565"/>
      <point x="349" y="552"/>
      <point x="375" y="560" type="curve" smooth="yes"/>
      <point x="398" y="567"/>
      <point x="413" y="591"/>
      <point x="406" y="612" type="curve" smooth="yes"/>
      <point x="400" y="631"/>
      <point x="375" y="645"/>
      <point x="351" y="638" type="curve" smooth="yes"/>
      <point x="324" y="630"/>
      <point x="300" y="594"/>
      <point x="252" y="578" type="curve"/>
      <point x="252" y="628"/>
      <point x="278" y="662"/>
      <point x="278" y="691" type="curve" smooth="yes"/>
      <point x="278" y="715"/>
      <point x="260" y="735"/>
      <point x="238" y="735" type="curve" smooth="yes"/>
      <point x="216" y="735"/>
      <point x="197" y="716"/>
      <point x="197" y="691" type="curve" smooth="yes"/>
      <point x="197" y="662"/>
      <point x="223" y="628"/>
      <point x="223" y="578" type="curve"/>
      <point x="174" y="594"/>
      <point x="151" y="629"/>
      <point x="123" y="638" type="curve" smooth="yes"/>
      <point x="100" y="645"/>
      <point x="75" y="632"/>
      <point x="69" y="613" type="curve" smooth="yes"/>
      <point x="63" y="595"/>
      <point x="74" y="568"/>
      <point x="100" y="560" type="curve" smooth="yes"/>
      <point x="127" y="552"/>
      <point x="166" y="565"/>
      <point x="213" y="550" type="curve"/>
      <point x="183" y="508"/>
      <point x="141" y="497"/>
      <point x="125" y="474" type="curve" smooth="yes"/>
      <point x="112" y="455"/>
      <point x="115" y="428"/>
    </contour>
  </outline>
</glyph>
<glyph name="plus" format="2">
  <advance width="601"/>
  <unicode hex="002B"/>
  <outline>
    <contour>
      <point x="265" y="0" type="line"/>
      <point x="336" y="0" type="line"/>
      <point x="336" y="203" type="line"/>
      <point x="539" y="203" type="line"/>
      <point x="539" y="275" type="line"/>
      <point x="336" y="275" type="line"/>
      <point x="336" y="478" type="line"/>
      <point x="265" y="478" type="line"/>
      <point x="265" y="275" type="line"/>
      <point x="62" y="275" type="line"/>
      <point x="62" y="203" type="line"/>
      <point x="265" y="203" type="line"/>
    </contour>
  </outline>
</glyph>
<glyph name="comma" format="2">
  <advance width="267"/>
  <unicode hex="002C"/>
  <outline>
    <contour>
      <point x="49" y="-173" type="line"/>
      <point x="133" y="-133"/>
      <point x="216" y="-47"/>
      <point x="216" y="46" type="curve" smooth="yes"/>
      <point x="216" y="104"/>
      <point x="183" y="151"/>
      <point x="127" y="151" type="curve" smooth="yes"/>
      <point x="77" y="151"/>
      <point x="45" y="114"/>
      <point x="45" y="67" type="curve" smooth="yes"/>
      <point x="45" y="-6"/>
      <point x="120" y="2"/>
      <point x="120" y="-39" type="curve" smooth="yes"/>
      <point x="120" y="-72"/>
      <point x="69" y="-110"/>
      <point x="27" y="-137" type="curve"/>
    </contour>
  </outline>
</glyph>
<glyph name="hyphen" format="2">
  <advance width="240"/>
  <unicode hex="002D"/>
  <outline>
    <contour>
      <point x="0" y="198" type="line"/>
      <point x="240" y="198" type="line"/>
      <point x="240" y="284" type="line"/>
      <point x="0" y="284" type="line"/>
    </contour>
  </outline>
</glyph>
<glyph name="period" format="2">
  <advance width="267"/>
  <unicode hex="002E"/>
  <outline>
    <contour>
      <point x="135" y="-14" type="curve" smooth="yes"/>
      <point x="179" y="-14"/>
      <point x="217" y="22"/>
      <point x="217" y="69" type="curve" smooth="yes"/>
      <point x="217" y="118"/>
      <point x="179" y="152"/>
      <point x="135" y="152" type="curve" smooth="yes"/>
      <point x="90" y="152"/>
      <point x="51" y="118"/>
      <point x="51" y="69" type="curve" smooth="yes"/>
      <point x="51" y="22"/>
      <point x="90" y="-14"/>
    </contour>
  </outline>
</glyph>
<glyph name="slash" format="2">
  <advance width="348"/>
  <unicode hex="002F"/>
  <outline>
    <contour>
      <point x="-28" y="-184" type="line"/>
      <point x="56" y="-184" type="line"/>
      <point x="322" y="721" type="line"/>
      <point x="239" y="721" type="line"/>
    </contour>
  </outline>
</glyph>
<glyph name="zero" format="2">
  <advance width="623"/>
  <unicode hex="0030"/>
  <outline>
    <contour>
      <point x="319" y="-18" type="curve" smooth="yes"/>
      <point x="489" y="-18"/>
      <point x="586" y="161"/>
      <point x="586" y="345" type="curve" smooth="yes"/>
      <point x="586" y="542"/>
      <point x="474" y="703"/>
      <point x="317" y="703" type="curve" smooth="yes"/>
      <point x="160" y="703"/>
      <point x="36" y="544"/>
      <point x="36" y="342" type="curve" smooth="yes"/>
      <point x="36" y="140"/>
      <point x="159" y="-18"/>
    </contour>
    <contour>
      <point x="315" y="26" type="curve" smooth="yes"/>
      <point x="215" y="26"/>
      <point x="197" y="195"/>
      <point x="197" y="344" type="curve" smooth="yes"/>
      <point x="197" y="519"/>
      <point x="222" y="658"/>
      <point x="313" y="658" type="curve" smooth="yes"/>
      <point x="403" y="658"/>
      <point x="425" y="522"/>
      <point x="425" y="346" type="curve" smooth="yes"/>
      <point x="425" y="114"/>
      <point x="387" y="26"/>
    </contour>
  </outline>
</glyph>
<glyph name="one" format="2">
  <advance width="623"/>
  <unicode hex="0031"/>
  <outline>
    <contour>
      <point x="112" y="0" type="line"/>
      <point x="533" y="0" type="line"/>
      <point x="533" y="46" type="line"/>
      <point x="401" y="46"/>
      <point x="396" y="65"/>
      <point x="396" y="131" type="curve" smooth="yes"/>
      <point x="396" y="715" type="line"/>
      <point x="301" y="670"/>
      <point x="212" y="650"/>
      <point x="106" y="628" type="curve"/>
      <point x="106" y="586" type="line"/>
      <point x="232" y="586"/>
      <point x="252" y="572"/>
      <point x="252" y="505" type="curve" smooth="yes"/>
      <point x="252" y="131" type="line" smooth="yes"/>
      <point x="252" y="65"/>
      <point x="244" y="46"/>
      <point x="112" y="46" type="curve"/>
    </contour>
  </outline>
</glyph>
<glyph name="two" format="2">
  <advance width="623"/>
  <unicode hex="0032"/>
  <outline>
    <contour>
      <point x="28" y="0" type="line"/>
      <point x="512" y="0" type="line"/>
      <point x="569" y="237" type="line"/>
      <point x="526" y="248" type="line"/>
      <point x="477" y="137"/>
      <point x="470" y="132"/>
      <point x="346" y="132" type="curve" smooth="yes"/>
      <point x="157" y="132" type="line"/>
      <point x="189" y="164"/>
      <point x="246" y="203"/>
      <point x="286" y="228" type="curve" smooth="yes"/>
      <point x="291" y="231"/>
      <point x="404" y="301"/>
      <point x="445" y="331" type="curve" smooth="yes"/>
      <point x="512" y="380"/>
      <point x="555" y="443"/>
      <point x="555" y="517" type="curve" smooth="yes"/>
      <point x="555" y="635"/>
      <point x="446" y="703"/>
      <point x="303" y="703" type="curve" smooth="yes"/>
      <point x="141" y="703"/>
      <point x="55" y="615"/>
      <point x="55" y="533" type="curve" smooth="yes"/>
      <point x="55" y="483"/>
      <point x="88" y="444"/>
      <point x="135" y="444" type="curve" smooth="yes"/>
      <point x="180" y="444"/>
      <point x="211" y="479"/>
      <point x="211" y="525" type="curve" smooth="yes"/>
      <point x="211" y="545"/>
      <point x="205" y="565"/>
      <point x="205" y="583" type="curve" smooth="yes"/>
      <point x="205" y="628"/>
      <point x="243" y="654"/>
      <point x="292" y="654" type="curve" smooth="yes"/>
      <point x="351" y="654"/>
      <point x="394" y="616"/>
      <point x="394" y="534" type="curve" smooth="yes"/>
      <point x="394" y="459"/>
      <point x="358" y="399"/>
      <point x="311" y="345" type="curve" smooth="yes"/>
      <point x="270" y="298"/>
      <point x="229" y="264"/>
      <point x="192" y="228" type="curve" smooth="yes"/>
      <point x="146" y="183"/>
      <point x="68" y="99"/>
      <point x="28" y="52" type="curve"/>
    </contour>
  </outline>
</glyph>
<glyph name="three" format="2">
  <advance width="623"/>
  <unicode hex="0033"/>
  <outline>
    <contour>
      <point x="287" y="-18" type="curve" smooth="yes"/>
      <point x="457" y="-18"/>
      <point x="570" y="64"/>
      <point x="570" y="183" type="curve" smooth="yes"/>
      <point x="570" y="276"/>
      <point x="502" y="351"/>
      <point x="351" y="366" type="curve"/>
      <point x="439" y="371"/>
      <point x="550" y="431"/>
      <point x="550" y="533" type="curve" smooth="yes"/>
      <point x="550" y="637"/>
      <point x="434" y="703"/>
      <point x="304" y="703" type="curve" smooth="yes"/>
      <point x="188" y="703"/>
      <point x="71" y="650"/>
      <point x="71" y="565" type="curve" smooth="yes"/>
      <point x="71" y="516"/>
      <point x="109" y="488"/>
      <point x="151" y="488" type="curve" smooth="yes"/>
      <point x="178" y="488"/>
      <point x="221" y="500"/>
      <point x="221" y="585" type="curve" smooth="yes"/>
      <point x="221" y="639"/>
      <point x="258" y="658"/>
      <point x="298" y="658" type="curve" smooth="yes"/>
      <point x="348" y="658"/>
      <point x="398" y="629"/>
      <point x="398" y="535" type="curve" smooth="yes"/>
      <point x="398" y="432"/>
      <point x="339" y="389"/>
      <point x="270" y="389" type="curve" smooth="yes"/>
      <point x="252" y="389"/>
      <point x="240" y="392"/>
      <point x="226" y="392" type="curve" smooth="yes"/>
      <point x="194" y="392"/>
      <point x="191" y="375"/>
      <point x="191" y="365" type="curve" smooth="yes"/>
      <point x="191" y="354"/>
      <point x="195" y="334"/>
      <point x="222" y="334" type="curve" smooth="yes"/>
      <point x="235" y="334"/>
      <point x="268" y="339"/>
      <point x="288" y="339" type="curve" smooth="yes"/>
      <point x="352" y="339"/>
      <point x="413" y="288"/>
      <point x="413" y="182" type="curve" smooth="yes"/>
      <point x="413" y="86"/>
      <point x="363" y="26"/>
      <point x="278" y="26" type="curve" smooth="yes"/>
      <point x="208" y="26"/>
      <point x="196" y="67"/>
      <point x="196" y="107" type="curve" smooth="yes"/>
      <point x="196" y="168"/>
      <point x="162" y="201"/>
      <point x="117" y="201" type="curve" smooth="yes"/>
      <point x="72" y="201"/>
      <point x="41" y="167"/>
      <point x="41" y="120" type="curve" smooth="yes"/>
      <point x="41" y="26"/>
      <point x="163" y="-18"/>
    </contour>
  </outline>
</glyph>
<glyph name="four" format="2">
  <advance width="623"/>
  <unicode hex="0034"/>
  <outline>
    <contour>
      <point x="228" y="0" type="line"/>
      <point x="558" y="0" type="line"/>
      <point x="558" y="46" type="line"/>
      <point x="477" y="46"/>
      <point x="471" y="65"/>
      <point x="471" y="131" type="curve" smooth="yes"/>
      <point x="471" y="166" type="line"/>
      <point x="595" y="166" type="line"/>
      <point x="595" y="216" type="line"/>
      <point x="471" y="216" type="line"/>
      <point x="471" y="703" type="line"/>
      <point x="375" y="703" type="line"/>
      <point x="27" y="210" type="line"/>
      <point x="27" y="166" type="line"/>
      <point x="328" y="166" type="line"/>
      <point x="328" y="131" type="line" smooth="yes"/>
      <point x="328" y="65"/>
      <point x="320" y="46"/>
      <point x="228" y="46" type="curve"/>
    </contour>
    <contour>
      <point x="86" y="216" type="line"/>
      <point x="328" y="557" type="line"/>
      <point x="328" y="216" type="line"/>
    </contour>
  </outline>
</glyph>
<glyph name="five" format="2">
  <advance width="623"/>
  <unicode hex="0035"/>
  <outline>
    <contour>
      <point x="286" y="-18" type="curve" smooth="yes"/>
      <point x="476" y="-18"/>
      <point x="576" y="99"/>
      <point x="576" y="223" type="curve" smooth="yes"/>
      <point x="576" y="348"/>
      <point x="473" y="442"/>
      <point x="327" y="442" type="curve" smooth="yes"/>
      <point x="248" y="442"/>
      <point x="183" y="415"/>
      <point x="135" y="366" type="curve"/>
      <point x="146" y="424"/>
      <point x="156" y="489"/>
      <point x="160" y="556" type="curve"/>
      <point x="503" y="556" type="line"/>
      <point x="532" y="684" type="line"/>
      <point x="120" y="684" type="line"/>
      <point x="119" y="562"/>
      <point x="101" y="435"/>
      <point x="83" y="314" type="curve"/>
      <point x="121" y="298" type="line"/>
      <point x="158" y="346"/>
      <point x="209" y="378"/>
      <point x="272" y="378" type="curve" smooth="yes"/>
      <point x="351" y="378"/>
      <point x="415" y="328"/>
      <point x="415" y="202" type="curve" smooth="yes"/>
      <point x="415" y="116"/>
      <point x="385" y="26"/>
      <point x="281" y="26" type="curve" smooth="yes"/>
      <point x="216" y="26"/>
      <point x="203" y="61"/>
      <point x="203" y="98" type="curve" smooth="yes"/>
      <point x="203" y="180"/>
      <point x="162" y="199"/>
      <point x="128" y="199" type="curve" smooth="yes"/>
      <point x="90" y="199"/>
      <point x="46" y="174"/>
      <point x="46" y="123" type="curve" smooth="yes"/>
      <point x="46" y="45"/>
      <point x="146" y="-18"/>
    </contour>
  </outline>
</glyph>
<glyph name="six" format="2">
  <advance width="623"/>
  <unicode hex="0036"/>
  <outline>
    <contour>
      <point x="325" y="-18" type="curve" smooth="yes"/>
      <point x="477" y="-18"/>
      <point x="584" y="91"/>
      <point x="584" y="226" type="curve" smooth="yes"/>
      <point x="584" y="349"/>
      <point x="495" y="435"/>
      <point x="378" y="435" type="curve" smooth="yes"/>
      <point x="299" y="435"/>
      <point x="244" y="395"/>
      <point x="199" y="348" type="curve"/>
      <point x="203" y="540"/>
      <point x="254" y="656"/>
      <point x="336" y="656" type="curve" smooth="yes"/>
      <point x="425" y="656"/>
      <point x="371" y="520"/>
      <point x="471" y="520" type="curve" smooth="yes"/>
      <point x="521" y="520"/>
      <point x="554" y="554"/>
      <point x="554" y="598" type="curve" smooth="yes"/>
      <point x="554" y="664"/>
      <point x="479" y="704"/>
      <point x="384" y="704" type="curve" smooth="yes"/>
      <point x="188" y="704"/>
      <point x="40" y="534"/>
      <point x="40" y="312" type="curve" smooth="yes"/>
      <point x="40" y="112"/>
      <point x="160" y="-18"/>
    </contour>
    <contour>
      <point x="313" y="26" type="curve" smooth="yes"/>
      <point x="211" y="26"/>
      <point x="198" y="142"/>
      <point x="198" y="283" type="curve"/>
      <point x="232" y="323"/>
      <point x="277" y="366"/>
      <point x="330" y="366" type="curve" smooth="yes"/>
      <point x="377" y="366"/>
      <point x="423" y="333"/>
      <point x="423" y="203" type="curve" smooth="yes"/>
      <point x="423" y="108"/>
      <point x="398" y="26"/>
    </contour>
  </outline>
</glyph>
<glyph name="seven" format="2">
  <advance width="623"/>
  <unicode hex="0037"/>
  <outline>
    <contour>
      <point x="278" y="-18" type="curve" smooth="yes"/>
      <point x="334" y="-18"/>
      <point x="365" y="19"/>
      <point x="370" y="111" type="curve" smooth="yes"/>
      <point x="380" y="298"/>
      <point x="491" y="500"/>
      <point x="590" y="646" type="curve"/>
      <point x="590" y="684" type="line"/>
      <point x="118" y="684" type="line"/>
      <point x="61" y="436" type="line"/>
      <point x="98" y="423" type="line"/>
      <point x="156" y="542"/>
      <point x="160" y="552"/>
      <point x="274" y="552" type="curve" smooth="yes"/>
      <point x="479" y="552" type="line"/>
      <point x="427" y="498"/>
      <point x="371" y="424"/>
      <point x="323" y="352" type="curve" smooth="yes"/>
      <point x="266" y="267"/>
      <point x="191" y="162"/>
      <point x="191" y="76" type="curve" smooth="yes"/>
      <point x="191" y="29"/>
      <point x="214" y="-18"/>
    </contour>
  </outline>
</glyph>
<glyph name="eight" format="2">
  <advance width="623"/>
  <unicode hex="0038"/>
  <outline>
    <contour>
      <point x="307" y="-18" type="curve" smooth="yes"/>
      <point x="503" y="-18"/>
      <point x="585" y="85"/>
      <point x="585" y="195" type="curve" smooth="yes"/>
      <point x="585" y="291"/>
      <point x="523" y="359"/>
      <point x="418" y="399" type="curve"/>
      <point x="481" y="414"/>
      <point x="558" y="454"/>
      <point x="558" y="541" type="curve" smooth="yes"/>
      <point x="558" y="652"/>
      <point x="435" y="703"/>
      <point x="320" y="703" type="curve" smooth="yes"/>
      <point x="170" y="703"/>
      <point x="76" y="616"/>
      <point x="76" y="503" type="curve" smooth="yes"/>
      <point x="76" y="421"/>
      <point x="123" y="371"/>
      <point x="192" y="331" type="curve"/>
      <point x="108" y="308"/>
      <point x="38" y="241"/>
      <point x="38" y="157" type="curve" smooth="yes"/>
      <point x="38" y="57"/>
      <point x="139" y="-18"/>
    </contour>
    <contour>
      <point x="322" y="26" type="curve" smooth="yes"/>
      <point x="213" y="26"/>
      <point x="169" y="96"/>
      <point x="169" y="169" type="curve" smooth="yes"/>
      <point x="169" y="236"/>
      <point x="206" y="282"/>
      <point x="234" y="309" type="curve"/>
      <point x="273" y="287"/>
      <point x="310" y="275"/>
      <point x="366" y="249" type="curve" smooth="yes"/>
      <point x="422" y="223"/>
      <point x="467" y="197"/>
      <point x="467" y="138" type="curve" smooth="yes"/>
      <point x="467" y="74"/>
      <point x="413" y="26"/>
    </contour>
    <contour>
      <point x="375" y="417" type="curve"/>
      <point x="305" y="448"/>
      <point x="265" y="465"/>
      <point x="235" y="484" type="curve" smooth="yes"/>
      <point x="200" y="507"/>
      <point x="190" y="536"/>
      <point x="190" y="561" type="curve" smooth="yes"/>
      <point x="190" y="620"/>
      <point x="245" y="658"/>
      <point x="315" y="658" type="curve" smooth="yes"/>
      <point x="383" y="658"/>
      <point x="437" y="623"/>
      <point x="437" y="544" type="curve" smooth="yes"/>
      <point x="437" y="492"/>
      <point x="413" y="451"/>
    </contour>
  </outline>
</glyph>
<glyph name="nine" format="2">
  <advance width="623"/>
  <unicode hex="0039"/>
  <outline>
    <contour>
      <point x="241" y="-18" type="curve" smooth="yes"/>
      <point x="437" y="-18"/>
      <point x="585" y="151"/>
      <point x="585" y="373" type="curve" smooth="yes"/>
      <point x="585" y="573"/>
      <point x="464" y="703"/>
      <point x="298" y="703" type="curve" smooth="yes"/>
      <point x="148" y="703"/>
      <point x="39" y="596"/>
      <point x="39" y="460" type="curve" smooth="yes"/>
      <point x="39" y="335"/>
      <point x="131" y="249"/>
      <point x="243" y="249" type="curve" smooth="yes"/>
      <point x="324" y="249"/>
      <point x="389" y="294"/>
      <point x="428" y="346" type="curve"/>
      <point x="424" y="152"/>
      <point x="371" y="32"/>
      <point x="288" y="32" type="curve" smooth="yes"/>
      <point x="201" y="32"/>
      <point x="248" y="166"/>
      <point x="153" y="166" type="curve" smooth="yes"/>
      <point x="106" y="166"/>
      <point x="71" y="133"/>
      <point x="71" y="88" type="curve" smooth="yes"/>
      <point x="71" y="22"/>
      <point x="146" y="-18"/>
    </contour>
    <contour>
      <point x="295" y="321" type="curve" smooth="yes"/>
      <point x="245" y="321"/>
      <point x="200" y="355"/>
      <point x="200" y="483" type="curve" smooth="yes"/>
      <point x="200" y="579"/>
      <point x="225" y="658"/>
      <point x="308" y="658" type="curve" smooth="yes"/>
      <point x="413" y="658"/>
      <point x="424" y="534"/>
      <point x="424" y="433" type="curve" smooth="yes"/>
      <point x="424" y="402"/>
      <point x="423" y="424"/>
      <point x="423" y="403" type="curve"/>
      <point x="388" y="361"/>
      <point x="350" y="321"/>
    </contour>
  </outline>
</glyph>
<glyph name="equal" format="2">
  <advance width="601"/>
  <unicode hex="003D"/>
  <note>
equal
</note>
  <outline>
    <contour>
      <point x="62" y="311" type="line"/>
      <point x="539" y="311" type="line"/>
      <point x="539" y="383" type="line"/>
      <point x="62" y="383" type="line"/>
    </contour>
    <contour>
      <point x="62" y="95" type="line"/>
      <point x="539" y="95" type="line"/>
      <point x="539" y="166" type="line"/>
      <point x="62" y="166" type="line"/>
    </contour>
  </outline>
</glyph>
<glyph name="greater" format="2">
  <advance width="601"/>
  <unicode hex="003E"/>
  <note>
greater
</note>
  <outline>
    <contour>
      <point x="62" y="-5" type="line"/>
      <point x="539" y="203" type="line"/>
      <point x="539" y="275" type="line"/>
      <point x="62" y="483" type="line"/>
      <point x="62" y="406" type="line"/>
      <point x="457" y="239" type="line"/>
      <point x="62" y="71" type="line"/>
    </contour>
  </outline>
</glyph>
<glyph name="question" format="2">
  <advance width="470"/>
  <unicode hex="003F"/>
  <outline>
    <contour>
      <point x="159" y="222" type="line"/>
      <point x="205" y="222" type="line"/>
      <point x="205" y="301" type="line"/>
      <point x="333" y="301"/>
      <point x="427" y="384"/>
      <point x="427" y="505" type="curve" smooth="yes"/>
      <point x="427" y="631"/>
      <point x="324" y="735"/>
      <point x="193" y="735" type="curve" smooth="yes"/>
      <point x="123" y="735"/>
      <point x="65" y="705"/>
      <point x="65" y="649" type="curve" smooth="yes"/>
      <point x="65" y="608"/>
      <point x="95" y="577"/>
      <point x="134" y="577" type="curve" smooth="yes"/>
      <point x="205" y="577"/>
      <point x="206" y="680"/>
      <point x="256" y="680" type="curve" smooth="yes"/>
      <point x="289" y="680"/>
      <point x="314" y="634"/>
      <point x="314" y="572" type="curve" smooth="yes"/>
      <point x="314" y="500"/>
      <point x="280" y="426"/>
      <point x="159" y="426" type="curve"/>
    </contour>
    <component base="period" xOffset="51"/>
  </outline>
</glyph>
<glyph name="at" format="2">
  <advance width="812"/>
  <unicode hex="0040"/>
  <outline>
    <contour>
      <point x="390" y="-18" type="curve" smooth="yes"/>
      <point x="505" y="-18"/>
      <point x="588" y="32"/>
      <point x="663" y="96" type="curve"/>
      <point x="635" y="133" type="line"/>
      <point x="563" y="76"/>
      <point x="492" y="32"/>
      <point x="397" y="32" type="curve" smooth="yes"/>
      <point x="240" y="32"/>
      <point x="106" y="152"/>
      <point x="106" y="329" type="curve" smooth="yes"/>
      <point x="106" y="528"/>
      <point x="276" y="688"/>
      <point x="462" y="688" type="curve" smooth="yes"/>
      <point x="606" y="688"/>
      <point x="709" y="593"/>
      <point x="709" y="455" type="curve" smooth="yes"/>
      <point x="709" y="310"/>
      <point x="596" y="210"/>
      <point x="552" y="210" type="curve" smooth="yes"/>
      <point x="543" y="210"/>
      <point x="537" y="214"/>
      <point x="537" y="226" type="curve" smooth="yes"/>
      <point x="537" y="237"/>
      <point x="542" y="257"/>
      <point x="545" y="273" type="curve" smooth="yes"/>
      <point x="562" y="365"/>
      <point x="587" y="469"/>
      <point x="613" y="564" type="curve"/>
      <point x="521" y="564" type="line"/>
      <point x="512" y="536" type="line"/>
      <point x="493" y="555"/>
      <point x="479" y="565"/>
      <point x="451" y="565" type="curve" smooth="yes"/>
      <point x="346" y="565"/>
      <point x="229" y="421"/>
      <point x="229" y="295" type="curve" smooth="yes"/>
      <point x="229" y="212"/>
      <point x="279" y="155"/>
      <point x="346" y="155" type="curve" smooth="yes"/>
      <point x="396" y="155"/>
      <point x="423" y="186"/>
      <point x="446" y="213" type="curve"/>
      <point x="455" y="181"/>
      <point x="469" y="155"/>
      <point x="524" y="155" type="curve" smooth="yes"/>
      <point x="655" y="155"/>
      <point x="775" y="301"/>
      <point x="775" y="460" type="curve" smooth="yes"/>
      <point x="775" y="626"/>
      <point x="643" y="739"/>
      <point x="463" y="739" type="curve" smooth="yes"/>
      <point x="245" y="739"/>
      <point x="36" y="572"/>
      <point x="36" y="332" type="curve" smooth="yes"/>
      <point x="36" y="120"/>
      <point x="199" y="-18"/>
    </contour>
    <contour>
      <point x="356" y="202" type="curve" smooth="yes"/>
      <point x="333" y="202"/>
      <point x="329" y="235"/>
      <point x="329" y="261" type="curve" smooth="yes"/>
      <point x="329" y="367"/>
      <point x="396" y="523"/>
      <point x="455" y="523" type="curve" smooth="yes"/>
      <point x="476" y="523"/>
      <point x="484" y="502"/>
      <point x="484" y="474" type="curve" smooth="yes"/>
      <point x="484" y="388"/>
      <point x="410" y="202"/>
    </contour>
  </outline>
</glyph>
<glyph name="A" format="2">
  <advance width="686"/>
  <unicode hex="0041"/>
  <anchor x="290" y="0" name="dotbelow"/>
  <anchor x="528" y="0" name="ogonek"/>
  <anchor x="354" y="813" name="top"/>
  <outline>
    <contour>
      <point x="-8" y="0" type="line"/>
      <point x="216" y="0" type="line"/>
      <point x="216" y="43" type="line"/>
      <point x="154" y="45"/>
      <point x="135" y="67"/>
      <point x="135" y="96" type="curve" smooth="yes"/>
      <point x="135" y="112"/>
      <point x="141" y="140"/>
      <point x="147" y="158" type="curve" smooth="yes"/>
      <point x="175" y="241" type="line"/>
      <point x="405" y="241" type="line"/>
      <point x="436" y="138" type="line" smooth="yes"/>
      <point x="442" y="118"/>
      <point x="450" y="90"/>
      <point x="450" y="78" type="curve" smooth="yes"/>
      <point x="450" y="61"/>
      <point x="436" y="43"/>
      <point x="378" y="43" type="curve"/>
      <point x="378" y="0" type="line"/>
      <point x="693" y="0" type="line"/>
      <point x="693" y="43" type="line"/>
      <point x="636" y="43"/>
      <point x="622" y="61"/>
      <point x="612" y="82" type="curve" smooth="yes"/>
      <point x="605" y="97"/>
      <point x="598" y="116"/>
      <point x="592" y="136" type="curve" smooth="yes"/>
      <point x="413" y="749" type="line"/>
      <point x="295" y="711" type="line"/>
      <point x="95" y="160" type="line" smooth="yes"/>
      <point x="66" y="80"/>
      <point x="48" y="43"/>
      <point x="-8" y="43" type="curve"/>
    </contour>
    <contour>
      <point x="192" y="293" type="line"/>
      <point x="306" y="619" type="line"/>
      <point x="389" y="293" type="line"/>
    </contour>
  </outline>
</glyph>
<glyph name="B" format="2">
  <advance width="726"/>
  <unicode hex="0042"/>
  <anchor x="345" y="0" name="dotbelow"/>
  <anchor x="347" y="813" name="top"/>
  <outline>
    <contour>
      <point x="36" y="0" type="line"/>
      <point x="370" y="0" type="line" smooth="yes"/>
      <point x="592" y="0"/>
      <point x="682" y="78"/>
      <point x="682" y="192" type="curve" smooth="yes"/>
      <point x="682" y="317"/>
      <point x="575" y="374"/>
      <point x="457" y="386" type="curve"/>
      <point x="565" y="400"/>
      <point x="644" y="449"/>
      <point x="644" y="552" type="curve" smooth="yes"/>
      <point x="644" y="678"/>
      <point x="524" y="721"/>
      <point x="370" y="721" type="curve" smooth="yes"/>
      <point x="36" y="721" type="line"/>
      <point x="36" y="678" type="line"/>
      <point x="122" y="675"/>
      <point x="125" y="665"/>
      <point x="125" y="599" type="curve" smooth="yes"/>
      <point x="125" y="131" type="line" smooth="yes"/>
      <point x="125" y="65"/>
      <point x="123" y="46"/>
      <point x="36" y="43" type="curve"/>
    </contour>
    <contour>
      <point x="357" y="45" type="curve" smooth="yes"/>
      <point x="280" y="45"/>
      <point x="280" y="71"/>
      <point x="280" y="131" type="curve" smooth="yes"/>
      <point x="280" y="359" type="line"/>
      <point x="319" y="359" type="line" smooth="yes"/>
      <point x="397" y="359"/>
      <point x="521" y="359"/>
      <point x="521" y="202" type="curve" smooth="yes"/>
      <point x="521" y="74"/>
      <point x="439" y="45"/>
    </contour>
    <contour>
      <point x="280" y="405" type="line"/>
      <point x="280" y="599" type="line" smooth="yes"/>
      <point x="280" y="664"/>
      <point x="298" y="677"/>
      <point x="355" y="677" type="curve" smooth="yes"/>
      <point x="424" y="677"/>
      <point x="489" y="658"/>
      <point x="489" y="542" type="curve" smooth="yes"/>
      <point x="489" y="455"/>
      <point x="453" y="405"/>
      <point x="315" y="405" type="curve" smooth="yes"/>
    </contour>
  </outline>
</glyph>
<glyph name="C" format="2">
  <advance width="676"/>
  <unicode hex="0043"/>
  <anchor x="325" y="-17" name="attachcedilla"/>
  <anchor x="349" y="813" name="top"/>
  <outline>
    <contour>
      <point x="363" y="-18" type="curve" smooth="yes"/>
      <point x="494" y="-18"/>
      <point x="597" y="55"/>
      <point x="657" y="196" type="curve"/>
      <point x="617" y="215" type="line"/>
      <point x="569" y="124"/>
      <point x="508" y="68"/>
      <point x="421" y="68" type="curve" smooth="yes"/>
      <point x="269" y="68"/>
      <point x="204" y="241"/>
      <point x="204" y="415" type="curve" smooth="yes"/>
      <point x="204" y="607"/>
      <point x="284" y="692"/>
      <point x="374" y="692" type="curve" smooth="yes"/>
      <point x="453" y="692"/>
      <point x="528" y="626"/>
      <point x="591" y="505" type="curve"/>
      <point x="637" y="522" type="line"/>
      <point x="583" y="729" type="line"/>
      <point x="562" y="737" type="line"/>
      <point x="544" y="729"/>
      <point x="517" y="710"/>
      <point x="501" y="710" type="curve" smooth="yes"/>
      <point x="481" y="710"/>
      <point x="435" y="739"/>
      <point x="367" y="739" type="curve" smooth="yes"/>
      <point x="203" y="739"/>
      <point x="43" y="572"/>
      <point x="43" y="338" type="curve" smooth="yes"/>
      <point x="43" y="118"/>
      <point x="185" y="-18"/>
    </contour>
  </outline>
</glyph>
<glyph name="D" format="2">
  <advance width="779"/>
  <unicode hex="0044"/>
  <anchor x="362" y="0" name="commaaccentbelow"/>
  <anchor x="335" y="0" name="dotbelow"/>
  <anchor x="356" y="813" name="top"/>
  <outline>
    <contour>
      <point x="36" y="0" type="line"/>
      <point x="370" y="0" type="line" smooth="yes"/>
      <point x="522" y="0"/>
      <point x="600" y="50"/>
      <point x="656" y="120" type="curve" smooth="yes"/>
      <point x="709" y="186"/>
      <point x="735" y="261"/>
      <point x="735" y="352" type="curve" smooth="yes"/>
      <point x="735" y="442"/>
      <point x="709" y="573"/>
      <point x="598" y="657" type="curve" smooth="yes"/>
      <point x="539" y="701"/>
      <point x="471" y="721"/>
      <point x="348" y="721" type="curve" smooth="yes"/>
      <point x="36" y="721" type="line"/>
      <point x="36" y="678" type="line"/>
      <point x="122" y="675"/>
      <point x="125" y="665"/>
      <point x="125" y="599" type="curve" smooth="yes"/>
      <point x="125" y="131" type="line" smooth="yes"/>
      <point x="125" y="65"/>
      <point x="123" y="46"/>
      <point x="36" y="43" type="curve"/>
    </contour>
    <contour>
      <point x="357" y="44" type="curve" smooth="yes"/>
      <point x="281" y="44"/>
      <point x="280" y="65"/>
      <point x="280" y="131" type="curve" smooth="yes"/>
      <point x="280" y="599" type="line" smooth="yes"/>
      <point x="280" y="665"/>
      <point x="302" y="674"/>
      <point x="360" y="674" type="curve" smooth="yes"/>
      <point x="470" y="674"/>
      <point x="565" y="643"/>
      <point x="565" y="358" type="curve" smooth="yes"/>
      <point x="565" y="115"/>
      <point x="496" y="44"/>
    </contour>
  </outline>
</glyph>
<glyph name="E" format="2">
  <advance width="718"/>
  <unicode hex="0045"/>
  <anchor x="342" y="17" name="attachcedilla"/>
  <anchor x="343" y="0" name="dotbelow"/>
  <anchor x="446" y="0" name="ogonek"/>
  <anchor x="343" y="813" name="top"/>
  <outline>
    <contour>
      <point x="36" y="0" type="line"/>
      <point x="624" y="0" type="line"/>
      <point x="681" y="195" type="line"/>
      <point x="642" y="217" type="line"/>
      <point x="577" y="129"/>
      <point x="489" y="46"/>
      <point x="352" y="46" type="curve" smooth="yes"/>
      <point x="288" y="46"/>
      <point x="280" y="64"/>
      <point x="280" y="152" type="curve" smooth="yes"/>
      <point x="280" y="343" type="line"/>
      <point x="391" y="343"/>
      <point x="448" y="324"/>
      <point x="459" y="217" type="curve"/>
      <point x="504" y="217" type="line"/>
      <point x="504" y="509" type="line"/>
      <point x="459" y="509" type="line"/>
      <point x="428" y="403"/>
      <point x="391" y="394"/>
      <point x="280" y="394" type="curve"/>
      <point x="280" y="585" type="line" smooth="yes"/>
      <point x="280" y="652"/>
      <point x="294" y="668"/>
      <point x="354" y="668" type="curve" smooth="yes"/>
      <point x="496" y="668"/>
      <point x="570" y="577"/>
      <point x="624" y="502" type="curve"/>
      <point x="663" y="524" type="line"/>
      <point x="606" y="721" type="line"/>
      <point x="36" y="721" type="line"/>
      <point x="36" y="678" type="line"/>
      <point x="122" y="675"/>
      <point x="125" y="665"/>
      <point x="125" y="599" type="curve" smooth="yes"/>
      <point x="125" y="131" type="line" smooth="yes"/>
      <point x="125" y="65"/>
      <point x="123" y="46"/>
      <point x="36" y="43" type="curve"/>
    </contour>
  </outline>
</glyph>
<glyph name="F" format="2">
  <advance width="661"/>
  <unicode hex="0046"/>
  <anchor x="343" y="813" name="top"/>
  <outline>
    <contour>
      <point x="36" y="0" type="line"/>
      <point x="385" y="0" type="line"/>
      <point x="385" y="43" type="line"/>
      <point x="294" y="43"/>
      <point x="280" y="54"/>
      <point x="280" y="131" type="curve" smooth="yes"/>
      <point x="280" y="343" type="line"/>
      <point x="394" y="343"/>
      <point x="450" y="326"/>
      <point x="462" y="219" type="curve"/>
      <point x="506" y="219" type="line"/>
      <point x="506" y="507" type="line"/>
      <point x="462" y="507" type="line"/>
      <point x="430" y="401"/>
      <point x="394" y="394"/>
      <point x="280" y="394" type="curve"/>
      <point x="280" y="587" type="line" smooth="yes"/>
      <point x="280" y="653"/>
      <point x="294" y="671"/>
      <point x="351" y="671" type="curve" smooth="yes"/>
      <point x="480" y="671"/>
      <point x="561" y="578"/>
      <point x="616" y="501" type="curve"/>
      <point x="652" y="522" type="line"/>
      <point x="594" y="721" type="line"/>
      <point x="36" y="721" type="line"/>
      <point x="36" y="678" type="line"/>
      <point x="122" y="675"/>
      <point x="125" y="665"/>
      <point x="125" y="599" type="curve" smooth="yes"/>
      <point x="125" y="131" type="line" smooth="yes"/>
      <point x="125" y="65"/>
      <point x="123" y="46"/>
      <point x="36" y="43" type="curve"/>
    </contour>
  </outline>
</glyph>
<glyph name="G" format="2">
  <advance width="777"/>
  <unicode hex="0047"/>
  <anchor x="356" y="0" name="commaaccentbelow"/>
  <anchor x="387" y="813" name="top"/>
  <outline>
    <contour>
      <point x="380" y="-18" type="curve" smooth="yes"/>
      <point x="479" y="-18"/>
      <point x="565" y="23"/>
      <point x="609" y="22" type="curve" smooth="yes"/>
      <point x="666" y="21" type="line"/>
      <point x="666" y="176" type="line" smooth="yes"/>
      <point x="666" y="242"/>
      <point x="666" y="278"/>
      <point x="747" y="278" type="curve"/>
      <point x="747" y="321" type="line"/>
      <point x="427" y="321" type="line"/>
      <point x="427" y="278" type="line"/>
      <point x="508" y="275"/>
      <point x="524" y="258"/>
      <point x="524" y="192" type="curve" smooth="yes"/>
      <point x="524" y="101"/>
      <point x="494" y="26"/>
      <point x="389" y="26" type="curve" smooth="yes"/>
      <point x="241" y="26"/>
      <point x="213" y="177"/>
      <point x="213" y="337" type="curve" smooth="yes"/>
      <point x="213" y="598"/>
      <point x="288" y="695"/>
      <point x="397" y="695" type="curve" smooth="yes"/>
      <point x="455" y="695"/>
      <point x="538" y="668"/>
      <point x="625" y="503" type="curve"/>
      <point x="667" y="520" type="line"/>
      <point x="619" y="729" type="line"/>
      <point x="596" y="731" type="line"/>
      <point x="577" y="722"/>
      <point x="554" y="707"/>
      <point x="539" y="707" type="curve" smooth="yes"/>
      <point x="517" y="707"/>
      <point x="474" y="739"/>
      <point x="389" y="739" type="curve" smooth="yes"/>
      <point x="187" y="739"/>
      <point x="43" y="560"/>
      <point x="43" y="342" type="curve" smooth="yes"/>
      <point x="43" y="114"/>
      <point x="201" y="-18"/>
    </contour>
  </outline>
</glyph>
<glyph name="H" format="2">
  <advance width="805"/>
  <unicode hex="0048"/>
  <anchor x="181" y="17" name="attachcedilla"/>
  <anchor x="392" y="0" name="dotbelow"/>
  <anchor x="400" y="813" name="top"/>
  <outline>
    <contour>
      <point x="36" y="0" type="line"/>
      <point x="366" y="0" type="line"/>
      <point x="366" y="43" type="line"/>
      <point x="279" y="46"/>
      <point x="280" y="65"/>
      <point x="280" y="131" type="curve" smooth="yes"/>
      <point x="280" y="341" type="line"/>
      <point x="524" y="341" type="line"/>
      <point x="524" y="131" type="line" smooth="yes"/>
      <point x="524" y="65"/>
      <point x="525" y="46"/>
      <point x="438" y="43" type="curve"/>
      <point x="438" y="0" type="line"/>
      <point x="769" y="0" type="line"/>
      <point x="769" y="43" type="line"/>
      <point x="681" y="46"/>
      <point x="679" y="65"/>
      <point x="679" y="131" type="curve" smooth="yes"/>
      <point x="679" y="599" type="line" smooth="yes"/>
      <point x="679" y="665"/>
      <point x="682" y="675"/>
      <point x="769" y="678" type="curve"/>
      <point x="769" y="721" type="line"/>
      <point x="438" y="721" type="line"/>
      <point x="438" y="678" type="line"/>
      <point x="524" y="675"/>
      <point x="524" y="665"/>
      <point x="524" y="599" type="curve" smooth="yes"/>
      <point x="524" y="392" type="line"/>
      <point x="280" y="392" type="line"/>
      <point x="280" y="599" type="line" smooth="yes"/>
      <point x="280" y="665"/>
      <point x="280" y="675"/>
      <point x="366" y="678" type="curve"/>
      <point x="366" y="721" type="line"/>
      <point x="36" y="721" type="line"/>
      <point x="36" y="678" type="line"/>
      <point x="122" y="675"/>
      <point x="125" y="665"/>
      <point x="125" y="599" type="curve" smooth="yes"/>
      <point x="125" y="131" type="line" smooth="yes"/>
      <point x="125" y="65"/>
      <point x="123" y="46"/>
      <point x="36" y="43" type="curve"/>
    </contour>
  </outline>
</glyph>
<glyph name="I" format="2">
  <advance width="408"/>
  <unicode hex="0049"/>
  <anchor x="192" y="0" name="dotbelow"/>
  <anchor x="195" y="0" name="ogonek"/>
  <anchor x="203" y="813" name="top"/>
  <outline>
    <contour>
      <point x="36" y="0" type="line"/>
      <point x="370" y="0" type="line"/>
      <point x="370" y="43" type="line"/>
      <point x="282" y="46"/>
      <point x="280" y="65"/>
      <point x="280" y="131" type="curve" smooth="yes"/>
      <point x="280" y="599" type="line" smooth="yes"/>
      <point x="280" y="665"/>
      <point x="283" y="675"/>
      <point x="370" y="678" type="curve"/>
      <point x="370" y="721" type="line"/>
      <point x="36" y="721" type="line"/>
      <point x="36" y="678" type="line"/>
      <point x="122" y="675"/>
      <point x="125" y="665"/>
      <point x="125" y="599" type="curve" smooth="yes"/>
      <point x="125" y="131" type="line" smooth="yes"/>
      <point x="125" y="65"/>
      <point x="123" y="46"/>
      <point x="36" y="43" type="curve"/>
    </contour>
  </outline>
</glyph>
<glyph name="J" format="2">
  <advance width="493"/>
  <unicode hex="004A"/>
  <anchor x="297" y="813" name="top"/>
  <outline>
    <contour>
      <point x="145" y="-18" type="curve" smooth="yes"/>
      <point x="226" y="-18"/>
      <point x="292" y="17"/>
      <point x="335" y="77" type="curve" smooth="yes"/>
      <point x="365" y="119"/>
      <point x="374" y="154"/>
      <point x="374" y="250" type="curve" smooth="yes"/>
      <point x="374" y="599" type="line" smooth="yes"/>
      <point x="374" y="665"/>
      <point x="377" y="675"/>
      <point x="464" y="678" type="curve"/>
      <point x="464" y="721" type="line"/>
      <point x="125" y="721" type="line"/>
      <point x="125" y="678" type="line"/>
      <point x="212" y="675"/>
      <point x="219" y="665"/>
      <point x="219" y="599" type="curve" smooth="yes"/>
      <point x="219" y="163" type="line" smooth="yes"/>
      <point x="219" y="60"/>
      <point x="204" y="39"/>
      <point x="180" y="39" type="curve" smooth="yes"/>
      <point x="153" y="39"/>
      <point x="152" y="67"/>
      <point x="145" y="98" type="curve" smooth="yes"/>
      <point x="136" y="138"/>
      <point x="118" y="177"/>
      <point x="67" y="177" type="curve" smooth="yes"/>
      <point x="23" y="177"/>
      <point x="-11" y="147"/>
      <point x="-11" y="98" type="curve" smooth="yes"/>
      <point x="-11" y="36"/>
      <point x="44" y="-18"/>
    </contour>
  </outline>
</glyph>
<glyph name="K" format="2">
  <advance width="761"/>
  <unicode hex="004B"/>
  <anchor x="386" y="0" name="commaaccentbelow"/>
  <anchor x="382" y="0" name="dotbelow"/>
  <anchor x="390" y="813" name="top"/>
  <outline>
    <contour>
      <point x="36" y="0" type="line"/>
      <point x="366" y="0" type="line"/>
      <point x="366" y="43" type="line"/>
      <point x="279" y="46"/>
      <point x="280" y="65"/>
      <point x="280" y="131" type="curve" smooth="yes"/>
      <point x="280" y="283" type="line"/>
      <point x="360" y="368" type="line"/>
      <point x="490" y="120" type="line" smooth="yes"/>
      <point x="499" y="103"/>
      <point x="514" y="76"/>
      <point x="514" y="66" type="curve" smooth="yes"/>
      <point x="514" y="53"/>
      <point x="492" y="43"/>
      <point x="444" y="43" type="curve"/>
      <point x="444" y="0" type="line"/>
      <point x="768" y="0" type="line"/>
      <point x="768" y="43" type="line"/>
      <point x="710" y="43"/>
      <point x="694" y="68"/>
      <point x="677" y="99" type="curve" smooth="yes"/>
      <point x="467" y="476" type="line"/>
      <point x="546" y="561" type="line" smooth="yes"/>
      <point x="570" y="587"/>
      <point x="642" y="678"/>
      <point x="752" y="678" type="curve"/>
      <point x="752" y="721" type="line"/>
      <point x="459" y="721" type="line"/>
      <point x="459" y="678" type="line"/>
      <point x="517" y="674"/>
      <point x="533" y="667"/>
      <point x="533" y="641" type="curve" smooth="yes"/>
      <point x="533" y="624"/>
      <point x="526" y="612"/>
      <point x="510" y="595" type="curve" smooth="yes"/>
      <point x="280" y="357" type="line"/>
      <point x="280" y="599" type="line" smooth="yes"/>
      <point x="280" y="665"/>
      <point x="280" y="675"/>
      <point x="366" y="678" type="curve"/>
      <point x="366" y="721" type="line"/>
      <point x="36" y="721" type="line"/>
      <point x="36" y="678" type="line"/>
      <point x="122" y="675"/>
      <point x="125" y="665"/>
      <point x="125" y="599" type="curve" smooth="yes"/>
      <point x="125" y="131" type="line" smooth="yes"/>
      <point x="125" y="65"/>
      <point x="123" y="46"/>
      <point x="36" y="43" type="curve"/>
    </contour>
  </outline>
</glyph>
<glyph name="M" format="2">
  <advance width="915"/>
  <unicode hex="004D"/>
  <anchor x="391" y="0" name="dotbelow"/>
  <anchor x="455" y="813" name="top"/>
  <outline>
    <contour>
      <point x="36" y="0" type="line"/>
      <point x="266" y="0" type="line"/>
      <point x="266" y="43" type="line"/>
      <point x="178" y="46"/>
      <point x="176" y="141"/>
      <point x="176" y="206" type="curve" smooth="yes"/>
      <point x="176" y="636" type="line"/>
      <point x="382" y="0" type="line"/>
      <point x="421" y="0" type="line"/>
      <point x="634" y="622" type="line"/>
      <point x="634" y="131" type="line" smooth="yes"/>
      <point x="634" y="65"/>
      <point x="631" y="46"/>
      <point x="544" y="43" type="curve"/>
      <point x="544" y="0" type="line"/>
      <point x="878" y="0" type="line"/>
      <point x="878" y="43" type="line"/>
      <point x="790" y="46"/>
      <point x="788" y="65"/>
      <point x="788" y="131" type="curve" smooth="yes"/>
      <point x="788" y="599" type="line" smooth="yes"/>
      <point x="788" y="665"/>
      <point x="791" y="675"/>
      <point x="878" y="678" type="curve"/>
      <point x="878" y="721" type="line"/>
      <point x="615" y="721" type="line"/>
      <point x="455" y="258" type="line"/>
      <point x="307" y="721" type="line"/>
      <point x="36" y="721" type="line"/>
      <point x="36" y="678" type="line"/>
      <point x="122" y="675"/>
      <point x="125" y="665"/>
      <point x="125" y="599" type="curve" smooth="yes"/>
      <point x="125" y="206" type="line" smooth="yes"/>
      <point x="125" y="141"/>
      <point x="123" y="46"/>
      <point x="36" y="43" type="curve"/>
    </contour>
  </outline>
</glyph>
<glyph name="N" format="2">
  <advance width="752"/>
  <unicode hex="004E"/>
  <anchor x="363" y="0" name="commaaccentbelow"/>
  <anchor x="356" y="0" name="dotbelow"/>
  <anchor x="375" y="813" name="top"/>
  <outline>
    <contour>
      <point x="36" y="0" type="line"/>
      <point x="266" y="0" type="line"/>
      <point x="266" y="43" type="line"/>
      <point x="178" y="46"/>
      <point x="176" y="141"/>
      <point x="176" y="206" type="curve" smooth="yes"/>
      <point x="176" y="576" type="line"/>
      <point x="539" y="0" type="line"/>
      <point x="634" y="0" type="line"/>
      <point x="634" y="515" type="line" smooth="yes"/>
      <point x="634" y="581"/>
      <point x="636" y="675"/>
      <point x="723" y="678" type="curve"/>
      <point x="723" y="721" type="line"/>
      <point x="493" y="721" type="line"/>
      <point x="493" y="678" type="line"/>
      <point x="581" y="675"/>
      <point x="583" y="581"/>
      <point x="583" y="515" type="curve" smooth="yes"/>
      <point x="583" y="211" type="line"/>
      <point x="262" y="721" type="line"/>
      <point x="36" y="721" type="line"/>
      <point x="36" y="678" type="line"/>
      <point x="101" y="669"/>
      <point x="125" y="640"/>
      <point x="125" y="631" type="curve" smooth="yes"/>
      <point x="125" y="206" type="line" smooth="yes"/>
      <point x="125" y="141"/>
      <point x="123" y="46"/>
      <point x="36" y="43" type="curve"/>
    </contour>
  </outline>
</glyph>
<glyph name="O" format="2">
  <advance width="765"/>
  <unicode hex="004F"/>
  <anchor x="623" y="592" name="attachhorn"/>
  <anchor x="381" y="0" name="dotbelow"/>
  <anchor x="452" y="0" name="ogonek"/>
  <anchor x="381" y="813" name="top"/>
  <outline>
    <contour>
      <point x="384" y="-18" type="curve" smooth="yes"/>
      <point x="575" y="-18"/>
      <point x="722" y="137"/>
      <point x="722" y="362" type="curve" smooth="yes"/>
      <point x="722" y="581"/>
      <point x="576" y="739"/>
      <point x="382" y="739" type="curve" smooth="yes"/>
      <point x="187" y="739"/>
      <point x="43" y="578"/>
      <point x="43" y="362" type="curve" smooth="yes"/>
      <point x="43" y="111"/>
      <point x="213" y="-18"/>
    </contour>
    <contour>
      <point x="381" y="26" type="curve" smooth="yes"/>
      <point x="278" y="26"/>
      <point x="213" y="133"/>
      <point x="213" y="360" type="curve" smooth="yes"/>
      <point x="213" y="661"/>
      <point x="323" y="695"/>
      <point x="385" y="695" type="curve" smooth="yes"/>
      <point x="497" y="695"/>
      <point x="552" y="582"/>
      <point x="552" y="354" type="curve" smooth="yes"/>
      <point x="552" y="137"/>
      <point x="495" y="26"/>
    </contour>
  </outline>
</glyph>
<glyph name="P" format="2">
  <advance width="683"/>
  <unicode hex="0050"/>
  <anchor x="347" y="813" name="top"/>
  <outline>
    <contour>
      <point x="36" y="0" type="line"/>
      <point x="370" y="0" type="line"/>
      <point x="370" y="43" type="line"/>
      <point x="282" y="46"/>
      <point x="280" y="65"/>
      <point x="280" y="131" type="curve" smooth="yes"/>
      <point x="280" y="329" type="line"/>
      <point x="389" y="329" type="line" smooth="yes"/>
      <point x="488" y="329"/>
      <point x="546" y="349"/>
      <point x="589" y="389" type="curve" smooth="yes"/>
      <point x="631" y="429"/>
      <point x="650" y="481"/>
      <point x="650" y="526" type="curve" smooth="yes"/>
      <point x="650" y="586"/>
      <point x="617" y="667"/>
      <point x="523" y="702" type="curve" smooth="yes"/>
      <point x="471" y="721"/>
      <point x="413" y="721"/>
      <point x="336" y="721" type="curve" smooth="yes"/>
      <point x="36" y="721" type="line"/>
      <point x="36" y="678" type="line"/>
      <point x="122" y="675"/>
      <point x="125" y="665"/>
      <point x="125" y="599" type="curve" smooth="yes"/>
      <point x="125" y="131" type="line" smooth="yes"/>
      <point x="125" y="65"/>
      <point x="123" y="46"/>
      <point x="36" y="43" type="curve"/>
    </contour>
    <contour>
      <point x="280" y="376" type="line"/>
      <point x="280" y="591" type="line" smooth="yes"/>
      <point x="280" y="655"/>
      <point x="294" y="679"/>
      <point x="360" y="679" type="curve" smooth="yes"/>
      <point x="461" y="679"/>
      <point x="484" y="622"/>
      <point x="484" y="533" type="curve" smooth="yes"/>
      <point x="484" y="404"/>
      <point x="435" y="376"/>
      <point x="338" y="376" type="curve" smooth="yes"/>
    </contour>
  </outline>
</glyph>
<glyph name="Q" format="2">
  <advance width="762"/>
  <unicode hex="0051"/>
  <anchor x="381" y="813" name="top"/>
  <outline>
    <contour>
      <point x="578" y="-146" type="curve" smooth="yes"/>
      <point x="653" y="-146"/>
      <point x="709" y="-93"/>
      <point x="743" y="-42" type="curve"/>
      <point x="708" y="-12" type="line"/>
      <point x="697" y="-26"/>
      <point x="677" y="-48"/>
      <point x="654" y="-48" type="curve" smooth="yes"/>
      <point x="626" y="-48"/>
      <point x="591" y="-8"/>
      <point x="563" y="40" type="curve"/>
      <point x="655" y="104"/>
      <point x="719" y="218"/>
      <point x="719" y="360" type="curve" smooth="yes"/>
      <point x="719" y="581"/>
      <point x="563" y="739"/>
      <point x="383" y="739" type="curve" smooth="yes"/>
      <point x="199" y="739"/>
      <point x="43" y="573"/>
      <point x="43" y="350" type="curve" smooth="yes"/>
      <point x="43" y="116"/>
      <point x="215" y="-18"/>
      <point x="379" y="-18" type="curve" smooth="yes"/>
      <point x="399" y="-18"/>
      <point x="422" y="-16"/>
      <point x="438" y="-12" type="curve"/>
      <point x="456" y="-95"/>
      <point x="505" y="-146"/>
    </contour>
    <contour>
      <point x="377" y="26" type="curve" smooth="yes"/>
      <point x="314" y="26"/>
      <point x="288" y="62"/>
      <point x="288" y="100" type="curve" smooth="yes"/>
      <point x="288" y="143"/>
      <point x="322" y="163"/>
      <point x="354" y="163" type="curve" smooth="yes"/>
      <point x="400" y="163"/>
      <point x="424" y="120"/>
      <point x="431" y="35" type="curve"/>
      <point x="418" y="31"/>
      <point x="400" y="26"/>
    </contour>
    <contour>
      <point x="515" y="96" type="curve"/>
      <point x="490" y="146"/>
      <point x="438" y="208"/>
      <point x="359" y="208" type="curve" smooth="yes"/>
      <point x="301" y="208"/>
      <point x="245" y="175"/>
      <point x="248" y="107" type="curve"/>
      <point x="227" y="162"/>
      <point x="213" y="259"/>
      <point x="213" y="364" type="curve" smooth="yes"/>
      <point x="213" y="660"/>
      <point x="323" y="695"/>
      <point x="386" y="695" type="curve" smooth="yes"/>
      <point x="499" y="695"/>
      <point x="550" y="581"/>
      <point x="550" y="343" type="curve" smooth="yes"/>
      <point x="550" y="243"/>
      <point x="541" y="178"/>
    </contour>
  </outline>
</glyph>
<glyph name="R" format="2">
  <advance width="708"/>
  <unicode hex="0052"/>
  <anchor x="384" y="0" name="commaaccentbelow"/>
  <anchor x="369" y="0" name="dotbelow"/>
  <anchor x="347" y="813" name="top"/>
  <outline>
    <contour>
      <point x="36" y="0" type="line"/>
      <point x="366" y="0" type="line"/>
      <point x="366" y="43" type="line"/>
      <point x="279" y="46"/>
      <point x="280" y="65"/>
      <point x="280" y="131" type="curve" smooth="yes"/>
      <point x="280" y="344" type="line"/>
      <point x="291" y="344" type="line" smooth="yes"/>
      <point x="325" y="344"/>
      <point x="342" y="328"/>
      <point x="365" y="281" type="curve" smooth="yes"/>
      <point x="501" y="0" type="line"/>
      <point x="716" y="0" type="line"/>
      <point x="716" y="39" type="line"/>
      <point x="643" y="44"/>
      <point x="618" y="97"/>
      <point x="586" y="165" type="curve" smooth="yes"/>
      <point x="536" y="271"/>
      <point x="503" y="348"/>
      <point x="453" y="369" type="curve"/>
      <point x="502" y="369"/>
      <point x="552" y="377"/>
      <point x="596" y="415" type="curve" smooth="yes"/>
      <point x="646" y="458"/>
      <point x="651" y="508"/>
      <point x="651" y="537" type="curve" smooth="yes"/>
      <point x="651" y="600"/>
      <point x="628" y="663"/>
      <point x="524" y="698" type="curve" smooth="yes"/>
      <point x="477" y="714"/>
      <point x="422" y="721"/>
      <point x="336" y="721" type="curve" smooth="yes"/>
      <point x="36" y="721" type="line"/>
      <point x="36" y="678" type="line"/>
      <point x="122" y="675"/>
      <point x="125" y="665"/>
      <point x="125" y="599" type="curve" smooth="yes"/>
      <point x="125" y="131" type="line" smooth="yes"/>
      <point x="125" y="65"/>
      <point x="123" y="46"/>
      <point x="36" y="43" type="curve"/>
    </contour>
    <contour>
      <point x="280" y="389" type="line"/>
      <point x="280" y="587" type="line" smooth="yes"/>
      <point x="280" y="651"/>
      <point x="294" y="676"/>
      <point x="358" y="676" type="curve" smooth="yes"/>
      <point x="454" y="676"/>
      <point x="489" y="620"/>
      <point x="489" y="532" type="curve" smooth="yes"/>
      <point x="489" y="440"/>
      <point x="451" y="389"/>
      <point x="338" y="389" type="curve" smooth="yes"/>
    </contour>
  </outline>
</glyph>
<glyph name="S" format="2">
  <advance width="606"/>
  <unicode hex="0053"/>
  <anchor x="291" y="17" name="attachcedilla"/>
  <anchor x="292" y="0" name="commaaccentbelow"/>
  <anchor x="280" y="0" name="dotbelow"/>
  <anchor x="280" y="813" name="top"/>
  <outline>
    <contour>
      <point x="329" y="-18" type="curve" smooth="yes"/>
      <point x="466" y="-18"/>
      <point x="571" y="71"/>
      <point x="571" y="209" type="curve" smooth="yes"/>
      <point x="571" y="481"/>
      <point x="164" y="417"/>
      <point x="164" y="587" type="curve" smooth="yes"/>
      <point x="164" y="640"/>
      <point x="204" y="688"/>
      <point x="272" y="688" type="curve" smooth="yes"/>
      <point x="376" y="688"/>
      <point x="454" y="577"/>
      <point x="496" y="506" type="curve"/>
      <point x="541" y="521" type="line"/>
      <point x="490" y="725" type="line"/>
      <point x="466" y="731" type="line"/>
      <point x="450" y="720"/>
      <point x="427" y="706"/>
      <point x="411" y="706" type="curve" smooth="yes"/>
      <point x="387" y="706"/>
      <point x="343" y="739"/>
      <point x="272" y="739" type="curve" smooth="yes"/>
      <point x="154" y="739"/>
      <point x="62" y="648"/>
      <point x="62" y="522" type="curve" smooth="yes"/>
      <point x="62" y="262"/>
      <point x="458" y="323"/>
      <point x="458" y="146" type="curve" smooth="yes"/>
      <point x="458" y="86"/>
      <point x="413" y="34"/>
      <point x="330" y="34" type="curve" smooth="yes"/>
      <point x="218" y="34"/>
      <point x="135" y="129"/>
      <point x="80" y="226" type="curve"/>
      <point x="36" y="211" type="line"/>
      <point x="88" y="-10" type="line"/>
      <point x="110" y="-12" type="line"/>
      <point x="120" y="-5"/>
      <point x="151" y="19"/>
      <point x="172" y="19" type="curve" smooth="yes"/>
      <point x="198" y="19"/>
      <point x="240" y="-18"/>
    </contour>
  </outline>
</glyph>
<glyph name="T" format="2">
  <advance width="641"/>
  <unicode hex="0054"/>
  <anchor x="314" y="17" name="attachcedilla"/>
  <anchor x="326" y="0" name="commaaccentbelow"/>
  <anchor x="315" y="0" name="dotbelow"/>
  <anchor x="325" y="813" name="top"/>
  <outline>
    <contour>
      <point x="158" y="0" type="line"/>
      <point x="492" y="0" type="line"/>
      <point x="492" y="43" type="line"/>
      <point x="404" y="46"/>
      <point x="402" y="65"/>
      <point x="402" y="131" type="curve" smooth="yes"/>
      <point x="402" y="670" type="line"/>
      <point x="502" y="653"/>
      <point x="560" y="575"/>
      <point x="603" y="511" type="curve"/>
      <point x="649" y="523" type="line"/>
      <point x="601" y="721" type="line"/>
      <point x="56" y="721" type="line"/>
      <point x="3" y="521" type="line"/>
      <point x="45" y="503" type="line"/>
      <point x="89" y="566"/>
      <point x="148" y="653"/>
      <point x="248" y="670" type="curve"/>
      <point x="248" y="131" type="line" smooth="yes"/>
      <point x="248" y="65"/>
      <point x="245" y="46"/>
      <point x="158" y="43" type="curve"/>
    </contour>
  </outline>
</glyph>
<glyph name="U" format="2">
  <advance width="751"/>
  <unicode hex="0055"/>
  <anchor x="748" y="592" name="attachhorn"/>
  <anchor x="384" y="0" name="dotbelow"/>
  <anchor x="478" y="0" name="ogonek"/>
  <anchor x="396" y="813" name="top"/>
  <outline>
    <contour>
      <point x="383" y="-21" type="curve" smooth="yes"/>
      <point x="567" y="-21"/>
      <point x="637" y="71"/>
      <point x="637" y="251" type="curve" smooth="yes"/>
      <point x="637" y="515" type="line" smooth="yes"/>
      <point x="637" y="581"/>
      <point x="639" y="675"/>
      <point x="726" y="678" type="curve"/>
      <point x="726" y="721" type="line"/>
      <point x="496" y="721" type="line"/>
      <point x="496" y="678" type="line"/>
      <point x="584" y="675"/>
      <point x="586" y="581"/>
      <point x="586" y="515" type="curve" smooth="yes"/>
      <point x="586" y="246" type="line" smooth="yes"/>
      <point x="586" y="66"/>
      <point x="506" y="31"/>
      <point x="423" y="31" type="curve" smooth="yes"/>
      <point x="377" y="31"/>
      <point x="336" y="42"/>
      <point x="310" y="74" type="curve" smooth="yes"/>
      <point x="284" y="106"/>
      <point x="277" y="153"/>
      <point x="277" y="231" type="curve" smooth="yes"/>
      <point x="277" y="599" type="line" smooth="yes"/>
      <point x="277" y="665"/>
      <point x="280" y="675"/>
      <point x="366" y="678" type="curve"/>
      <point x="366" y="721" type="line"/>
      <point x="32" y="721" type="line"/>
      <point x="32" y="678" type="line"/>
      <point x="119" y="675"/>
      <point x="122" y="665"/>
      <point x="122" y="599" type="curve" smooth="yes"/>
      <point x="122" y="251" type="line" smooth="yes"/>
      <point x="122" y="169"/>
      <point x="128" y="104"/>
      <point x="172" y="54" type="curve" smooth="yes"/>
      <point x="211" y="9"/>
      <point x="278" y="-21"/>
    </contour>
  </outline>
</glyph>
<glyph name="V" format="2">
  <advance width="682"/>
  <unicode hex="0056"/>
  <anchor x="328" y="0" name="dotbelow"/>
  <anchor x="365" y="813" name="top"/>
  <outline>
    <contour>
      <point x="301" y="-12" type="line"/>
      <point x="374" y="-12" type="line"/>
      <point x="550" y="518" type="line" smooth="yes"/>
      <point x="572" y="584"/>
      <point x="598" y="676"/>
      <point x="682" y="678" type="curve"/>
      <point x="682" y="721" type="line"/>
      <point x="451" y="721" type="line"/>
      <point x="451" y="678" type="line"/>
      <point x="501" y="676"/>
      <point x="526" y="666"/>
      <point x="526" y="632" type="curve" smooth="yes"/>
      <point x="526" y="613"/>
      <point x="518" y="579"/>
      <point x="501" y="528" type="curve" smooth="yes"/>
      <point x="391" y="195" type="line"/>
      <point x="252" y="624" type="line" smooth="yes"/>
      <point x="251" y="627"/>
      <point x="248" y="641"/>
      <point x="248" y="648" type="curve" smooth="yes"/>
      <point x="248" y="666"/>
      <point x="266" y="678"/>
      <point x="317" y="678" type="curve"/>
      <point x="317" y="721" type="line"/>
      <point x="0" y="721" type="line"/>
      <point x="0" y="678" type="line"/>
      <point x="67" y="676"/>
      <point x="75" y="663"/>
      <point x="96" y="601" type="curve" smooth="yes"/>
    </contour>
  </outline>
</glyph>
<glyph name="W" format="2">
  <advance width="968"/>
  <unicode hex="0057"/>
  <anchor x="456" y="0" name="dotbelow"/>
  <anchor x="493" y="813" name="top"/>
  <outline>
    <contour>
      <point x="268" y="-12" type="line"/>
      <point x="328" y="-12" type="line"/>
      <point x="478" y="461" type="line"/>
      <point x="616" y="-12" type="line"/>
      <point x="675" y="-12" type="line"/>
      <point x="844" y="517" type="line" smooth="yes"/>
      <point x="865" y="583"/>
      <point x="883" y="663"/>
      <point x="968" y="678" type="curve"/>
      <point x="968" y="721" type="line"/>
      <point x="752" y="721" type="line"/>
      <point x="752" y="678" type="line"/>
      <point x="802" y="676"/>
      <point x="819" y="657"/>
      <point x="819" y="626" type="curve" smooth="yes"/>
      <point x="819" y="606"/>
      <point x="812" y="582"/>
      <point x="796" y="528" type="curve" smooth="yes"/>
      <point x="701" y="208" type="line"/>
      <point x="582" y="622" type="line" smooth="yes"/>
      <point x="570" y="663"/>
      <point x="576" y="643"/>
      <point x="576" y="651" type="curve" smooth="yes"/>
      <point x="576" y="663"/>
      <point x="589" y="678"/>
      <point x="639" y="678" type="curve"/>
      <point x="639" y="721" type="line"/>
      <point x="349" y="721" type="line"/>
      <point x="349" y="678" type="line"/>
      <point x="410" y="678"/>
      <point x="409" y="663"/>
      <point x="430" y="601" type="curve" smooth="yes"/>
      <point x="454" y="529" type="line"/>
      <point x="349" y="208" type="line"/>
      <point x="237" y="613" type="line" smooth="yes"/>
      <point x="234" y="624"/>
      <point x="230" y="642"/>
      <point x="230" y="650" type="curve" smooth="yes"/>
      <point x="230" y="663"/>
      <point x="241" y="678"/>
      <point x="292" y="678" type="curve"/>
      <point x="292" y="721" type="line"/>
      <point x="0" y="721" type="line"/>
      <point x="0" y="678" type="line"/>
      <point x="61" y="678"/>
      <point x="64" y="664"/>
      <point x="83" y="601" type="curve" smooth="yes"/>
    </contour>
  </outline>
</glyph>
<glyph name="X" format="2">
  <advance width="690"/>
  <unicode hex="0058"/>
  <anchor x="362" y="813" name="top"/>
  <outline>
    <contour>
      <point x="-1" y="0" type="line"/>
      <point x="253" y="0" type="line"/>
      <point x="253" y="43" type="line"/>
      <point x="203" y="45"/>
      <point x="182" y="60"/>
      <point x="182" y="85" type="curve" smooth="yes"/>
      <point x="182" y="96"/>
      <point x="186" y="115"/>
      <point x="208" y="146" type="curve" smooth="yes"/>
      <point x="312" y="293" type="line"/>
      <point x="434" y="101" type="line" smooth="yes"/>
      <point x="441" y="90"/>
      <point x="448" y="76"/>
      <point x="448" y="66" type="curve" smooth="yes"/>
      <point x="448" y="48"/>
      <point x="427" y="43"/>
      <point x="378" y="43" type="curve"/>
      <point x="378" y="0" type="line"/>
      <point x="692" y="0" type="line"/>
      <point x="692" y="43" type="line"/>
      <point x="642" y="43"/>
      <point x="634" y="61"/>
      <point x="597" y="120" type="curve" smooth="yes"/>
      <point x="406" y="424" type="line"/>
      <point x="518" y="579" type="line" smooth="yes"/>
      <point x="544" y="615"/>
      <point x="584" y="677"/>
      <point x="666" y="678" type="curve"/>
      <point x="666" y="721" type="line"/>
      <point x="425" y="721" type="line"/>
      <point x="425" y="678" type="line"/>
      <point x="475" y="676"/>
      <point x="490" y="660"/>
      <point x="490" y="638" type="curve" smooth="yes"/>
      <point x="490" y="624"/>
      <point x="484" y="613"/>
      <point x="467" y="589" type="curve" smooth="yes"/>
      <point x="378" y="464" type="line"/>
      <point x="285" y="615" type="line" smooth="yes"/>
      <point x="280" y="623"/>
      <point x="274" y="640"/>
      <point x="274" y="653" type="curve" smooth="yes"/>
      <point x="274" y="665"/>
      <point x="280" y="678"/>
      <point x="328" y="678" type="curve"/>
      <point x="328" y="721" type="line"/>
      <point x="11" y="721" type="line"/>
      <point x="11" y="678" type="line"/>
      <point x="78" y="676"/>
      <point x="81" y="658"/>
      <point x="119" y="599" type="curve" smooth="yes"/>
      <point x="286" y="335" type="line"/>
      <point x="146" y="142" type="line" smooth="yes"/>
      <point x="118" y="104"/>
      <point x="80" y="44"/>
      <point x="-1" y="43" type="curve"/>
    </contour>
  </outline>
</glyph>
<glyph name="Y" format="2">
  <advance width="642"/>
  <unicode hex="0059"/>
  <anchor x="312" y="0" name="dotbelow"/>
  <anchor x="342" y="791" name="top"/>
  <outline>
    <contour>
      <point x="154" y="0" type="line"/>
      <point x="496" y="0" type="line"/>
      <point x="496" y="43" type="line"/>
      <point x="409" y="46"/>
      <point x="402" y="65"/>
      <point x="402" y="131" type="curve" smooth="yes"/>
      <point x="402" y="350" type="line"/>
      <point x="556" y="608" type="line" smooth="yes"/>
      <point x="585" y="657"/>
      <point x="603" y="666"/>
      <point x="642" y="678" type="curve"/>
      <point x="642" y="721" type="line"/>
      <point x="434" y="721" type="line"/>
      <point x="434" y="678" type="line"/>
      <point x="481" y="676"/>
      <point x="498" y="664"/>
      <point x="498" y="635" type="curve" smooth="yes"/>
      <point x="498" y="609"/>
      <point x="485" y="590"/>
      <point x="451" y="528" type="curve" smooth="yes"/>
      <point x="375" y="391" type="line"/>
      <point x="255" y="618" type="line" smooth="yes"/>
      <point x="248" y="631"/>
      <point x="241" y="646"/>
      <point x="241" y="654" type="curve" smooth="yes"/>
      <point x="241" y="668"/>
      <point x="267" y="678"/>
      <point x="301" y="678" type="curve"/>
      <point x="301" y="721" type="line"/>
      <point x="0" y="721" type="line"/>
      <point x="0" y="678" type="line"/>
      <point x="48" y="675"/>
      <point x="54" y="664"/>
      <point x="90" y="601" type="curve" smooth="yes"/>
      <point x="248" y="325" type="line"/>
      <point x="248" y="131" type="line" smooth="yes"/>
      <point x="248" y="65"/>
      <point x="241" y="46"/>
      <point x="154" y="43" type="curve"/>
    </contour>
  </outline>
</glyph>
<glyph name="Z" format="2">
  <advance width="624"/>
  <unicode hex="005A"/>
  <anchor x="289" y="0" name="dotbelow"/>
  <anchor x="339" y="813" name="top"/>
  <outline>
    <contour>
      <point x="28" y="0" type="line"/>
      <point x="541" y="0" type="line"/>
      <point x="603" y="199" type="line"/>
      <point x="565" y="222" type="line"/>
      <point x="423" y="52"/>
      <point x="347" y="52"/>
      <point x="211" y="52" type="curve"/>
      <point x="594" y="692" type="line"/>
      <point x="585" y="721" type="line"/>
      <point x="99" y="721" type="line"/>
      <point x="42" y="529" type="line"/>
      <point x="78" y="509" type="line"/>
      <point x="204" y="670"/>
      <point x="267" y="669"/>
      <point x="403" y="669" type="curve"/>
      <point x="21" y="30" type="line"/>
    </contour>
  </outline>
</glyph>
<glyph name="bracketleft" format="2">
  <advance width="366"/>
  <unicode hex="005B"/>
  <outline>
    <contour>
      <point x="94" y="-184" type="line"/>
      <point x="316" y="-184" type="line"/>
      <point x="316" y="-135" type="line"/>
      <point x="212" y="-135" type="line"/>
      <point x="212" y="672" type="line"/>
      <point x="316" y="672" type="line"/>
      <point x="316" y="721" type="line"/>
      <point x="94" y="721" type="line"/>
    </contour>
  </outline>
</glyph>
<glyph name="asciicircum" format="2">
  <advance width="601"/>
  <unicode hex="005E"/>
  <outline>
    <contour>
      <point x="72" y="351" type="line"/>
      <point x="146" y="351" type="line"/>
      <point x="301" y="666" type="line"/>
      <point x="455" y="351" type="line"/>
      <point x="529" y="351" type="line"/>
      <point x="333" y="746" type="line"/>
      <point x="268" y="746" type="line"/>
    </contour>
  </outline>
</glyph>
<glyph name="underscore" format="2">
  <advance width="541"/>
  <unicode hex="005F"/>
  <outline>
    <contour>
      <point x="12" y="-173" type="line"/>
      <point x="529" y="-173" type="line"/>
      <point x="529" y="-98" type="line"/>
      <point x="12" y="-98" type="line"/>
    </contour>
  </outline>
</glyph>
<glyph name="a" format="2">
  <advance width="550"/>
  <unicode hex="0061"/>
  <anchor x="263" y="0" name="dotbelow"/>
  <anchor x="390" y="0" name="ogonek"/>
  <anchor x="274" y="558" name="top"/>
  <outline>
    <contour>
      <point x="182" y="-14" type="curve" smooth="yes"/>
      <point x="245" y="-14"/>
      <point x="301" y="17"/>
      <point x="341" y="51" type="curve"/>
      <point x="356" y="29"/>
      <point x="385" y="-14"/>
      <point x="438" y="-14" type="curve" smooth="yes"/>
      <point x="488" y="-14"/>
      <point x="523" y="23"/>
      <point x="550" y="51" type="curve"/>
      <point x="522" y="81" type="line"/>
      <point x="512" y="76"/>
      <point x="503" y="69"/>
      <point x="492" y="69" type="curve" smooth="yes"/>
      <point x="469" y="69"/>
      <point x="465" y="94"/>
      <point x="465" y="163" type="curve" smooth="yes"/>
      <point x="465" y="359" type="line" smooth="yes"/>
      <point x="465" y="445"/>
      <point x="402" y="490"/>
      <point x="282" y="490" type="curve" smooth="yes"/>
      <point x="168" y="490"/>
      <point x="67" y="450"/>
      <point x="67" y="380" type="curve" smooth="yes"/>
      <point x="67" y="343"/>
      <point x="96" y="315"/>
      <point x="136" y="315" type="curve" smooth="yes"/>
      <point x="222" y="315"/>
      <point x="193" y="446"/>
      <point x="282" y="446" type="curve" smooth="yes"/>
      <point x="319" y="446"/>
      <point x="335" y="423"/>
      <point x="335" y="362" type="curve" smooth="yes"/>
      <point x="335" y="310" type="line"/>
      <point x="153" y="281"/>
      <point x="36" y="218"/>
      <point x="36" y="116" type="curve" smooth="yes"/>
      <point x="36" y="42"/>
      <point x="97" y="-14"/>
    </contour>
    <contour>
      <point x="243" y="56" type="curve" smooth="yes"/>
      <point x="200" y="56"/>
      <point x="181" y="90"/>
      <point x="181" y="136" type="curve" smooth="yes"/>
      <point x="181" y="192"/>
      <point x="210" y="235"/>
      <point x="335" y="266" type="curve"/>
      <point x="335" y="104" type="line"/>
      <point x="320" y="90"/>
      <point x="286" y="56"/>
    </contour>
  </outline>
</glyph>
<glyph name="b" format="2">
  <advance width="578"/>
  <unicode hex="0062"/>
  <anchor x="268" y="0" name="dotbelow"/>
  <anchor x="301" y="813" name="top"/>
  <outline>
    <contour>
      <point x="109" y="-14" type="line"/>
      <point x="191" y="50" type="line"/>
      <point x="239" y="11"/>
      <point x="282" y="-14"/>
      <point x="337" y="-14" type="curve" smooth="yes"/>
      <point x="449" y="-14"/>
      <point x="542" y="91"/>
      <point x="542" y="253" type="curve" smooth="yes"/>
      <point x="542" y="462"/>
      <point x="388" y="490"/>
      <point x="335" y="490" type="curve" smooth="yes"/>
      <point x="290" y="490"/>
      <point x="248" y="470"/>
      <point x="216" y="439" type="curve"/>
      <point x="216" y="735" type="line"/>
      <point x="18" y="675" type="line"/>
      <point x="18" y="636" type="line"/>
      <point x="77" y="636"/>
      <point x="86" y="615"/>
      <point x="86" y="554" type="curve" smooth="yes"/>
      <point x="86" y="-2" type="line"/>
    </contour>
    <contour>
      <point x="304" y="50" type="curve" smooth="yes"/>
      <point x="265" y="50"/>
      <point x="236" y="73"/>
      <point x="216" y="91" type="curve"/>
      <point x="216" y="385" type="line"/>
      <point x="240" y="411"/>
      <point x="267" y="427"/>
      <point x="305" y="427" type="curve" smooth="yes"/>
      <point x="372" y="427"/>
      <point x="397" y="377"/>
      <point x="397" y="248" type="curve" smooth="yes"/>
      <point x="397" y="132"/>
      <point x="377" y="50"/>
    </contour>
  </outline>
</glyph>
<glyph name="c" format="2">
  <advance width="503"/>
  <unicode hex="0063"/>
  <anchor x="252" y="17" name="attachcedilla"/>
  <anchor x="274" y="558" name="top"/>
  <outline>
    <contour>
      <point x="264" y="-14" type="curve" smooth="yes"/>
      <point x="379" y="-14"/>
      <point x="451" y="58"/>
      <point x="484" y="125" type="curve"/>
      <point x="448" y="150" type="line"/>
      <point x="420" y="105"/>
      <point x="373" y="63"/>
      <point x="313" y="63" type="curve" smooth="yes"/>
      <point x="218" y="63"/>
      <point x="181" y="170"/>
      <point x="181" y="275" type="curve" smooth="yes"/>
      <point x="181" y="388"/>
      <point x="224" y="445"/>
      <point x="276" y="445" type="curve" smooth="yes"/>
      <point x="356" y="445"/>
      <point x="301" y="308"/>
      <point x="397" y="308" type="curve" smooth="yes"/>
      <point x="440" y="308"/>
      <point x="469" y="335"/>
      <point x="469" y="375" type="curve" smooth="yes"/>
      <point x="469" y="443"/>
      <point x="383" y="490"/>
      <point x="296" y="490" type="curve" smooth="yes"/>
      <point x="154" y="490"/>
      <point x="36" y="365"/>
      <point x="36" y="215" type="curve" smooth="yes"/>
      <point x="36" y="80"/>
      <point x="132" y="-14"/>
    </contour>
  </outline>
</glyph>
<glyph name="d" format="2">
  <advance width="566"/>
  <unicode hex="0064"/>
  <anchor x="596" y="735" name="caroncombalt"/>
  <anchor x="264" y="0" name="commaaccentbelow"/>
  <anchor x="249" y="0" name="dotbelow"/>
  <anchor x="259" y="813" name="top"/>
  <outline>
    <contour>
      <point x="225" y="-14" type="curve" smooth="yes"/>
      <point x="282" y="-14"/>
      <point x="326" y="13"/>
      <point x="352" y="53" type="curve"/>
      <point x="352" y="-10" type="line"/>
      <point x="415" y="0"/>
      <point x="474" y="0"/>
      <point x="544" y="1" type="curve"/>
      <point x="544" y="41" type="line"/>
      <point x="482" y="41"/>
      <point x="482" y="54"/>
      <point x="482" y="130" type="curve" smooth="yes"/>
      <point x="482" y="735" type="line"/>
      <point x="274" y="676" type="line"/>
      <point x="274" y="638" type="line"/>
      <point x="341" y="634"/>
      <point x="352" y="622"/>
      <point x="352" y="560" type="curve" smooth="yes"/>
      <point x="352" y="434" type="line"/>
      <point x="324" y="469"/>
      <point x="285" y="490"/>
      <point x="235" y="490" type="curve" smooth="yes"/>
      <point x="114" y="490"/>
      <point x="36" y="369"/>
      <point x="36" y="229" type="curve" smooth="yes"/>
      <point x="36" y="90"/>
      <point x="112" y="-14"/>
    </contour>
    <contour>
      <point x="272" y="52" type="curve" smooth="yes"/>
      <point x="195" y="52"/>
      <point x="181" y="154"/>
      <point x="181" y="233" type="curve" smooth="yes"/>
      <point x="181" y="335"/>
      <point x="204" y="426"/>
      <point x="274" y="426" type="curve" smooth="yes"/>
      <point x="309" y="426"/>
      <point x="333" y="404"/>
      <point x="352" y="381" type="curve"/>
      <point x="352" y="103" type="line"/>
      <point x="332" y="72"/>
      <point x="306" y="52"/>
    </contour>
  </outline>
</glyph>
<glyph name="e" format="2">
  <advance width="548"/>
  <unicode hex="0065"/>
  <anchor x="261" y="17" name="attachcedilla"/>
  <anchor x="278" y="0" name="dotbelow"/>
  <anchor x="362" y="0" name="ogonek"/>
  <anchor x="288" y="558" name="top"/>
  <outline>
    <contour>
      <point x="289" y="-14" type="curve" smooth="yes"/>
      <point x="423" y="-14"/>
      <point x="489" y="64"/>
      <point x="521" y="109" type="curve"/>
      <point x="486" y="135" type="line"/>
      <point x="445" y="83"/>
      <point x="397" y="58"/>
      <point x="343" y="58" type="curve" smooth="yes"/>
      <point x="235" y="58"/>
      <point x="182" y="160"/>
      <point x="182" y="248" type="curve"/>
      <point x="512" y="248" type="line"/>
      <point x="514" y="268" type="line"/>
      <point x="514" y="404"/>
      <point x="402" y="490"/>
      <point x="288" y="490" type="curve" smooth="yes"/>
      <point x="167" y="490"/>
      <point x="36" y="393"/>
      <point x="36" y="232" type="curve" smooth="yes"/>
      <point x="36" y="94"/>
      <point x="132" y="-14"/>
    </contour>
    <contour>
      <point x="179" y="301" type="line"/>
      <point x="179" y="324"/>
      <point x="192" y="450"/>
      <point x="283" y="450" type="curve" smooth="yes"/>
      <point x="301" y="450"/>
      <point x="325" y="445"/>
      <point x="346" y="424" type="curve" smooth="yes"/>
      <point x="364" y="406"/>
      <point x="378" y="378"/>
      <point x="378" y="301" type="curve"/>
    </contour>
  </outline>
</glyph>
<glyph name="f" format="2">
  <advance width="365"/>
  <unicode hex="0066"/>
  <anchor x="218" y="813" name="top"/>
  <outline>
    <contour>
      <point x="27" y="0" type="line"/>
      <point x="330" y="0" type="line"/>
      <point x="330" y="40" type="line"/>
      <point x="248" y="40"/>
      <point x="236" y="57"/>
      <point x="236" y="103" type="curve" smooth="yes"/>
      <point x="236" y="423" type="line"/>
      <point x="345" y="423" type="line"/>
      <point x="345" y="476" type="line"/>
      <point x="236" y="476" type="line"/>
      <point x="236" y="619" type="line" smooth="yes"/>
      <point x="236" y="650"/>
      <point x="241" y="671"/>
      <point x="253" y="671" type="curve" smooth="yes"/>
      <point x="276" y="671"/>
      <point x="281" y="600"/>
      <point x="341" y="600" type="curve" smooth="yes"/>
      <point x="378" y="600"/>
      <point x="402" y="627"/>
      <point x="402" y="661" type="curve" smooth="yes"/>
      <point x="402" y="707"/>
      <point x="356" y="735"/>
      <point x="299" y="735" type="curve" smooth="yes"/>
      <point x="201" y="735"/>
      <point x="106" y="650"/>
      <point x="106" y="476" type="curve"/>
      <point x="25" y="476" type="line"/>
      <point x="25" y="423" type="line"/>
      <point x="106" y="423" type="line"/>
      <point x="106" y="103" type="line" smooth="yes"/>
      <point x="106" y="57"/>
      <point x="90" y="40"/>
      <point x="27" y="40" type="curve"/>
    </contour>
  </outline>
</glyph>
<glyph name="g" format="2">
  <advance width="535"/>
  <unicode hex="0067"/>
  <anchor x="245" y="558" name="top"/>
  <outline>
    <contour>
      <point x="240" y="-182" type="curve" smooth="yes"/>
      <point x="390" y="-182"/>
      <point x="520" y="-147"/>
      <point x="520" y="-41" type="curve" smooth="yes"/>
      <point x="520" y="60"/>
      <point x="403" y="83"/>
      <point x="330" y="93" type="curve" smooth="yes"/>
      <point x="287" y="99"/>
      <point x="277" y="98"/>
      <point x="184" y="114" type="curve" smooth="yes"/>
      <point x="165" y="117"/>
      <point x="158" y="126"/>
      <point x="158" y="133" type="curve" smooth="yes"/>
      <point x="158" y="146"/>
      <point x="172" y="157"/>
      <point x="186" y="164" type="curve"/>
      <point x="201" y="159"/>
      <point x="229" y="154"/>
      <point x="262" y="154" type="curve" smooth="yes"/>
      <point x="388" y="154"/>
      <point x="479" y="226"/>
      <point x="479" y="325" type="curve" smooth="yes"/>
      <point x="479" y="392"/>
      <point x="437" y="435"/>
      <point x="386" y="463" type="curve"/>
      <point x="394" y="471"/>
      <point x="400" y="474"/>
      <point x="410" y="474" type="curve" smooth="yes"/>
      <point x="435" y="474"/>
      <point x="453" y="457"/>
      <point x="482" y="457" type="curve" smooth="yes"/>
      <point x="514" y="457"/>
      <point x="530" y="478"/>
      <point x="530" y="508" type="curve" smooth="yes"/>
      <point x="530" y="543"/>
      <point x="508" y="564"/>
      <point x="474" y="564" type="curve" smooth="yes"/>
      <point x="424" y="564"/>
      <point x="379" y="517"/>
      <point x="352" y="475" type="curve"/>
      <point x="337" y="480"/>
      <point x="307" y="490"/>
      <point x="261" y="490" type="curve" smooth="yes"/>
      <point x="143" y="490"/>
      <point x="43" y="425"/>
      <point x="43" y="318" type="curve" smooth="yes"/>
      <point x="43" y="241"/>
      <point x="95" y="200"/>
      <point x="142" y="177" type="curve"/>
      <point x="87" y="163"/>
      <point x="44" y="136"/>
      <point x="44" y="84" type="curve" smooth="yes"/>
      <point x="44" y="40"/>
      <point x="76" y="17"/>
      <point x="129" y="4" type="curve"/>
      <point x="65" y="-7"/>
      <point x="13" y="-35"/>
      <point x="13" y="-84" type="curve" smooth="yes"/>
      <point x="13" y="-127"/>
      <point x="53" y="-182"/>
    </contour>
    <contour>
      <point x="256" y="-142" type="curve" smooth="yes"/>
      <point x="161" y="-142"/>
      <point x="118" y="-121"/>
      <point x="118" y="-76" type="curve" smooth="yes"/>
      <point x="118" y="-41"/>
      <point x="143" y="-21"/>
      <point x="170" y="-5" type="curve"/>
      <point x="197" y="-13"/>
      <point x="261" y="-21"/>
      <point x="316" y="-32" type="curve" smooth="yes"/>
      <point x="357" y="-40"/>
      <point x="405" y="-41"/>
      <point x="405" y="-80" type="curve" smooth="yes"/>
      <point x="405" y="-127"/>
      <point x="336" y="-142"/>
    </contour>
    <contour>
      <point x="263" y="191" type="curve" smooth="yes"/>
      <point x="202" y="191"/>
      <point x="176" y="240"/>
      <point x="176" y="321" type="curve" smooth="yes"/>
      <point x="176" y="420"/>
      <point x="214" y="451"/>
      <point x="261" y="451" type="curve" smooth="yes"/>
      <point x="298" y="451"/>
      <point x="346" y="431"/>
      <point x="346" y="317" type="curve" smooth="yes"/>
      <point x="346" y="244"/>
      <point x="326" y="191"/>
    </contour>
  </outline>
</glyph>
<glyph name="h" format="2">
  <advance width="626"/>
  <unicode hex="0068"/>
  <anchor x="138" y="17" name="attachcedilla"/>
  <anchor x="309" y="0" name="dotbelow"/>
  <anchor x="315" y="813" name="top"/>
  <outline>
    <contour>
      <point x="35" y="0" type="line"/>
      <point x="294" y="0" type="line"/>
      <point x="294" y="40" type="line"/>
      <point x="237" y="40"/>
      <point x="232" y="57"/>
      <point x="232" y="103" type="curve" smooth="yes"/>
      <point x="232" y="349" type="line"/>
      <point x="266" y="379"/>
      <point x="299" y="399"/>
      <point x="339" y="399" type="curve" smooth="yes"/>
      <point x="383" y="399"/>
      <point x="412" y="375"/>
      <point x="412" y="307" type="curve" smooth="yes"/>
      <point x="412" y="103" type="line" smooth="yes"/>
      <point x="412" y="57"/>
      <point x="413" y="40"/>
      <point x="350" y="40" type="curve"/>
      <point x="350" y="0" type="line"/>
      <point x="603" y="0" type="line"/>
      <point x="603" y="40" type="line"/>
      <point x="546" y="40"/>
      <point x="542" y="57"/>
      <point x="542" y="103" type="curve" smooth="yes"/>
      <point x="542" y="317" type="line" smooth="yes"/>
      <point x="542" y="432"/>
      <point x="496" y="490"/>
      <point x="403" y="490" type="curve" smooth="yes"/>
      <point x="324" y="490"/>
      <point x="266" y="450"/>
      <point x="232" y="403" type="curve"/>
      <point x="232" y="735" type="line"/>
      <point x="30" y="678" type="line"/>
      <point x="30" y="640" type="line"/>
      <point x="89" y="636"/>
      <point x="103" y="622"/>
      <point x="103" y="560" type="curve" smooth="yes"/>
      <point x="103" y="103" type="line" smooth="yes"/>
      <point x="103" y="57"/>
      <point x="97" y="40"/>
      <point x="35" y="40" type="curve"/>
    </contour>
  </outline>
</glyph>
<glyph name="k" format="2">
  <advance width="604"/>
  <unicode hex="006B"/>
  <anchor x="298" y="0" name="commaaccentbelow"/>
  <anchor x="294" y="0" name="dotbelow"/>
  <anchor x="289" y="813" name="top"/>
  <outline>
    <contour>
      <point x="35" y="0" type="line"/>
      <point x="294" y="0" type="line"/>
      <point x="294" y="40" type="line"/>
      <point x="237" y="40"/>
      <point x="232" y="57"/>
      <point x="232" y="103" type="curve" smooth="yes"/>
      <point x="232" y="181" type="line"/>
      <point x="283" y="227" type="line"/>
      <point x="368" y="102" type="line" smooth="yes"/>
      <point x="376" y="90"/>
      <point x="388" y="69"/>
      <point x="388" y="59" type="curve" smooth="yes"/>
      <point x="388" y="50"/>
      <point x="378" y="41"/>
      <point x="347" y="40" type="curve"/>
      <point x="347" y="0" type="line"/>
      <point x="611" y="0" type="line"/>
      <point x="611" y="40" type="line"/>
      <point x="560" y="43"/>
      <point x="544" y="69"/>
      <point x="526" y="95" type="curve" smooth="yes"/>
      <point x="372" y="315" type="line"/>
      <point x="411" y="351" type="line" smooth="yes"/>
      <point x="458" y="394"/>
      <point x="497" y="425"/>
      <point x="576" y="436" type="curve"/>
      <point x="576" y="476" type="line"/>
      <point x="324" y="476" type="line"/>
      <point x="324" y="436" type="line"/>
      <point x="361" y="434"/>
      <point x="383" y="423"/>
      <point x="383" y="407" type="curve" smooth="yes"/>
      <point x="383" y="397"/>
      <point x="373" y="383"/>
      <point x="361" y="371" type="curve" smooth="yes"/>
      <point x="232" y="241" type="line"/>
      <point x="232" y="735" type="line"/>
      <point x="30" y="674" type="line"/>
      <point x="30" y="636" type="line"/>
      <point x="89" y="631"/>
      <point x="103" y="622"/>
      <point x="103" y="560" type="curve" smooth="yes"/>
      <point x="103" y="103" type="line" smooth="yes"/>
      <point x="103" y="57"/>
      <point x="97" y="40"/>
      <point x="35" y="40" type="curve"/>
    </contour>
  </outline>
</glyph>
<glyph name="l" format="2">
  <advance width="317"/>
  <unicode hex="006C"/>
  <anchor x="346" y="735" name="caroncombalt"/>
  <anchor x="163" y="0" name="commaaccentbelow"/>
  <anchor x="151" y="0" name="dotbelow"/>
  <anchor x="317" y="293" name="ldot"/>
  <anchor x="157" y="813" name="top"/>
  <outline>
    <contour>
      <point x="35" y="0" type="line"/>
      <point x="294" y="0" type="line"/>
      <point x="294" y="40" type="line"/>
      <point x="237" y="40"/>
      <point x="232" y="57"/>
      <point x="232" y="103" type="curve" smooth="yes"/>
      <point x="232" y="735" type="line"/>
      <point x="30" y="674" type="line"/>
      <point x="30" y="636" type="line"/>
      <point x="89" y="631"/>
      <point x="103" y="622"/>
      <point x="103" y="560" type="curve" smooth="yes"/>
      <point x="103" y="103" type="line" smooth="yes"/>
      <point x="103" y="57"/>
      <point x="97" y="40"/>
      <point x="35" y="40" type="curve"/>
    </contour>
  </outline>
</glyph>
<glyph name="m" format="2">
  <advance width="914"/>
  <unicode hex="006D"/>
  <anchor x="465" y="0" name="dotbelow"/>
  <anchor x="459" y="558" name="top"/>
  <outline>
    <contour>
      <point x="38" y="0" type="line"/>
      <point x="297" y="0" type="line"/>
      <point x="297" y="40" type="line"/>
      <point x="240" y="40"/>
      <point x="236" y="57"/>
      <point x="236" y="103" type="curve" smooth="yes"/>
      <point x="236" y="352" type="line"/>
      <point x="269" y="374"/>
      <point x="301" y="400"/>
      <point x="338" y="400" type="curve" smooth="yes"/>
      <point x="375" y="400"/>
      <point x="402" y="375"/>
      <point x="402" y="307" type="curve" smooth="yes"/>
      <point x="402" y="103" type="line" smooth="yes"/>
      <point x="402" y="57"/>
      <point x="403" y="40"/>
      <point x="341" y="40" type="curve"/>
      <point x="341" y="0" type="line"/>
      <point x="594" y="0" type="line"/>
      <point x="594" y="40" type="line"/>
      <point x="536" y="40"/>
      <point x="532" y="57"/>
      <point x="532" y="103" type="curve" smooth="yes"/>
      <point x="532" y="361" type="line"/>
      <point x="559" y="382"/>
      <point x="591" y="400"/>
      <point x="625" y="400" type="curve" smooth="yes"/>
      <point x="666" y="400"/>
      <point x="699" y="375"/>
      <point x="699" y="310" type="curve" smooth="yes"/>
      <point x="699" y="103" type="line" smooth="yes"/>
      <point x="699" y="57"/>
      <point x="701" y="40"/>
      <point x="638" y="40" type="curve"/>
      <point x="638" y="0" type="line"/>
      <point x="891" y="0" type="line"/>
      <point x="891" y="40" type="line"/>
      <point x="834" y="40"/>
      <point x="829" y="57"/>
      <point x="829" y="103" type="curve" smooth="yes"/>
      <point x="829" y="319" type="line" smooth="yes"/>
      <point x="829" y="438"/>
      <point x="777" y="483"/>
      <point x="695" y="483" type="curve" smooth="yes"/>
      <point x="617" y="483"/>
      <point x="563" y="442"/>
      <point x="521" y="402" type="curve"/>
      <point x="493" y="458"/>
      <point x="451" y="483"/>
      <point x="397" y="483" type="curve" smooth="yes"/>
      <point x="334" y="483"/>
      <point x="281" y="448"/>
      <point x="236" y="406" type="curve"/>
      <point x="236" y="490" type="line"/>
      <point x="34" y="434" type="line"/>
      <point x="34" y="395" type="line"/>
      <point x="92" y="390"/>
      <point x="106" y="376"/>
      <point x="106" y="315" type="curve" smooth="yes"/>
      <point x="106" y="103" type="line" smooth="yes"/>
      <point x="106" y="57"/>
      <point x="101" y="40"/>
      <point x="38" y="40" type="curve"/>
    </contour>
  </outline>
</glyph>
<glyph name="n" format="2">
  <advance width="628"/>
  <unicode hex="006E"/>
  <anchor x="308" y="0" name="commaaccentbelow"/>
  <anchor x="304" y="0" name="dotbelow"/>
  <anchor x="328" y="558" name="top"/>
  <outline>
    <contour>
      <point x="38" y="0" type="line"/>
      <point x="297" y="0" type="line"/>
      <point x="297" y="40" type="line"/>
      <point x="240" y="40"/>
      <point x="236" y="57"/>
      <point x="236" y="103" type="curve" smooth="yes"/>
      <point x="236" y="348" type="line"/>
      <point x="265" y="380"/>
      <point x="302" y="399"/>
      <point x="340" y="399" type="curve" smooth="yes"/>
      <point x="381" y="399"/>
      <point x="415" y="377"/>
      <point x="415" y="307" type="curve" smooth="yes"/>
      <point x="415" y="103" type="line" smooth="yes"/>
      <point x="415" y="57"/>
      <point x="416" y="40"/>
      <point x="354" y="40" type="curve"/>
      <point x="354" y="0" type="line"/>
      <point x="606" y="0" type="line"/>
      <point x="606" y="40" type="line"/>
      <point x="549" y="40"/>
      <point x="545" y="57"/>
      <point x="545" y="103" type="curve" smooth="yes"/>
      <point x="545" y="324" type="line" smooth="yes"/>
      <point x="545" y="442"/>
      <point x="483" y="490"/>
      <point x="409" y="490" type="curve" smooth="yes"/>
      <point x="344" y="490"/>
      <point x="282" y="454"/>
      <point x="236" y="400" type="curve"/>
      <point x="236" y="490" type="line"/>
      <point x="34" y="434" type="line"/>
      <point x="34" y="395" type="line"/>
      <point x="92" y="390"/>
      <point x="106" y="376"/>
      <point x="106" y="315" type="curve" smooth="yes"/>
      <point x="106" y="103" type="line" smooth="yes"/>
      <point x="106" y="57"/>
      <point x="101" y="40"/>
      <point x="38" y="40" type="curve"/>
    </contour>
  </outline>
</glyph>
<glyph name="o" format="2">
  <advance width="569"/>
  <unicode hex="006F"/>
  <anchor x="491" y="368" name="attachhorn"/>
  <anchor x="270" y="0" name="dotbelow"/>
  <anchor x="330" y="0" name="ogonek"/>
  <anchor x="283" y="558" name="top"/>
  <outline>
    <contour>
      <point x="288" y="-14" type="curve" smooth="yes"/>
      <point x="429" y="-14"/>
      <point x="532" y="102"/>
      <point x="532" y="238" type="curve" smooth="yes"/>
      <point x="532" y="382"/>
      <point x="423" y="490"/>
      <point x="288" y="490" type="curve" smooth="yes"/>
      <point x="146" y="490"/>
      <point x="36" y="381"/>
      <point x="36" y="238" type="curve" smooth="yes"/>
      <point x="36" y="104"/>
      <point x="136" y="-14"/>
    </contour>
    <contour>
      <point x="287" y="35" type="curve" smooth="yes"/>
      <point x="216" y="35"/>
      <point x="187" y="96"/>
      <point x="187" y="235" type="curve" smooth="yes"/>
      <point x="187" y="421"/>
      <point x="239" y="441"/>
      <point x="284" y="441" type="curve" smooth="yes"/>
      <point x="346" y="441"/>
      <point x="381" y="403"/>
      <point x="381" y="239" type="curve" smooth="yes"/>
      <point x="381" y="80"/>
      <point x="348" y="35"/>
    </contour>
  </outline>
</glyph>
<glyph name="p" format="2">
  <advance width="588"/>
  <unicode hex="0070"/>
  <anchor x="294" y="558" name="top"/>
  <outline>
    <contour>
      <point x="38" y="-184" type="line"/>
      <point x="304" y="-184" type="line"/>
      <point x="304" y="-144" type="line"/>
      <point x="240" y="-144"/>
      <point x="236" y="-126"/>
      <point x="236" y="-81" type="curve" smooth="yes"/>
      <point x="236" y="38" type="line"/>
      <point x="263" y="8"/>
      <point x="304" y="-14"/>
      <point x="352" y="-14" type="curve" smooth="yes"/>
      <point x="456" y="-14"/>
      <point x="552" y="92"/>
      <point x="552" y="244" type="curve" smooth="yes"/>
      <point x="552" y="375"/>
      <point x="481" y="483"/>
      <point x="360" y="483" type="curve" smooth="yes"/>
      <point x="303" y="483"/>
      <point x="268" y="459"/>
      <point x="236" y="419" type="curve"/>
      <point x="236" y="490" type="line"/>
      <point x="34" y="434" type="line"/>
      <point x="34" y="396" type="line"/>
      <point x="92" y="391"/>
      <point x="106" y="382"/>
      <point x="106" y="320" type="curve" smooth="yes"/>
      <point x="106" y="-81" type="line" smooth="yes"/>
      <point x="106" y="-126"/>
      <point x="101" y="-144"/>
      <point x="38" y="-144" type="curve"/>
    </contour>
    <contour>
      <point x="314" y="50" type="curve" smooth="yes"/>
      <point x="280" y="50"/>
      <point x="252" y="72"/>
      <point x="236" y="84" type="curve"/>
      <point x="236" y="365" type="line"/>
      <point x="254" y="395"/>
      <point x="281" y="418"/>
      <point x="319" y="418" type="curve" smooth="yes"/>
      <point x="366" y="418"/>
      <point x="408" y="384"/>
      <point x="408" y="246" type="curve" smooth="yes"/>
      <point x="408" y="151"/>
      <point x="388" y="50"/>
    </contour>
  </outline>
</glyph>
<glyph name="q" format="2">
  <advance width="566"/>
  <unicode hex="0071"/>
  <anchor x="292" y="558" name="top"/>
  <outline>
    <contour>
      <point x="289" y="-184" type="line"/>
      <point x="548" y="-184" type="line"/>
      <point x="548" y="-144" type="line"/>
      <point x="491" y="-144"/>
      <point x="486" y="-126"/>
      <point x="486" y="-81" type="curve" smooth="yes"/>
      <point x="486" y="486" type="line"/>
      <point x="469" y="494" type="line"/>
      <point x="374" y="431" type="line"/>
      <point x="335" y="467"/>
      <point x="292" y="490"/>
      <point x="242" y="490" type="curve" smooth="yes"/>
      <point x="127" y="490"/>
      <point x="36" y="370"/>
      <point x="36" y="226" type="curve" smooth="yes"/>
      <point x="36" y="88"/>
      <point x="120" y="-14"/>
      <point x="230" y="-14" type="curve" smooth="yes"/>
      <point x="278" y="-14"/>
      <point x="318" y="6"/>
      <point x="357" y="44" type="curve"/>
      <point x="357" y="-81" type="line" smooth="yes"/>
      <point x="357" y="-126"/>
      <point x="351" y="-144"/>
      <point x="289" y="-144" type="curve"/>
    </contour>
    <contour>
      <point x="272" y="52" type="curve" smooth="yes"/>
      <point x="192" y="52"/>
      <point x="181" y="153"/>
      <point x="181" y="225" type="curve" smooth="yes"/>
      <point x="181" y="334"/>
      <point x="206" y="426"/>
      <point x="276" y="426" type="curve" smooth="yes"/>
      <point x="297" y="426"/>
      <point x="317" y="418"/>
      <point x="357" y="389" type="curve"/>
      <point x="357" y="95" type="line"/>
      <point x="335" y="70"/>
      <point x="306" y="52"/>
    </contour>
  </outline>
</glyph>
<glyph name="r" format="2">
  <advance width="451"/>
  <unicode hex="0072"/>
  <anchor x="166" y="0" name="commaaccentbelow"/>
  <anchor x="161" y="0" name="dotbelow"/>
  <anchor x="238" y="558" name="top"/>
  <outline>
    <contour>
      <point x="38" y="0" type="line"/>
      <point x="311" y="0" type="line"/>
      <point x="311" y="40" type="line"/>
      <point x="240" y="40"/>
      <point x="236" y="57"/>
      <point x="236" y="103" type="curve" smooth="yes"/>
      <point x="236" y="314" type="line"/>
      <point x="254" y="343"/>
      <point x="278" y="371"/>
      <point x="300" y="371" type="curve" smooth="yes"/>
      <point x="323" y="371"/>
      <point x="348" y="341"/>
      <point x="382" y="341" type="curve" smooth="yes"/>
      <point x="415" y="341"/>
      <point x="451" y="369"/>
      <point x="451" y="415" type="curve" smooth="yes"/>
      <point x="451" y="459"/>
      <point x="418" y="490"/>
      <point x="375" y="490" type="curve" smooth="yes"/>
      <point x="311" y="490"/>
      <point x="260" y="419"/>
      <point x="236" y="373" type="curve"/>
      <point x="236" y="490" type="line"/>
      <point x="34" y="434" type="line"/>
      <point x="34" y="396" type="line"/>
      <point x="92" y="391"/>
      <point x="106" y="382"/>
      <point x="106" y="320" type="curve" smooth="yes"/>
      <point x="106" y="103" type="line" smooth="yes"/>
      <point x="106" y="57"/>
      <point x="101" y="40"/>
      <point x="38" y="40" type="curve"/>
    </contour>
  </outline>
</glyph>
<glyph name="s" format="2">
  <advance width="491"/>
  <unicode hex="0073"/>
  <anchor x="226" y="17" name="attachcedilla"/>
  <anchor x="245" y="0" name="commaaccentbelow"/>
  <anchor x="223" y="0" name="dotbelow"/>
  <anchor x="223" y="558" name="top"/>
  <outline>
    <contour>
      <point x="282" y="-15" type="curve" smooth="yes"/>
      <point x="373" y="-15"/>
      <point x="454" y="46"/>
      <point x="454" y="151" type="curve" smooth="yes"/>
      <point x="454" y="264"/>
      <point x="361" y="295"/>
      <point x="279" y="312" type="curve" smooth="yes"/>
      <point x="203" y="328"/>
      <point x="149" y="330"/>
      <point x="149" y="381" type="curve" smooth="yes"/>
      <point x="149" y="421"/>
      <point x="182" y="441"/>
      <point x="222" y="441" type="curve" smooth="yes"/>
      <point x="299" y="441"/>
      <point x="358" y="366"/>
      <point x="396" y="312" type="curve"/>
      <point x="436" y="329" type="line"/>
      <point x="396" y="486" type="line"/>
      <point x="370" y="486" type="line"/>
      <point x="362" y="482"/>
      <point x="339" y="468"/>
      <point x="323" y="468" type="curve" smooth="yes"/>
      <point x="304" y="468"/>
      <point x="263" y="490"/>
      <point x="212" y="490" type="curve" smooth="yes"/>
      <point x="124" y="490"/>
      <point x="49" y="423"/>
      <point x="49" y="328" type="curve" smooth="yes"/>
      <point x="49" y="237"/>
      <point x="117" y="201"/>
      <point x="181" y="182" type="curve" smooth="yes"/>
      <point x="265" y="157"/>
      <point x="349" y="159"/>
      <point x="349" y="100" type="curve" smooth="yes"/>
      <point x="349" y="63"/>
      <point x="315" y="34"/>
      <point x="270" y="34" type="curve" smooth="yes"/>
      <point x="195" y="34"/>
      <point x="114" y="112"/>
      <point x="75" y="175" type="curve"/>
      <point x="36" y="155" type="line"/>
      <point x="82" y="-12" type="line"/>
      <point x="106" y="-12" type="line"/>
      <point x="122" y="-2"/>
      <point x="146" y="12"/>
      <point x="158" y="12" type="curve" smooth="yes"/>
      <point x="174" y="12"/>
      <point x="222" y="-15"/>
    </contour>
  </outline>
</glyph>
<glyph name="t" format="2">
  <advance width="369"/>
  <unicode hex="0074"/>
  <anchor x="190" y="17" name="attachcedilla"/>
  <anchor x="337" y="735" name="caroncombalt"/>
  <anchor x="196" y="0" name="commaaccentbelow"/>
  <anchor x="203" y="-17" name="dotbelow"/>
  <anchor x="197" y="689" name="top"/>
  <outline>
    <contour>
      <point x="220" y="-14" type="curve" smooth="yes"/>
      <point x="302" y="-14"/>
      <point x="349" y="27"/>
      <point x="378" y="63" type="curve"/>
      <point x="351" y="92" type="line"/>
      <point x="337" y="80"/>
      <point x="310" y="56"/>
      <point x="277" y="56" type="curve" smooth="yes"/>
      <point x="226" y="56"/>
      <point x="226" y="112"/>
      <point x="226" y="150" type="curve" smooth="yes"/>
      <point x="226" y="423" type="line"/>
      <point x="351" y="423" type="line"/>
      <point x="351" y="476" type="line"/>
      <point x="226" y="476" type="line"/>
      <point x="226" y="635" type="line"/>
      <point x="170" y="635" type="line"/>
      <point x="151" y="555"/>
      <point x="137" y="501"/>
      <point x="28" y="465" type="curve"/>
      <point x="28" y="423" type="line"/>
      <point x="96" y="423" type="line"/>
      <point x="96" y="112" type="line" smooth="yes"/>
      <point x="96" y="48"/>
      <point x="120" y="-14"/>
    </contour>
  </outline>
</glyph>
<glyph name="u" format="2">
  <advance width="632"/>
  <unicode hex="0075"/>
  <anchor x="591" y="368" name="attachhorn"/>
  <anchor x="312" y="0" name="dotbelow"/>
  <anchor x="435" y="0" name="ogonek"/>
  <anchor x="315" y="558" name="top"/>
  <outline>
    <contour>
      <point x="244" y="-14" type="curve" smooth="yes"/>
      <point x="322" y="-14"/>
      <point x="377" y="24"/>
      <point x="417" y="61" type="curve"/>
      <point x="417" y="-10" type="line"/>
      <point x="482" y="-4"/>
      <point x="545" y="0"/>
      <point x="615" y="1" type="curve"/>
      <point x="615" y="41" type="line"/>
      <point x="554" y="41"/>
      <point x="547" y="54"/>
      <point x="547" y="130" type="curve" smooth="yes"/>
      <point x="547" y="490" type="line"/>
      <point x="349" y="434" type="line"/>
      <point x="349" y="395" type="line"/>
      <point x="408" y="390"/>
      <point x="417" y="372"/>
      <point x="417" y="310" type="curve" smooth="yes"/>
      <point x="417" y="108" type="line"/>
      <point x="393" y="85"/>
      <point x="356" y="65"/>
      <point x="310" y="65" type="curve" smooth="yes"/>
      <point x="231" y="65"/>
      <point x="231" y="125"/>
      <point x="231" y="165" type="curve" smooth="yes"/>
      <point x="231" y="490" type="line"/>
      <point x="34" y="434" type="line"/>
      <point x="34" y="395" type="line"/>
      <point x="92" y="390"/>
      <point x="102" y="372"/>
      <point x="102" y="310" type="curve" smooth="yes"/>
      <point x="102" y="165" type="line" smooth="yes"/>
      <point x="102" y="36"/>
      <point x="154" y="-14"/>
    </contour>
  </outline>
</glyph>
<glyph name="v" format="2">
  <advance width="539"/>
  <unicode hex="0076"/>
  <anchor x="257" y="0" name="dotbelow"/>
  <anchor x="285" y="558" name="top"/>
  <outline>
    <contour>
      <point x="239" y="-8" type="line"/>
      <point x="303" y="-8" type="line"/>
      <point x="452" y="357" type="line" smooth="yes"/>
      <point x="466" y="392"/>
      <point x="489" y="430"/>
      <point x="535" y="436" type="curve"/>
      <point x="535" y="476" type="line"/>
      <point x="341" y="476" type="line"/>
      <point x="341" y="436" type="line"/>
      <point x="378" y="434"/>
      <point x="404" y="422"/>
      <point x="404" y="392" type="curve" smooth="yes"/>
      <point x="404" y="383"/>
      <point x="402" y="369"/>
      <point x="398" y="358" type="curve" smooth="yes"/>
      <point x="314" y="139" type="line"/>
      <point x="208" y="388" type="line" smooth="yes"/>
      <point x="203" y="400"/>
      <point x="201" y="406"/>
      <point x="201" y="411" type="curve" smooth="yes"/>
      <point x="201" y="427"/>
      <point x="218" y="435"/>
      <point x="250" y="435" type="curve"/>
      <point x="250" y="476" type="line"/>
      <point x="3" y="476" type="line"/>
      <point x="3" y="436" type="line"/>
      <point x="41" y="430"/>
      <point x="50" y="429"/>
      <point x="74" y="374" type="curve" smooth="yes"/>
    </contour>
  </outline>
</glyph>
<glyph name="w" format="2">
  <advance width="800"/>
  <unicode hex="0077"/>
  <anchor x="383" y="0" name="dotbelow"/>
  <anchor x="403" y="558" name="top"/>
  <outline>
    <contour>
      <point x="218" y="-8" type="line"/>
      <point x="275" y="-8" type="line"/>
      <point x="394" y="280" type="line"/>
      <point x="502" y="-8" type="line"/>
      <point x="557" y="-8" type="line"/>
      <point x="704" y="357" type="line" smooth="yes"/>
      <point x="722" y="401"/>
      <point x="748" y="435"/>
      <point x="796" y="436" type="curve"/>
      <point x="796" y="476" type="line"/>
      <point x="594" y="476" type="line"/>
      <point x="594" y="436" type="line"/>
      <point x="631" y="433"/>
      <point x="656" y="423"/>
      <point x="656" y="391" type="curve" smooth="yes"/>
      <point x="656" y="378"/>
      <point x="652" y="356"/>
      <point x="649" y="348" type="curve" smooth="yes"/>
      <point x="574" y="152" type="line"/>
      <point x="494" y="375" type="line" smooth="yes"/>
      <point x="486" y="397"/>
      <point x="485" y="407"/>
      <point x="485" y="411" type="curve" smooth="yes"/>
      <point x="485" y="427"/>
      <point x="497" y="435"/>
      <point x="529" y="435" type="curve"/>
      <point x="529" y="476" type="line"/>
      <point x="284" y="476" type="line"/>
      <point x="284" y="436" type="line"/>
      <point x="318" y="430"/>
      <point x="338" y="434"/>
      <point x="350" y="392" type="curve" smooth="yes"/>
      <point x="366" y="336" type="line"/>
      <point x="292" y="152" type="line"/>
      <point x="209" y="389" type="line" smooth="yes"/>
      <point x="205" y="401"/>
      <point x="203" y="407"/>
      <point x="203" y="413" type="curve" smooth="yes"/>
      <point x="203" y="426"/>
      <point x="212" y="435"/>
      <point x="243" y="435" type="curve"/>
      <point x="243" y="476" type="line"/>
      <point x="3" y="476" type="line"/>
      <point x="3" y="436" type="line"/>
      <point x="41" y="430"/>
      <point x="53" y="429"/>
      <point x="74" y="374" type="curve" smooth="yes"/>
    </contour>
  </outline>
</glyph>
<glyph name="x" format="2">
  <advance width="541"/>
  <unicode hex="0078"/>
  <anchor x="277" y="558" name="top"/>
  <outline>
    <contour>
      <point x="8" y="0" type="line"/>
      <point x="218" y="0" type="line"/>
      <point x="218" y="40" type="line"/>
      <point x="177" y="43"/>
      <point x="164" y="56"/>
      <point x="164" y="72" type="curve" smooth="yes"/>
      <point x="164" y="79"/>
      <point x="167" y="88"/>
      <point x="190" y="116" type="curve" smooth="yes"/>
      <point x="245" y="183" type="line"/>
      <point x="307" y="95" type="line" smooth="yes"/>
      <point x="315" y="84"/>
      <point x="325" y="67"/>
      <point x="325" y="59" type="curve" smooth="yes"/>
      <point x="325" y="51"/>
      <point x="315" y="41"/>
      <point x="282" y="41" type="curve"/>
      <point x="282" y="0" type="line"/>
      <point x="537" y="0" type="line"/>
      <point x="537" y="40" type="line"/>
      <point x="501" y="44"/>
      <point x="496" y="56"/>
      <point x="461" y="102" type="curve" smooth="yes"/>
      <point x="329" y="274" type="line"/>
      <point x="400" y="359" type="line" smooth="yes"/>
      <point x="442" y="409"/>
      <point x="480" y="430"/>
      <point x="526" y="436" type="curve"/>
      <point x="526" y="476" type="line"/>
      <point x="322" y="476" type="line"/>
      <point x="322" y="436" type="line"/>
      <point x="360" y="434"/>
      <point x="372" y="422"/>
      <point x="372" y="409" type="curve" smooth="yes"/>
      <point x="372" y="399"/>
      <point x="364" y="387"/>
      <point x="340" y="359" type="curve" smooth="yes"/>
      <point x="299" y="311" type="line"/>
      <point x="244" y="388" type="line" smooth="yes"/>
      <point x="239" y="395"/>
      <point x="229" y="411"/>
      <point x="229" y="421" type="curve" smooth="yes"/>
      <point x="229" y="431"/>
      <point x="240" y="435"/>
      <point x="270" y="435" type="curve"/>
      <point x="270" y="476" type="line"/>
      <point x="8" y="476" type="line"/>
      <point x="8" y="436" type="line"/>
      <point x="44" y="432"/>
      <point x="57" y="422"/>
      <point x="94" y="374" type="curve" smooth="yes"/>
      <point x="216" y="218" type="line"/>
      <point x="128" y="119" type="line" smooth="yes"/>
      <point x="83" y="68"/>
      <point x="56" y="53"/>
      <point x="8" y="40" type="curve"/>
    </contour>
  </outline>
</glyph>
<glyph name="y" format="2">
  <advance width="542"/>
  <unicode hex="0079"/>
  <anchor x="390" y="16" name="dotbelow"/>
  <anchor x="269" y="558" name="top"/>
  <outline>
    <contour>
      <point x="97" y="-184" type="curve" smooth="yes"/>
      <point x="154" y="-184"/>
      <point x="196" y="-147"/>
      <point x="229" y="-104" type="curve" smooth="yes"/>
      <point x="251" y="-75"/>
      <point x="269" y="-44"/>
      <point x="291" y="4" type="curve" smooth="yes"/>
      <point x="454" y="357" type="line" smooth="yes"/>
      <point x="470" y="392"/>
      <point x="485" y="425"/>
      <point x="537" y="436" type="curve"/>
      <point x="537" y="476" type="line"/>
      <point x="341" y="476" type="line"/>
      <point x="341" y="436" type="line"/>
      <point x="388" y="427"/>
      <point x="403" y="422"/>
      <point x="403" y="393" type="curve" smooth="yes"/>
      <point x="403" y="382"/>
      <point x="401" y="365"/>
      <point x="391" y="342" type="curve" smooth="yes"/>
      <point x="310" y="158" type="line"/>
      <point x="209" y="386" type="line" smooth="yes"/>
      <point x="204" y="397"/>
      <point x="200" y="406"/>
      <point x="200" y="413" type="curve" smooth="yes"/>
      <point x="200" y="427"/>
      <point x="218" y="435"/>
      <point x="249" y="435" type="curve"/>
      <point x="249" y="476" type="line"/>
      <point x="3" y="476" type="line"/>
      <point x="3" y="436" type="line"/>
      <point x="35" y="430"/>
      <point x="45" y="428"/>
      <point x="70" y="373" type="curve" smooth="yes"/>
      <point x="239" y="4" type="line"/>
      <point x="218" y="-34"/>
      <point x="186" y="-92"/>
      <point x="159" y="-92" type="curve" smooth="yes"/>
      <point x="133" y="-92"/>
      <point x="120" y="-40"/>
      <point x="71" y="-40" type="curve" smooth="yes"/>
      <point x="31" y="-40"/>
      <point x="2" y="-72"/>
      <point x="2" y="-107" type="curve" smooth="yes"/>
      <point x="2" y="-148"/>
      <point x="40" y="-184"/>
    </contour>
  </outline>
</glyph>
<glyph name="z" format="2">
  <advance width="498"/>
  <unicode hex="007A"/>
  <anchor x="219" y="0" name="dotbelow"/>
  <anchor x="262" y="558" name="top"/>
  <outline>
    <contour>
      <point x="31" y="0" type="line"/>
      <point x="419" y="0" type="line"/>
      <point x="468" y="171" type="line"/>
      <point x="438" y="187" type="line"/>
      <point x="346" y="74"/>
      <point x="319" y="44"/>
      <point x="190" y="44" type="curve"/>
      <point x="457" y="442" type="line"/>
      <point x="457" y="476" type="line"/>
      <point x="90" y="476" type="line"/>
      <point x="45" y="317" type="line"/>
      <point x="78" y="301" type="line"/>
      <point x="150" y="406"/>
      <point x="196" y="435"/>
      <point x="298" y="435" type="curve"/>
      <point x="31" y="35" type="line"/>
    </contour>
  </outline>
</glyph>
<glyph name="braceleft" format="2">
  <advance width="423"/>
  <unicode hex="007B"/>
  <outline>
    <contour>
      <point x="325" y="-183" type="curve" smooth="yes"/>
      <point x="357" y="-183" type="line"/>
      <point x="357" y="-135" type="line"/>
      <point x="238" y="-135"/>
      <point x="238" y="-86"/>
      <point x="238" y="4" type="curve" smooth="yes"/>
      <point x="238" y="130" type="line" smooth="yes"/>
      <point x="238" y="256"/>
      <point x="203" y="261"/>
      <point x="135" y="285" type="curve"/>
      <point x="195" y="302"/>
      <point x="238" y="310"/>
      <point x="238" y="410" type="curve" smooth="yes"/>
      <point x="238" y="537" type="line" smooth="yes"/>
      <point x="238" y="628"/>
      <point x="237" y="672"/>
      <point x="357" y="672" type="curve"/>
      <point x="357" y="721" type="line"/>
      <point x="325" y="721" type="line" smooth="yes"/>
      <point x="156" y="721"/>
      <point x="122" y="690"/>
      <point x="122" y="536" type="curve" smooth="yes"/>
      <point x="122" y="488"/>
      <point x="125" y="453"/>
      <point x="125" y="423" type="curve" smooth="yes"/>
      <point x="125" y="334"/>
      <point x="99" y="313"/>
      <point x="36" y="308" type="curve"/>
      <point x="36" y="261" type="line"/>
      <point x="93" y="254"/>
      <point x="125" y="246"/>
      <point x="125" y="149" type="curve" smooth="yes"/>
      <point x="125" y="119"/>
      <point x="122" y="51"/>
      <point x="122" y="4" type="curve" smooth="yes"/>
      <point x="122" y="-148"/>
      <point x="154" y="-183"/>
    </contour>
  </outline>
</glyph>
<glyph name="bar" format="2">
  <advance width="541"/>
  <unicode hex="007C"/>
  <outline>
    <contour>
      <point x="222" y="-181" type="line"/>
      <point x="320" y="-181" type="line"/>
      <point x="320" y="721" type="line"/>
      <point x="222" y="721" type="line"/>
    </contour>
  </outline>
</glyph>
<glyph name="braceright" format="2">
  <advance width="423"/>
  <unicode hex="007D"/>
  <outline>
    <contour>
      <point x="66" y="-183" type="line"/>
      <point x="97" y="-183" type="line" smooth="yes"/>
      <point x="264" y="-183"/>
      <point x="301" y="-150"/>
      <point x="301" y="4" type="curve" smooth="yes"/>
      <point x="301" y="55"/>
      <point x="297" y="117"/>
      <point x="297" y="150" type="curve" smooth="yes"/>
      <point x="297" y="245"/>
      <point x="330" y="254"/>
      <point x="387" y="261" type="curve"/>
      <point x="387" y="308" type="line"/>
      <point x="324" y="313"/>
      <point x="297" y="334"/>
      <point x="297" y="421" type="curve" smooth="yes"/>
      <point x="297" y="455"/>
      <point x="301" y="485"/>
      <point x="301" y="543" type="curve" smooth="yes"/>
      <point x="301" y="676"/>
      <point x="280" y="721"/>
      <point x="97" y="721" type="curve" smooth="yes"/>
      <point x="66" y="721" type="line"/>
      <point x="66" y="672" type="line"/>
      <point x="186" y="672"/>
      <point x="185" y="628"/>
      <point x="185" y="537" type="curve" smooth="yes"/>
      <point x="185" y="410" type="line" smooth="yes"/>
      <point x="185" y="310"/>
      <point x="228" y="302"/>
      <point x="288" y="285" type="curve"/>
      <point x="219" y="261"/>
      <point x="185" y="256"/>
      <point x="185" y="130" type="curve" smooth="yes"/>
      <point x="185" y="4" type="line" smooth="yes"/>
      <point x="185" y="-86"/>
      <point x="185" y="-135"/>
      <point x="66" y="-135" type="curve"/>
    </contour>
  </outline>
</glyph>
<glyph name="cent" format="2">
  <advance width="623"/>
  <unicode hex="00A2"/>
  <anchor x="252" y="17" name="attachcedilla"/>
  <anchor x="274" y="558" name="top"/>
  <outline>
    <contour>
      <point x="307" y="31" type="line"/>
      <point x="350" y="31" type="line"/>
      <point x="350" y="119" type="line"/>
      <point x="450" y="129"/>
      <point x="510" y="185"/>
      <point x="544" y="256" type="curve"/>
      <point x="508" y="281" type="line"/>
      <point x="482" y="238"/>
      <point x="438" y="194"/>
      <point x="372" y="194" type="curve" smooth="yes"/>
      <point x="362" y="194"/>
      <point x="357" y="195"/>
      <point x="350" y="196" type="curve"/>
      <point x="350" y="574" type="line"/>
      <point x="401" y="558"/>
      <point x="371" y="439"/>
      <point x="458" y="439" type="curve" smooth="yes"/>
      <point x="500" y="439"/>
      <point x="530" y="466"/>
      <point x="530" y="506" type="curve" smooth="yes"/>
      <point x="530" y="577"/>
      <point x="434" y="621"/>
      <point x="356" y="621" type="curve" smooth="yes"/>
      <point x="350" y="621" type="line"/>
      <point x="350" y="697" type="line"/>
      <point x="307" y="697" type="line"/>
      <point x="307" y="616" type="line"/>
      <point x="183" y="591"/>
      <point x="92" y="477"/>
      <point x="92" y="347" type="curve" smooth="yes"/>
      <point x="92" y="214"/>
      <point x="185" y="121"/>
      <point x="307" y="117" type="curve"/>
    </contour>
    <contour>
      <point x="307" y="213" type="line"/>
      <point x="257" y="248"/>
      <point x="236" y="330"/>
      <point x="236" y="407" type="curve" smooth="yes"/>
      <point x="236" y="491"/>
      <point x="261" y="551"/>
      <point x="307" y="571" type="curve"/>
    </contour>
  </outline>
</glyph>
<glyph name="sterling" format="2">
  <advance width="623"/>
  <unicode hex="00A3"/>
  <outline>
    <contour>
      <point x="398" y="-18" type="curve" smooth="yes"/>
      <point x="514" y="-18"/>
      <point x="567" y="74"/>
      <point x="585" y="192" type="curve"/>
      <point x="536" y="198" type="line"/>
      <point x="518" y="134"/>
      <point x="469" y="106"/>
      <point x="417" y="106" type="curve" smooth="yes"/>
      <point x="386" y="106"/>
      <point x="345" y="116"/>
      <point x="309" y="126" type="curve"/>
      <point x="335" y="165"/>
      <point x="360" y="226"/>
      <point x="359" y="271" type="curve" smooth="yes"/>
      <point x="358" y="301" type="line"/>
      <point x="467" y="301" type="line"/>
      <point x="467" y="350" type="line"/>
      <point x="351" y="350" type="line"/>
      <point x="348" y="369"/>
      <point x="342" y="386"/>
      <point x="333" y="407" type="curve" smooth="yes"/>
      <point x="308" y="465"/>
      <point x="268" y="536"/>
      <point x="268" y="599" type="curve" smooth="yes"/>
      <point x="268" y="679"/>
      <point x="333" y="708"/>
      <point x="381" y="708" type="curve" smooth="yes"/>
      <point x="422" y="708"/>
      <point x="490" y="686"/>
      <point x="490" y="651" type="curve" smooth="yes"/>
      <point x="490" y="645"/>
      <point x="488" y="638"/>
      <point x="478" y="638" type="curve" smooth="yes"/>
      <point x="470" y="638"/>
      <point x="463" y="642"/>
      <point x="451" y="642" type="curve" smooth="yes"/>
      <point x="421" y="642"/>
      <point x="401" y="618"/>
      <point x="401" y="589" type="curve" smooth="yes"/>
      <point x="401" y="555"/>
      <point x="427" y="529"/>
      <point x="463" y="529" type="curve" smooth="yes"/>
      <point x="514" y="529"/>
      <point x="543" y="582"/>
      <point x="543" y="628" type="curve" smooth="yes"/>
      <point x="543" y="706"/>
      <point x="458" y="757"/>
      <point x="370" y="757" type="curve" smooth="yes"/>
      <point x="253" y="757"/>
      <point x="133" y="667"/>
      <point x="133" y="505" type="curve" smooth="yes"/>
      <point x="133" y="448"/>
      <point x="148" y="396"/>
      <point x="166" y="350" type="curve"/>
      <point x="83" y="350" type="line"/>
      <point x="83" y="301" type="line"/>
      <point x="187" y="301" type="line"/>
      <point x="205" y="258"/>
      <point x="221" y="217"/>
      <point x="221" y="182" type="curve" smooth="yes"/>
      <point x="221" y="169"/>
      <point x="219" y="161"/>
      <point x="212" y="147" type="curve"/>
      <point x="194" y="151"/>
      <point x="183" y="157"/>
      <point x="157" y="157" type="curve" smooth="yes"/>
      <point x="94" y="157"/>
      <point x="39" y="121"/>
      <point x="39" y="62" type="curve" smooth="yes"/>
      <point x="39" y="9"/>
      <point x="83" y="-16"/>
      <point x="132" y="-16" type="curve" smooth="yes"/>
      <point x="176" y="-16"/>
      <point x="218" y="5"/>
      <point x="254" y="50" type="curve"/>
      <point x="282" y="14"/>
      <point x="329" y="-18"/>
    </contour>
    <contour>
      <point x="124" y="41" type="curve" smooth="yes"/>
      <point x="100" y="41"/>
      <point x="92" y="52"/>
      <point x="92" y="65" type="curve" smooth="yes"/>
      <point x="92" y="84"/>
      <point x="110" y="99"/>
      <point x="140" y="99" type="curve" smooth="yes"/>
      <point x="159" y="99"/>
      <point x="173" y="93"/>
      <point x="187" y="88" type="curve"/>
      <point x="172" y="59"/>
      <point x="155" y="41"/>
    </contour>
  </outline>
</glyph>
<glyph name="section" format="2">
  <advance width="485"/>
  <unicode hex="00A7"/>
  <outline>
    <contour>
      <point x="236" y="-198" type="curve" smooth="yes"/>
      <point x="334" y="-198"/>
      <point x="409" y="-139"/>
      <point x="409" y="-40" type="curve" smooth="yes"/>
      <point x="409" y="36"/>
      <point x="364" y="73"/>
      <point x="303" y="116" type="curve"/>
      <point x="314" y="113"/>
      <point x="323" y="111"/>
      <point x="334" y="111" type="curve" smooth="yes"/>
      <point x="398" y="111"/>
      <point x="449" y="174"/>
      <point x="449" y="252" type="curve" smooth="yes"/>
      <point x="449" y="437"/>
      <point x="164" y="518"/>
      <point x="164" y="627" type="curve" smooth="yes"/>
      <point x="164" y="656"/>
      <point x="185" y="699"/>
      <point x="249" y="699" type="curve" smooth="yes"/>
      <point x="276" y="699"/>
      <point x="297" y="691"/>
      <point x="297" y="677" type="curve" smooth="yes"/>
      <point x="297" y="658"/>
      <point x="259" y="651"/>
      <point x="259" y="609" type="curve" smooth="yes"/>
      <point x="259" y="572"/>
      <point x="290" y="546"/>
      <point x="325" y="546" type="curve" smooth="yes"/>
      <point x="366" y="546"/>
      <point x="391" y="581"/>
      <point x="391" y="621" type="curve" smooth="yes"/>
      <point x="391" y="686"/>
      <point x="323" y="735"/>
      <point x="241" y="735" type="curve" smooth="yes"/>
      <point x="151" y="735"/>
      <point x="79" y="676"/>
      <point x="79" y="584" type="curve" smooth="yes"/>
      <point x="79" y="528"/>
      <point x="106" y="470"/>
      <point x="177" y="422" type="curve"/>
      <point x="168" y="424"/>
      <point x="162" y="425"/>
      <point x="153" y="425" type="curve" smooth="yes"/>
      <point x="84" y="425"/>
      <point x="36" y="361"/>
      <point x="36" y="285" type="curve" smooth="yes"/>
      <point x="36" y="102"/>
      <point x="319" y="25"/>
      <point x="319" y="-91" type="curve" smooth="yes"/>
      <point x="319" y="-132"/>
      <point x="283" y="-162"/>
      <point x="237" y="-162" type="curve" smooth="yes"/>
      <point x="214" y="-162"/>
      <point x="173" y="-154"/>
      <point x="173" y="-136" type="curve" smooth="yes"/>
      <point x="173" y="-118"/>
      <point x="211" y="-115"/>
      <point x="211" y="-71" type="curve" smooth="yes"/>
      <point x="211" y="-32"/>
      <point x="182" y="-4"/>
      <point x="144" y="-4" type="curve" smooth="yes"/>
      <point x="94" y="-4"/>
      <point x="77" y="-53"/>
      <point x="77" y="-83" type="curve" smooth="yes"/>
      <point x="77" y="-143"/>
      <point x="142" y="-198"/>
    </contour>
    <contour>
      <point x="312" y="146" type="curve" smooth="yes"/>
      <point x="262" y="146"/>
      <point x="116" y="265"/>
      <point x="116" y="334" type="curve" smooth="yes"/>
      <point x="116" y="364"/>
      <point x="144" y="390"/>
      <point x="171" y="390" type="curve" smooth="yes"/>
      <point x="231" y="390"/>
      <point x="366" y="264"/>
      <point x="366" y="203" type="curve" smooth="yes"/>
      <point x="366" y="175"/>
      <point x="337" y="146"/>
    </contour>
  </outline>
</glyph>
<glyph name="copyright" format="2">
  <advance width="822"/>
  <unicode hex="00A9"/>
  <outline>
    <contour>
      <point x="411" y="-18" type="curve" smooth="yes"/>
      <point x="618" y="-18"/>
      <point x="789" y="152"/>
      <point x="789" y="361" type="curve" smooth="yes"/>
      <point x="789" y="569"/>
      <point x="620" y="739"/>
      <point x="412" y="739" type="curve" smooth="yes"/>
      <point x="202" y="739"/>
      <point x="32" y="567"/>
      <point x="32" y="360" type="curve" smooth="yes"/>
      <point x="32" y="152"/>
      <point x="204" y="-18"/>
    </contour>
    <contour>
      <point x="412" y="32" type="curve" smooth="yes"/>
      <point x="234" y="32"/>
      <point x="86" y="181"/>
      <point x="86" y="359" type="curve" smooth="yes"/>
      <point x="86" y="539"/>
      <point x="236" y="689"/>
      <point x="414" y="689" type="curve" smooth="yes"/>
      <point x="592" y="689"/>
      <point x="735" y="539"/>
      <point x="735" y="360" type="curve" smooth="yes"/>
      <point x="735" y="180"/>
      <point x="589" y="32"/>
    </contour>
    <contour>
      <point x="409" y="148" type="curve" smooth="yes"/>
      <point x="488" y="148"/>
      <point x="550" y="187"/>
      <point x="589" y="274" type="curve"/>
      <point x="560" y="286" type="line"/>
      <point x="534" y="242"/>
      <point x="501" y="204"/>
      <point x="448" y="204" type="curve" smooth="yes"/>
      <point x="383" y="204"/>
      <point x="321" y="262"/>
      <point x="321" y="392" type="curve" smooth="yes"/>
      <point x="321" y="513"/>
      <point x="375" y="546"/>
      <point x="417" y="546" type="curve" smooth="yes"/>
      <point x="474" y="546"/>
      <point x="519" y="486"/>
      <point x="545" y="440" type="curve"/>
      <point x="577" y="453" type="line"/>
      <point x="544" y="573" type="line"/>
      <point x="529" y="578" type="line"/>
      <point x="517" y="574"/>
      <point x="501" y="563"/>
      <point x="492" y="563" type="curve" smooth="yes"/>
      <point x="481" y="563"/>
      <point x="456" y="579"/>
      <point x="413" y="579" type="curve" smooth="yes"/>
      <point x="308" y="579"/>
      <point x="218" y="481"/>
      <point x="218" y="353" type="curve" smooth="yes"/>
      <point x="218" y="243"/>
      <point x="285" y="148"/>
    </contour>
  </outline>
</glyph>
<glyph name="ordfeminine" format="2">
  <advance width="381"/>
  <unicode hex="00AA"/>
  <outline>
    <contour>
      <point x="132" y="398" type="curve" smooth="yes"/>
      <point x="171" y="398"/>
      <point x="205" y="414"/>
      <point x="231" y="435" type="curve"/>
      <point x="242" y="421"/>
      <point x="260" y="398"/>
      <point x="293" y="398" type="curve" smooth="yes"/>
      <point x="328" y="398"/>
      <point x="351" y="424"/>
      <point x="369" y="440" type="curve"/>
      <point x="346" y="462" type="line"/>
      <point x="339" y="458"/>
      <point x="334" y="454"/>
      <point x="326" y="454" type="curve" smooth="yes"/>
      <point x="312" y="454"/>
      <point x="314" y="474"/>
      <point x="314" y="516" type="curve" smooth="yes"/>
      <point x="314" y="624" type="line" smooth="yes"/>
      <point x="314" y="676"/>
      <point x="273" y="703"/>
      <point x="195" y="703" type="curve" smooth="yes"/>
      <point x="122" y="703"/>
      <point x="55" y="679"/>
      <point x="55" y="637" type="curve" smooth="yes"/>
      <point x="55" y="616"/>
      <point x="72" y="591"/>
      <point x="103" y="591" type="curve" smooth="yes"/>
      <point x="158" y="591"/>
      <point x="138" y="670"/>
      <point x="196" y="670" type="curve" smooth="yes"/>
      <point x="213" y="670"/>
      <point x="225" y="663"/>
      <point x="225" y="626" type="curve" smooth="yes"/>
      <point x="225" y="595" type="line"/>
      <point x="104" y="580"/>
      <point x="36" y="538"/>
      <point x="36" y="477" type="curve" smooth="yes"/>
      <point x="36" y="430"/>
      <point x="76" y="398"/>
    </contour>
    <contour>
      <point x="167" y="446" type="curve" smooth="yes"/>
      <point x="142" y="446"/>
      <point x="134" y="466"/>
      <point x="134" y="487" type="curve" smooth="yes"/>
      <point x="134" y="511"/>
      <point x="144" y="543"/>
      <point x="225" y="562" type="curve"/>
      <point x="225" y="472" type="line"/>
      <point x="214" y="464"/>
      <point x="191" y="446"/>
    </contour>
  </outline>
</glyph>
<glyph name="registered" format="2">
  <advance width="822"/>
  <unicode hex="00AE"/>
  <outline>
    <contour>
      <point x="411" y="-18" type="curve" smooth="yes"/>
      <point x="618" y="-18"/>
      <point x="789" y="152"/>
      <point x="789" y="361" type="curve" smooth="yes"/>
      <point x="789" y="569"/>
      <point x="620" y="739"/>
      <point x="412" y="739" type="curve" smooth="yes"/>
      <point x="202" y="739"/>
      <point x="32" y="567"/>
      <point x="32" y="360" type="curve" smooth="yes"/>
      <point x="32" y="152"/>
      <point x="204" y="-18"/>
    </contour>
    <contour>
      <point x="412" y="32" type="curve" smooth="yes"/>
      <point x="234" y="32"/>
      <point x="86" y="181"/>
      <point x="86" y="359" type="curve" smooth="yes"/>
      <point x="86" y="539"/>
      <point x="236" y="689"/>
      <point x="414" y="689" type="curve" smooth="yes"/>
      <point x="592" y="689"/>
      <point x="735" y="539"/>
      <point x="735" y="360" type="curve" smooth="yes"/>
      <point x="735" y="180"/>
      <point x="589" y="32"/>
    </contour>
    <contour>
      <point x="219" y="159" type="line"/>
      <point x="423" y="159" type="line"/>
      <point x="423" y="190" type="line"/>
      <point x="370" y="191"/>
      <point x="371" y="202"/>
      <point x="371" y="234" type="curve" smooth="yes"/>
      <point x="371" y="351" type="line"/>
      <point x="377" y="351" type="line" smooth="yes"/>
      <point x="389" y="351"/>
      <point x="400" y="346"/>
      <point x="414" y="319" type="curve" smooth="yes"/>
      <point x="496" y="159" type="line"/>
      <point x="628" y="159" type="line"/>
      <point x="628" y="188" type="line"/>
      <point x="579" y="191"/>
      <point x="569" y="223"/>
      <point x="554" y="253" type="curve" smooth="yes"/>
      <point x="532" y="297"/>
      <point x="504" y="355"/>
      <point x="485" y="365" type="curve"/>
      <point x="511" y="369"/>
      <point x="536" y="372"/>
      <point x="560" y="393" type="curve" smooth="yes"/>
      <point x="588" y="417"/>
      <point x="590" y="444"/>
      <point x="590" y="459" type="curve" smooth="yes"/>
      <point x="590" y="498"/>
      <point x="576" y="537"/>
      <point x="512" y="557" type="curve" smooth="yes"/>
      <point x="483" y="566"/>
      <point x="449" y="570"/>
      <point x="400" y="570" type="curve" smooth="yes"/>
      <point x="219" y="570" type="line"/>
      <point x="219" y="537" type="line"/>
      <point x="271" y="535"/>
      <point x="272" y="530"/>
      <point x="272" y="493" type="curve" smooth="yes"/>
      <point x="272" y="234" type="line" smooth="yes"/>
      <point x="272" y="202"/>
      <point x="272" y="191"/>
      <point x="219" y="190" type="curve"/>
    </contour>
    <contour>
      <point x="371" y="384" type="line"/>
      <point x="371" y="493" type="line" smooth="yes"/>
      <point x="371" y="527"/>
      <point x="381" y="537"/>
      <point x="414" y="537" type="curve" smooth="yes"/>
      <point x="465" y="537"/>
      <point x="488" y="513"/>
      <point x="488" y="459" type="curve" smooth="yes"/>
      <point x="488" y="410"/>
      <point x="469" y="384"/>
      <point x="401" y="384" type="curve" smooth="yes"/>
    </contour>
  </outline>
</glyph>
<glyph name="degree" format="2">
  <advance width="392"/>
  <unicode hex="00B0"/>
  <outline>
    <contour>
      <point x="196" y="411" type="curve" smooth="yes"/>
      <point x="276" y="411"/>
      <point x="356" y="470"/>
      <point x="356" y="572" type="curve" smooth="yes"/>
      <point x="356" y="675"/>
      <point x="277" y="735"/>
      <point x="197" y="735" type="curve" smooth="yes"/>
      <point x="117" y="735"/>
      <point x="36" y="676"/>
      <point x="36" y="574" type="curve" smooth="yes"/>
      <point x="36" y="472"/>
      <point x="116" y="411"/>
    </contour>
    <contour>
      <point x="196" y="454" type="curve" smooth="yes"/>
      <point x="150" y="454"/>
      <point x="133" y="510"/>
      <point x="133" y="572" type="curve" smooth="yes"/>
      <point x="133" y="635"/>
      <point x="151" y="692"/>
      <point x="197" y="692" type="curve" smooth="yes"/>
      <point x="243" y="692"/>
      <point x="258" y="635"/>
      <point x="258" y="572" type="curve" smooth="yes"/>
      <point x="258" y="510"/>
      <point x="242" y="454"/>
    </contour>
  </outline>
</glyph>
<glyph name="twosuperior" format="2">
  <advance width="411"/>
  <unicode hex="00B2"/>
  <outline>
    <contour>
      <point x="24" y="355" type="line"/>
      <point x="335" y="355" type="line"/>
      <point x="372" y="501" type="line"/>
      <point x="339" y="508" type="line"/>
      <point x="306" y="440"/>
      <point x="301" y="440"/>
      <point x="228" y="440" type="curve" smooth="yes"/>
      <point x="118" y="440" type="line"/>
      <point x="147" y="460"/>
      <point x="163" y="474"/>
      <point x="192" y="491" type="curve" smooth="yes"/>
      <point x="214" y="504"/>
      <point x="266" y="532"/>
      <point x="293" y="551" type="curve" smooth="yes"/>
      <point x="333" y="579"/>
      <point x="362" y="617"/>
      <point x="362" y="663" type="curve" smooth="yes"/>
      <point x="362" y="733"/>
      <point x="295" y="777"/>
      <point x="201" y="777" type="curve" smooth="yes"/>
      <point x="97" y="777"/>
      <point x="41" y="724"/>
      <point x="41" y="673" type="curve" smooth="yes"/>
      <point x="41" y="645"/>
      <point x="58" y="616"/>
      <point x="94" y="616" type="curve" smooth="yes"/>
      <point x="129" y="616"/>
      <point x="146" y="642"/>
      <point x="146" y="670" type="curve" smooth="yes"/>
      <point x="146" y="683"/>
      <point x="143" y="692"/>
      <point x="143" y="704" type="curve" smooth="yes"/>
      <point x="143" y="730"/>
      <point x="161" y="742"/>
      <point x="193" y="742" type="curve" smooth="yes"/>
      <point x="230" y="742"/>
      <point x="254" y="725"/>
      <point x="254" y="676" type="curve" smooth="yes"/>
      <point x="254" y="631"/>
      <point x="234" y="598"/>
      <point x="203" y="565" type="curve" smooth="yes"/>
      <point x="179" y="539"/>
      <point x="151" y="518"/>
      <point x="125" y="493" type="curve" smooth="yes"/>
      <point x="89" y="458"/>
      <point x="56" y="426"/>
      <point x="24" y="390" type="curve"/>
    </contour>
  </outline>
</glyph>
<glyph name="threesuperior" format="2">
  <advance width="411"/>
  <unicode hex="00B3"/>
  <outline>
    <contour>
      <point x="190" y="344" type="curve" smooth="yes"/>
      <point x="303" y="344"/>
      <point x="372" y="395"/>
      <point x="372" y="467" type="curve" smooth="yes"/>
      <point x="372" y="519"/>
      <point x="336" y="557"/>
      <point x="257" y="575" type="curve"/>
      <point x="300" y="587"/>
      <point x="359" y="611"/>
      <point x="359" y="671" type="curve" smooth="yes"/>
      <point x="359" y="736"/>
      <point x="288" y="776"/>
      <point x="201" y="776" type="curve" smooth="yes"/>
      <point x="124" y="776"/>
      <point x="51" y="744"/>
      <point x="51" y="693" type="curve" smooth="yes"/>
      <point x="51" y="669"/>
      <point x="68" y="642"/>
      <point x="103" y="642" type="curve" smooth="yes"/>
      <point x="120" y="642"/>
      <point x="152" y="648"/>
      <point x="152" y="702" type="curve" smooth="yes"/>
      <point x="152" y="732"/>
      <point x="171" y="743"/>
      <point x="198" y="743" type="curve" smooth="yes"/>
      <point x="228" y="743"/>
      <point x="256" y="730"/>
      <point x="256" y="675" type="curve" smooth="yes"/>
      <point x="256" y="618"/>
      <point x="225" y="591"/>
      <point x="183" y="591" type="curve" smooth="yes"/>
      <point x="169" y="591"/>
      <point x="160" y="594"/>
      <point x="151" y="594" type="curve" smooth="yes"/>
      <point x="130" y="594"/>
      <point x="126" y="580"/>
      <point x="126" y="574" type="curve" smooth="yes"/>
      <point x="126" y="569"/>
      <point x="128" y="551"/>
      <point x="146" y="551" type="curve" smooth="yes"/>
      <point x="154" y="551"/>
      <point x="176" y="555"/>
      <point x="191" y="555" type="curve" smooth="yes"/>
      <point x="230" y="555"/>
      <point x="266" y="526"/>
      <point x="266" y="467" type="curve" smooth="yes"/>
      <point x="266" y="415"/>
      <point x="239" y="377"/>
      <point x="187" y="377" type="curve" smooth="yes"/>
      <point x="147" y="377"/>
      <point x="136" y="400"/>
      <point x="136" y="424" type="curve" smooth="yes"/>
      <point x="136" y="466"/>
      <point x="111" y="480"/>
      <point x="85" y="480" type="curve" smooth="yes"/>
      <point x="51" y="480"/>
      <point x="31" y="456"/>
      <point x="31" y="428" type="curve" smooth="yes"/>
      <point x="31" y="377"/>
      <point x="100" y="344"/>
    </contour>
  </outline>
</glyph>
<glyph name="micro" format="2">
  <advance width="632"/>
  <unicode hex="00B5"/>
  <outline>
    <contour>
      <point x="136" y="-365" type="curve" smooth="yes"/>
      <point x="170" y="-365"/>
      <point x="210" y="-345"/>
      <point x="210" y="-275" type="curve" smooth="yes"/>
      <point x="210" y="-209"/>
      <point x="175" y="-175"/>
      <point x="169" y="2" type="curve"/>
      <point x="190" y="-9"/>
      <point x="215" y="-14"/>
      <point x="244" y="-14" type="curve" smooth="yes"/>
      <point x="322" y="-14"/>
      <point x="377" y="24"/>
      <point x="417" y="61" type="curve"/>
      <point x="417" y="-10" type="line"/>
      <point x="482" y="-4"/>
      <point x="545" y="0"/>
      <point x="615" y="1" type="curve"/>
      <point x="615" y="41" type="line"/>
      <point x="554" y="41"/>
      <point x="547" y="54"/>
      <point x="547" y="130" type="curve" smooth="yes"/>
      <point x="547" y="490" type="line"/>
      <point x="349" y="434" type="line"/>
      <point x="349" y="395" type="line"/>
      <point x="408" y="390"/>
      <point x="417" y="372"/>
      <point x="417" y="310" type="curve" smooth="yes"/>
      <point x="417" y="108" type="line"/>
      <point x="393" y="85"/>
      <point x="356" y="65"/>
      <point x="310" y="65" type="curve" smooth="yes"/>
      <point x="231" y="65"/>
      <point x="231" y="125"/>
      <point x="231" y="165" type="curve" smooth="yes"/>
      <point x="231" y="490" type="line"/>
      <point x="34" y="434" type="line"/>
      <point x="34" y="395" type="line"/>
      <point x="92" y="390"/>
      <point x="102" y="372"/>
      <point x="102" y="310" type="curve" smooth="yes"/>
      <point x="102" y="159" type="line" smooth="yes"/>
      <point x="102" y="-207"/>
      <point x="63" y="-201"/>
      <point x="63" y="-273" type="curve" smooth="yes"/>
      <point x="63" y="-345"/>
      <point x="101" y="-365"/>
    </contour>
  </outline>
</glyph>
<glyph name="paragraph" format="2">
  <advance width="623"/>
  <unicode hex="00B6"/>
  <outline>
    <contour>
      <point x="158" y="-184" type="line"/>
      <point x="342" y="-184" type="line"/>
      <point x="342" y="671" type="line"/>
      <point x="405" y="671" type="line"/>
      <point x="405" y="-184" type="line"/>
      <point x="589" y="-184" type="line"/>
      <point x="589" y="-138" type="line"/>
      <point x="566" y="-138" type="line" smooth="yes"/>
      <point x="512" y="-138"/>
      <point x="499" y="-128"/>
      <point x="499" y="-50" type="curve" smooth="yes"/>
      <point x="499" y="599" type="line" smooth="yes"/>
      <point x="499" y="662"/>
      <point x="510" y="679"/>
      <point x="565" y="679" type="curve" smooth="yes"/>
      <point x="589" y="679" type="line"/>
      <point x="589" y="721" type="line"/>
      <point x="248" y="721" type="line" smooth="yes"/>
      <point x="125" y="721"/>
      <point x="36" y="658"/>
      <point x="36" y="526" type="curve" smooth="yes"/>
      <point x="36" y="395"/>
      <point x="125" y="329"/>
      <point x="248" y="329" type="curve"/>
      <point x="248" y="-50" type="line" smooth="yes"/>
      <point x="248" y="-128"/>
      <point x="241" y="-138"/>
      <point x="187" y="-138" type="curve" smooth="yes"/>
      <point x="158" y="-138" type="line"/>
    </contour>
  </outline>
</glyph>
<glyph name="onesuperior" format="2">
  <advance width="411"/>
  <unicode hex="00B9"/>
  <outline>
    <contour>
      <point x="77" y="355" type="line"/>
      <point x="349" y="355" type="line"/>
      <point x="349" y="389" type="line"/>
      <point x="264" y="389"/>
      <point x="263" y="394"/>
      <point x="263" y="434" type="curve" smooth="yes"/>
      <point x="263" y="785" type="line"/>
      <point x="201" y="759"/>
      <point x="141" y="743"/>
      <point x="72" y="732" type="curve"/>
      <point x="72" y="701" type="line"/>
      <point x="155" y="701"/>
      <point x="164" y="692"/>
      <point x="164" y="652" type="curve" smooth="yes"/>
      <point x="164" y="434" type="line" smooth="yes"/>
      <point x="164" y="394"/>
      <point x="162" y="389"/>
      <point x="77" y="389" type="curve"/>
    </contour>
  </outline>
</glyph>
<glyph name="ordmasculine" format="2">
  <advance width="392"/>
  <unicode hex="00BA"/>
  <outline>
    <contour>
      <point x="195" y="398" type="curve" smooth="yes"/>
      <point x="292" y="398"/>
      <point x="356" y="472"/>
      <point x="356" y="552" type="curve" smooth="yes"/>
      <point x="356" y="641"/>
      <point x="277" y="703"/>
      <point x="196" y="703" type="curve" smooth="yes"/>
      <point x="116" y="703"/>
      <point x="36" y="642"/>
      <point x="36" y="553" type="curve" smooth="yes"/>
      <point x="36" y="475"/>
      <point x="96" y="398"/>
    </contour>
    <contour>
      <point x="196" y="434" type="curve" smooth="yes"/>
      <point x="159" y="434"/>
      <point x="138" y="475"/>
      <point x="138" y="550" type="curve" smooth="yes"/>
      <point x="138" y="625"/>
      <point x="159" y="667"/>
      <point x="196" y="667" type="curve" smooth="yes"/>
      <point x="235" y="667"/>
      <point x="253" y="622"/>
      <point x="253" y="550" type="curve" smooth="yes"/>
      <point x="253" y="476"/>
      <point x="234" y="434"/>
    </contour>
  </outline>
</glyph>
<glyph name="questiondown" format="2">
  <advance width="470"/>
  <unicode hex="00BF"/>
  <outline>
    <contour>
      <point x="277" y="-258" type="curve" smooth="yes"/>
      <point x="347" y="-258"/>
      <point x="405" y="-228"/>
      <point x="405" y="-172" type="curve" smooth="yes"/>
      <point x="405" y="-131"/>
      <point x="375" y="-101"/>
      <point x="336" y="-101" type="curve" smooth="yes"/>
      <point x="265" y="-101"/>
      <point x="264" y="-203"/>
      <point x="215" y="-203" type="curve" smooth="yes"/>
      <point x="182" y="-203"/>
      <point x="157" y="-157"/>
      <point x="157" y="-95" type="curve" smooth="yes"/>
      <point x="157" y="-23"/>
      <point x="190" y="51"/>
      <point x="311" y="51" type="curve"/>
      <point x="311" y="255" type="line"/>
      <point x="265" y="255" type="line"/>
      <point x="265" y="176" type="line"/>
      <point x="137" y="176"/>
      <point x="43" y="93"/>
      <point x="43" y="-29" type="curve" smooth="yes"/>
      <point x="43" y="-155"/>
      <point x="146" y="-258"/>
    </contour>
    <contour>
      <point x="285" y="324" type="curve" smooth="yes"/>
      <point x="330" y="324"/>
      <point x="369" y="359"/>
      <point x="369" y="407" type="curve" smooth="yes"/>
      <point x="369" y="455"/>
      <point x="330" y="491"/>
      <point x="285" y="491" type="curve" smooth="yes"/>
      <point x="240" y="491"/>
      <point x="202" y="455"/>
      <point x="202" y="407" type="curve" smooth="yes"/>
      <point x="202" y="360"/>
      <point x="239" y="324"/>
    </contour>
  </outline>
</glyph>
<glyph name="AE" format="2">
  <advance width="1131"/>
  <unicode hex="00C6"/>
  <anchor x="714" y="813" name="top"/>
  <outline>
    <contour>
      <point x="-8" y="0" type="line"/>
      <point x="250" y="0" type="line"/>
      <point x="250" y="43" type="line"/>
      <point x="175" y="43"/>
      <point x="162" y="61"/>
      <point x="162" y="81" type="curve" smooth="yes"/>
      <point x="162" y="90"/>
      <point x="165" y="95"/>
      <point x="181" y="121" type="curve" smooth="yes"/>
      <point x="259" y="248" type="line"/>
      <point x="537" y="248" type="line"/>
      <point x="537" y="131" type="line" smooth="yes"/>
      <point x="537" y="65"/>
      <point x="535" y="46"/>
      <point x="443" y="43" type="curve"/>
      <point x="443" y="0" type="line"/>
      <point x="1037" y="0" type="line"/>
      <point x="1094" y="195" type="line"/>
      <point x="1055" y="217" type="line"/>
      <point x="990" y="129"/>
      <point x="902" y="46"/>
      <point x="765" y="46" type="curve" smooth="yes"/>
      <point x="701" y="46"/>
      <point x="693" y="64"/>
      <point x="693" y="152" type="curve" smooth="yes"/>
      <point x="693" y="343" type="line"/>
      <point x="804" y="343"/>
      <point x="861" y="324"/>
      <point x="872" y="217" type="curve"/>
      <point x="917" y="217" type="line"/>
      <point x="917" y="509" type="line"/>
      <point x="872" y="509" type="line"/>
      <point x="841" y="403"/>
      <point x="804" y="394"/>
      <point x="693" y="394" type="curve"/>
      <point x="693" y="585" type="line" smooth="yes"/>
      <point x="693" y="652"/>
      <point x="707" y="668"/>
      <point x="767" y="668" type="curve" smooth="yes"/>
      <point x="909" y="668"/>
      <point x="983" y="577"/>
      <point x="1037" y="502" type="curve"/>
      <point x="1076" y="524" type="line"/>
      <point x="1023" y="721" type="line"/>
      <point x="386" y="721" type="line"/>
      <point x="386" y="678" type="line"/>
      <point x="450" y="678"/>
      <point x="470" y="677"/>
      <point x="470" y="659" type="curve" smooth="yes"/>
      <point x="470" y="649"/>
      <point x="464" y="636"/>
      <point x="457" y="626" type="curve" smooth="yes"/>
      <point x="130" y="143" type="line" smooth="yes"/>
      <point x="98" y="96"/>
      <point x="52" y="49"/>
      <point x="-8" y="43" type="curve"/>
    </contour>
    <contour>
      <point x="294" y="299" type="line"/>
      <point x="537" y="663" type="line"/>
      <point x="537" y="299" type="line"/>
    </contour>
  </outline>
</glyph>
<glyph name="Ccedilla" format="2">
  <advance width="654"/>
  <unicode hex="00C7"/>
  <anchor x="325" y="-17" name="attachcedilla"/>
  <anchor x="349" y="813" name="top"/>
  <outline>
    <contour>
      <point x="317" y="-217" type="curve" smooth="yes"/>
      <point x="387" y="-217"/>
      <point x="440" y="-186"/>
      <point x="440" y="-132" type="curve" smooth="yes"/>
      <point x="440" y="-92"/>
      <point x="410" y="-63"/>
      <point x="370" y="-63" type="curve" smooth="yes"/>
      <point x="354" y="-63"/>
      <point x="337" y="-68"/>
      <point x="337" y="-68" type="curve"/>
      <point x="356" y="-13" type="line"/>
      <point x="469" y="-6"/>
      <point x="565" y="65"/>
      <point x="615" y="192" type="curve"/>
      <point x="576" y="209" type="line"/>
      <point x="543" y="128"/>
      <point x="470" y="63"/>
      <point x="375" y="63" type="curve" smooth="yes"/>
      <point x="264" y="63"/>
      <point x="151" y="152"/>
      <point x="151" y="377" type="curve" smooth="yes"/>
      <point x="151" y="574"/>
      <point x="238" y="692"/>
      <point x="351" y="692" type="curve" smooth="yes"/>
      <point x="451" y="692"/>
      <point x="542" y="600"/>
      <point x="575" y="524" type="curve"/>
      <point x="615" y="541" type="line"/>
      <point x="554" y="729" type="line"/>
      <point x="537" y="723"/>
      <point x="502" y="709"/>
      <point x="481" y="709" type="curve" smooth="yes"/>
      <point x="453" y="709"/>
      <point x="423" y="735"/>
      <point x="355" y="735" type="curve" smooth="yes"/>
      <point x="157" y="735"/>
      <point x="43" y="514"/>
      <point x="43" y="324" type="curve" smooth="yes"/>
      <point x="43" y="134"/>
      <point x="157" y="-5"/>
      <point x="324" y="-14" type="curve"/>
      <point x="292" y="-93" type="line"/>
      <point x="303" y="-99" type="line"/>
      <point x="309" y="-98"/>
      <point x="321" y="-96"/>
      <point x="331" y="-96" type="curve" smooth="yes"/>
      <point x="363" y="-96"/>
      <point x="372" y="-115"/>
      <point x="372" y="-134" type="curve" smooth="yes"/>
      <point x="372" y="-166"/>
      <point x="343" y="-183"/>
      <point x="312" y="-183" type="curve" smooth="yes"/>
      <point x="284" y="-183"/>
      <point x="257" y="-171"/>
      <point x="242" y="-164" type="curve"/>
      <point x="225" y="-197" type="line"/>
      <point x="249" y="-208"/>
      <point x="279" y="-217"/>
    </contour>
  </outline>
</glyph>
<glyph name="Oslash" format="2">
  <advance width="765"/>
  <unicode hex="00D8"/>
  <outline>
    <contour>
      <point x="202" y="-37" type="line"/>
      <point x="600" y="734" type="line"/>
      <point x="561" y="754" type="line"/>
      <point x="164" y="-15" type="line"/>
    </contour>
    <component base="O"/>
  </outline>
</glyph>
<glyph name="Thorn" format="2">
  <advance width="683"/>
  <unicode hex="00DE"/>
  <anchor x="347" y="813" name="top"/>
  <outline>
    <contour>
      <point x="36" y="0" type="line"/>
      <point x="370" y="0" type="line"/>
      <point x="370" y="43" type="line"/>
      <point x="282" y="46"/>
      <point x="280" y="65"/>
      <point x="280" y="131" type="curve" smooth="yes"/>
      <point x="280" y="170" type="line"/>
      <point x="389" y="170" type="line" smooth="yes"/>
      <point x="488" y="170"/>
      <point x="546" y="190"/>
      <point x="589" y="230" type="curve" smooth="yes"/>
      <point x="631" y="270"/>
      <point x="650" y="322"/>
      <point x="650" y="367" type="curve" smooth="yes"/>
      <point x="650" y="427"/>
      <point x="617" y="508"/>
      <point x="523" y="543" type="curve" smooth="yes"/>
      <point x="471" y="562"/>
      <point x="413" y="562"/>
      <point x="336" y="562" type="curve" smooth="yes"/>
      <point x="280" y="562" type="line"/>
      <point x="280" y="599" type="line" smooth="yes"/>
      <point x="280" y="665"/>
      <point x="283" y="675"/>
      <point x="370" y="678" type="curve"/>
      <point x="370" y="721" type="line"/>
      <point x="36" y="721" type="line"/>
      <point x="36" y="678" type="line"/>
      <point x="122" y="675"/>
      <point x="125" y="665"/>
      <point x="125" y="599" type="curve" smooth="yes"/>
      <point x="125" y="131" type="line" smooth="yes"/>
      <point x="125" y="65"/>
      <point x="123" y="46"/>
      <point x="36" y="43" type="curve"/>
    </contour>
    <contour>
      <point x="280" y="217" type="line"/>
      <point x="280" y="432" type="line" smooth="yes"/>
      <point x="280" y="496"/>
      <point x="294" y="520"/>
      <point x="360" y="520" type="curve" smooth="yes"/>
      <point x="461" y="520"/>
      <point x="484" y="463"/>
      <point x="484" y="374" type="curve" smooth="yes"/>
      <point x="484" y="245"/>
      <point x="435" y="217"/>
      <point x="338" y="217" type="curve" smooth="yes"/>
    </contour>
  </outline>
</glyph>
<glyph name="germandbls" format="2">
  <advance width="662"/>
  <unicode hex="00DF"/>
  <outline>
    <contour>
      <point x="439" y="-14" type="curve" smooth="yes"/>
      <point x="572" y="-14"/>
      <point x="634" y="85"/>
      <point x="634" y="181" type="curve" smooth="yes"/>
      <point x="634" y="342"/>
      <point x="462" y="375"/>
      <point x="462" y="398" type="curve" smooth="yes"/>
      <point x="462" y="417"/>
      <point x="577" y="479"/>
      <point x="577" y="576" type="curve" smooth="yes"/>
      <point x="577" y="664"/>
      <point x="484" y="735"/>
      <point x="339" y="735" type="curve" smooth="yes"/>
      <point x="162" y="735"/>
      <point x="104" y="628"/>
      <point x="104" y="476" type="curve" smooth="yes"/>
      <point x="104" y="103" type="line" smooth="yes"/>
      <point x="104" y="57"/>
      <point x="88" y="40"/>
      <point x="25" y="40" type="curve"/>
      <point x="25" y="0" type="line"/>
      <point x="234" y="0" type="line"/>
      <point x="234" y="476" type="line" smooth="yes"/>
      <point x="234" y="625"/>
      <point x="252" y="698"/>
      <point x="340" y="698" type="curve" smooth="yes"/>
      <point x="409" y="698"/>
      <point x="448" y="653"/>
      <point x="448" y="577" type="curve" smooth="yes"/>
      <point x="448" y="448"/>
      <point x="335" y="429"/>
      <point x="335" y="383" type="curve" smooth="yes"/>
      <point x="335" y="327"/>
      <point x="503" y="314"/>
      <point x="503" y="133" type="curve" smooth="yes"/>
      <point x="503" y="69"/>
      <point x="482" y="28"/>
      <point x="447" y="28" type="curve" smooth="yes"/>
      <point x="419" y="28"/>
      <point x="403" y="55"/>
      <point x="403" y="82" type="curve" smooth="yes"/>
      <point x="403" y="109"/>
      <point x="386" y="135"/>
      <point x="349" y="135" type="curve" smooth="yes"/>
      <point x="312" y="135"/>
      <point x="288" y="109"/>
      <point x="288" y="81" type="curve" smooth="yes"/>
      <point x="288" y="37"/>
      <point x="344" y="-14"/>
    </contour>
  </outline>
</glyph>
<glyph name="ae" format="2">
  <advance width="849"/>
  <unicode hex="00E6"/>
  <anchor x="448" y="558" name="top"/>
  <outline>
    <contour>
      <point x="595" y="-15" type="curve" smooth="yes"/>
      <point x="726" y="-15"/>
      <point x="789" y="68"/>
      <point x="822" y="114" type="curve"/>
      <point x="787" y="138" type="line"/>
      <point x="746" y="86"/>
      <point x="695" y="57"/>
      <point x="640" y="57" type="curve" smooth="yes"/>
      <point x="534" y="57"/>
      <point x="480" y="162"/>
      <point x="480" y="251" type="curve"/>
      <point x="809" y="251" type="line"/>
      <point x="809" y="424"/>
      <point x="698" y="490"/>
      <point x="585" y="490" type="curve" smooth="yes"/>
      <point x="521" y="490"/>
      <point x="482" y="469"/>
      <point x="444" y="444" type="curve"/>
      <point x="419" y="470"/>
      <point x="372" y="490"/>
      <point x="286" y="490" type="curve" smooth="yes"/>
      <point x="150" y="490"/>
      <point x="69" y="440"/>
      <point x="69" y="379" type="curve" smooth="yes"/>
      <point x="69" y="343"/>
      <point x="96" y="311"/>
      <point x="135" y="311" type="curve" smooth="yes"/>
      <point x="215" y="311"/>
      <point x="202" y="441"/>
      <point x="281" y="441" type="curve" smooth="yes"/>
      <point x="320" y="441"/>
      <point x="338" y="409"/>
      <point x="338" y="366" type="curve" smooth="yes"/>
      <point x="338" y="346"/>
      <point x="338" y="332"/>
      <point x="336" y="312" type="curve"/>
      <point x="145" y="280"/>
      <point x="36" y="213"/>
      <point x="36" y="118" type="curve" smooth="yes"/>
      <point x="36" y="55"/>
      <point x="85" y="-14"/>
      <point x="178" y="-14" type="curve" smooth="yes"/>
      <point x="268" y="-14"/>
      <point x="341" y="51"/>
      <point x="384" y="86" type="curve"/>
      <point x="428" y="27"/>
      <point x="501" y="-15"/>
    </contour>
    <contour>
      <point x="243" y="61" type="curve" smooth="yes"/>
      <point x="190" y="61"/>
      <point x="184" y="106"/>
      <point x="184" y="133" type="curve" smooth="yes"/>
      <point x="184" y="192"/>
      <point x="212" y="233"/>
      <point x="336" y="263" type="curve"/>
      <point x="336" y="203"/>
      <point x="344" y="165"/>
      <point x="359" y="128" type="curve"/>
      <point x="331" y="95"/>
      <point x="289" y="61"/>
    </contour>
    <contour>
      <point x="482" y="304" type="line"/>
      <point x="482" y="338"/>
      <point x="492" y="452"/>
      <point x="591" y="452" type="curve" smooth="yes"/>
      <point x="600" y="452"/>
      <point x="622" y="451"/>
      <point x="646" y="428" type="curve" smooth="yes"/>
      <point x="665" y="410"/>
      <point x="680" y="383"/>
      <point x="680" y="304" type="curve"/>
    </contour>
  </outline>
</glyph>
<glyph name="eth" format="2">
  <advance width="569"/>
  <unicode hex="00F0"/>
  <outline>
    <contour>
      <point x="283" y="-14" type="curve" smooth="yes"/>
      <point x="429" y="-14"/>
      <point x="532" y="111"/>
      <point x="532" y="293" type="curve" smooth="yes"/>
      <point x="532" y="459"/>
      <point x="446" y="579"/>
      <point x="370" y="652" type="curve"/>
      <point x="524" y="736" type="line"/>
      <point x="499" y="776" type="line"/>
      <point x="332" y="684" type="line"/>
      <point x="295" y="716"/>
      <point x="213" y="762"/>
      <point x="160" y="778" type="curve"/>
      <point x="135" y="739" type="line"/>
      <point x="172" y="716"/>
      <point x="224" y="688"/>
      <point x="257" y="644" type="curve"/>
      <point x="97" y="558" type="line"/>
      <point x="118" y="516" type="line"/>
      <point x="291" y="609" type="line"/>
      <point x="307" y="586"/>
      <point x="341" y="532"/>
      <point x="361" y="479" type="curve"/>
      <point x="333" y="486"/>
      <point x="313" y="490"/>
      <point x="286" y="490" type="curve" smooth="yes"/>
      <point x="147" y="490"/>
      <point x="36" y="381"/>
      <point x="36" y="238" type="curve" smooth="yes"/>
      <point x="36" y="97"/>
      <point x="145" y="-14"/>
    </contour>
    <contour>
      <point x="287" y="35" type="curve" smooth="yes"/>
      <point x="216" y="35"/>
      <point x="187" y="96"/>
      <point x="187" y="235" type="curve" smooth="yes"/>
      <point x="187" y="421"/>
      <point x="239" y="441"/>
      <point x="284" y="441" type="curve" smooth="yes"/>
      <point x="346" y="441"/>
      <point x="381" y="403"/>
      <point x="381" y="239" type="curve" smooth="yes"/>
      <point x="381" y="80"/>
      <point x="348" y="35"/>
    </contour>
  </outline>
</glyph>
<glyph name="divide" format="2">
  <advance width="601"/>
  <unicode hex="00F7"/>
  <note>
divide
</note>
  <outline>
    <contour>
      <point x="62" y="203" type="line"/>
      <point x="539" y="203" type="line"/>
      <point x="539" y="275" type="line"/>
      <point x="62" y="275" type="line"/>
    </contour>
    <contour>
      <point x="301" y="-16" type="curve" smooth="yes"/>
      <point x="339" y="-16"/>
      <point x="372" y="16"/>
      <point x="372" y="55" type="curve" smooth="yes"/>
      <point x="372" y="94"/>
      <point x="339" y="126"/>
      <point x="301" y="126" type="curve" smooth="yes"/>
      <point x="262" y="126"/>
      <point x="229" y="94"/>
      <point x="229" y="55" type="curve" smooth="yes"/>
      <point x="229" y="16"/>
      <point x="262" y="-16"/>
    </contour>
    <contour>
      <point x="301" y="351" type="curve" smooth="yes"/>
      <point x="339" y="351"/>
      <point x="372" y="384"/>
      <point x="372" y="423" type="curve" smooth="yes"/>
      <point x="372" y="462"/>
      <point x="339" y="494"/>
      <point x="301" y="494" type="curve" smooth="yes"/>
      <point x="262" y="494"/>
      <point x="229" y="462"/>
      <point x="229" y="423" type="curve" smooth="yes"/>
      <point x="229" y="384"/>
      <point x="262" y="351"/>
    </contour>
  </outline>
</glyph>
<glyph name="oslash" format="2">
  <advance width="569"/>
  <unicode hex="00F8"/>
  <outline>
    <contour>
      <point x="154" y="-53" type="line"/>
      <point x="448" y="509" type="line"/>
      <point x="412" y="526" type="line"/>
      <point x="120" y="-34" type="line"/>
    </contour>
    <component base="o"/>
  </outline>
</glyph>
<glyph name="thorn" format="2">
  <advance width="588"/>
  <unicode hex="00FE"/>
  <outline>
    <contour>
      <point x="38" y="-184" type="line"/>
      <point x="304" y="-184" type="line"/>
      <point x="304" y="-144" type="line"/>
      <point x="240" y="-144"/>
      <point x="236" y="-126"/>
      <point x="236" y="-81" type="curve" smooth="yes"/>
      <point x="236" y="38" type="line"/>
      <point x="263" y="8"/>
      <point x="304" y="-14"/>
      <point x="352" y="-14" type="curve" smooth="yes"/>
      <point x="456" y="-14"/>
      <point x="552" y="92"/>
      <point x="552" y="244" type="curve" smooth="yes"/>
      <point x="552" y="375"/>
      <point x="481" y="483"/>
      <point x="360" y="483" type="curve" smooth="yes"/>
      <point x="303" y="483"/>
      <point x="268" y="459"/>
      <point x="236" y="419" type="curve"/>
      <point x="236" y="735" type="line"/>
      <point x="34" y="679" type="line"/>
      <point x="34" y="641" type="line"/>
      <point x="92" y="637"/>
      <point x="106" y="627"/>
      <point x="106" y="565" type="curve" smooth="yes"/>
      <point x="106" y="-81" type="line" smooth="yes"/>
      <point x="106" y="-126"/>
      <point x="101" y="-144"/>
      <point x="38" y="-144" type="curve"/>
    </contour>
    <contour>
      <point x="314" y="50" type="curve" smooth="yes"/>
      <point x="280" y="50"/>
      <point x="252" y="72"/>
      <point x="236" y="84" type="curve"/>
      <point x="236" y="365" type="line"/>
      <point x="254" y="395"/>
      <point x="281" y="418"/>
      <point x="319" y="418" type="curve" smooth="yes"/>
      <point x="366" y="418"/>
      <point x="408" y="384"/>
      <point x="408" y="246" type="curve" smooth="yes"/>
      <point x="408" y="151"/>
      <point x="388" y="50"/>
    </contour>
  </outline>
</glyph>
<glyph name="Dcroat" format="2">
  <advance width="779"/>
  <unicode hex="0110"/>
  <outline>
    <contour>
      <point x="36" y="349" type="line"/>
      <point x="446" y="349" type="line"/>
      <point x="446" y="392" type="line"/>
      <point x="36" y="392" type="line"/>
    </contour>
    <component base="D"/>
  </outline>
</glyph>
<glyph name="dcroat" format="2">
  <advance width="566"/>
  <unicode hex="0111"/>
  <outline>
    <contour>
      <point x="244" y="519" type="line"/>
      <point x="543" y="519" type="line"/>
      <point x="543" y="559" type="line"/>
      <point x="244" y="559" type="line"/>
    </contour>
    <component base="d"/>
  </outline>
</glyph>
<glyph name="eogonek" format="2">
  <advance width="548"/>
  <unicode hex="0119"/>
  <outline>
    <contour>
      <point x="393" y="-212" type="curve" smooth="yes"/>
      <point x="433" y="-212"/>
      <point x="463" y="-199"/>
      <point x="485" y="-183" type="curve"/>
      <point x="474" y="-162" type="line"/>
      <point x="462" y="-168"/>
      <point x="450" y="-171"/>
      <point x="434" y="-171" type="curve" smooth="yes"/>
      <point x="373" y="-171"/>
      <point x="348" y="-130"/>
      <point x="348" y="-91" type="curve" smooth="yes"/>
      <point x="348" y="-35"/>
      <point x="400" y="1"/>
      <point x="423" y="19" type="curve"/>
      <point x="362" y="0" type="line"/>
      <point x="310" y="-27"/>
      <point x="279" y="-64"/>
      <point x="279" y="-113" type="curve" smooth="yes"/>
      <point x="279" y="-170"/>
      <point x="320" y="-212"/>
    </contour>
    <component base="e"/>
  </outline>
</glyph>
<glyph name="Hbar" format="2">
  <advance width="805"/>
  <unicode hex="0126"/>
  <outline>
    <contour>
      <point x="36" y="514" type="line"/>
      <point x="769" y="514" type="line"/>
      <point x="769" y="557" type="line"/>
      <point x="36" y="557" type="line"/>
    </contour>
    <component base="H"/>
  </outline>
</glyph>
<glyph name="hbar" format="2">
  <advance width="626"/>
  <unicode hex="0127"/>
  <outline>
    <contour>
      <point x="30" y="519" type="line"/>
      <point x="369" y="519" type="line"/>
      <point x="369" y="559" type="line"/>
      <point x="30" y="559" type="line"/>
    </contour>
    <component base="h"/>
  </outline>
</glyph>
<glyph name="idotless" format="2">
  <advance width="317"/>
  <unicode hex="0131"/>
  <anchor x="157" y="0" name="dotbelow"/>
  <anchor x="162" y="0" name="ogonek"/>
  <anchor x="160" y="558" name="top"/>
  <anchor x="165" y="558" name="top_dot"/>
  <outline>
    <contour>
      <point x="38" y="0" type="line"/>
      <point x="297" y="0" type="line"/>
      <point x="297" y="40" type="line"/>
      <point x="240" y="40"/>
      <point x="236" y="57"/>
      <point x="236" y="103" type="curve" smooth="yes"/>
      <point x="236" y="490" type="line"/>
      <point x="34" y="434" type="line"/>
      <point x="34" y="396" type="line"/>
      <point x="92" y="391"/>
      <point x="106" y="382"/>
      <point x="106" y="320" type="curve" smooth="yes"/>
      <point x="106" y="103" type="line" smooth="yes"/>
      <point x="106" y="57"/>
      <point x="101" y="40"/>
      <point x="38" y="40" type="curve"/>
    </contour>
  </outline>
</glyph>
<glyph name="Lslash" format="2">
  <advance width="658"/>
  <unicode hex="0141"/>
  <anchor x="523" y="735" name="caroncombalt"/>
  <anchor x="328" y="0" name="commaaccentbelow"/>
  <anchor x="318" y="0" name="dotbelow"/>
  <anchor x="441" y="293" name="ldot"/>
  <anchor x="203" y="813" name="top"/>
  <outline>
    <contour>
      <point x="36" y="0" type="line"/>
      <point x="606" y="0" type="line"/>
      <point x="665" y="194" type="line"/>
      <point x="631" y="214" type="line"/>
      <point x="550" y="117"/>
      <point x="466" y="43"/>
      <point x="352" y="43" type="curve" smooth="yes"/>
      <point x="280" y="43"/>
      <point x="280" y="72"/>
      <point x="280" y="131" type="curve" smooth="yes"/>
      <point x="280" y="369" type="line"/>
      <point x="481" y="499" type="line"/>
      <point x="457" y="535" type="line"/>
      <point x="280" y="419" type="line"/>
      <point x="280" y="599" type="line" smooth="yes"/>
      <point x="280" y="665"/>
      <point x="294" y="675"/>
      <point x="381" y="678" type="curve"/>
      <point x="381" y="721" type="line"/>
      <point x="36" y="721" type="line"/>
      <point x="36" y="678" type="line"/>
      <point x="122" y="675"/>
      <point x="125" y="665"/>
      <point x="125" y="599" type="curve" smooth="yes"/>
      <point x="125" y="334" type="line"/>
      <point x="25" y="268" type="line"/>
      <point x="48" y="232" type="line"/>
      <point x="125" y="282" type="line"/>
      <point x="125" y="131" type="line" smooth="yes"/>
      <point x="125" y="65"/>
      <point x="123" y="46"/>
      <point x="36" y="43" type="curve"/>
    </contour>
  </outline>
</glyph>
<glyph name="lslash" format="2">
  <advance width="317"/>
  <unicode hex="0142"/>
  <anchor x="157" y="813" name="top"/>
  <outline>
    <contour>
      <point x="35" y="0" type="line"/>
      <point x="294" y="0" type="line"/>
      <point x="294" y="40" type="line"/>
      <point x="237" y="40"/>
      <point x="232" y="57"/>
      <point x="232" y="103" type="curve" smooth="yes"/>
      <point x="232" y="381" type="line"/>
      <point x="311" y="432" type="line"/>
      <point x="290" y="466" type="line"/>
      <point x="232" y="428" type="line"/>
      <point x="232" y="735" type="line"/>
      <point x="30" y="674" type="line"/>
      <point x="30" y="636" type="line"/>
      <point x="89" y="631"/>
      <point x="103" y="622"/>
      <point x="103" y="560" type="curve" smooth="yes"/>
      <point x="103" y="358" type="line"/>
      <point x="27" y="309" type="line"/>
      <point x="49" y="276" type="line"/>
      <point x="103" y="311" type="line"/>
      <point x="103" y="103" type="line" smooth="yes"/>
      <point x="103" y="57"/>
      <point x="97" y="40"/>
      <point x="35" y="40" type="curve"/>
    </contour>
  </outline>
</glyph>
<glyph name="OE" format="2">
  <advance width="1049"/>
  <unicode hex="0152"/>
  <anchor x="568" y="813" name="top"/>
  <outline>
    <contour>
      <point x="394" y="0" type="curve" smooth="yes"/>
      <point x="956" y="0" type="line"/>
      <point x="1012" y="190" type="line"/>
      <point x="977" y="212" type="line"/>
      <point x="916" y="128"/>
      <point x="842" y="46"/>
      <point x="710" y="46" type="curve" smooth="yes"/>
      <point x="635" y="46"/>
      <point x="635" y="73"/>
      <point x="635" y="152" type="curve" smooth="yes"/>
      <point x="635" y="343" type="line"/>
      <point x="746" y="343"/>
      <point x="802" y="324"/>
      <point x="814" y="217" type="curve"/>
      <point x="858" y="217" type="line"/>
      <point x="858" y="509" type="line"/>
      <point x="814" y="509" type="line"/>
      <point x="783" y="403"/>
      <point x="746" y="394"/>
      <point x="635" y="394" type="curve"/>
      <point x="635" y="585" type="line" smooth="yes"/>
      <point x="635" y="653"/>
      <point x="649" y="668"/>
      <point x="709" y="668" type="curve" smooth="yes"/>
      <point x="846" y="668"/>
      <point x="906" y="590"/>
      <point x="962" y="508" type="curve"/>
      <point x="999" y="531" type="line"/>
      <point x="945" y="721" type="line"/>
      <point x="423" y="721" type="line" smooth="yes"/>
      <point x="299" y="721"/>
      <point x="237" y="700"/>
      <point x="181" y="657" type="curve" smooth="yes"/>
      <point x="67" y="569"/>
      <point x="43" y="442"/>
      <point x="43" y="352" type="curve" smooth="yes"/>
      <point x="43" y="256"/>
      <point x="70" y="187"/>
      <point x="122" y="120" type="curve" smooth="yes"/>
      <point x="178" y="48"/>
      <point x="246" y="0"/>
    </contour>
    <contour>
      <point x="364" y="44" type="curve" smooth="yes"/>
      <point x="237" y="44"/>
      <point x="204" y="134"/>
      <point x="204" y="348" type="curve" smooth="yes"/>
      <point x="204" y="643"/>
      <point x="267" y="671"/>
      <point x="366" y="671" type="curve" smooth="yes"/>
      <point x="434" y="671"/>
      <point x="485" y="658"/>
      <point x="485" y="556" type="curve" smooth="yes"/>
      <point x="485" y="185" type="line" smooth="yes"/>
      <point x="485" y="127"/>
      <point x="485" y="44"/>
    </contour>
  </outline>
</glyph>
<glyph name="oe" format="2">
  <advance width="888"/>
  <unicode hex="0153"/>
  <anchor x="454" y="558" name="top"/>
  <outline>
    <contour>
      <point x="284" y="-14" type="curve" smooth="yes"/>
      <point x="363" y="-14"/>
      <point x="420" y="19"/>
      <point x="453" y="57" type="curve"/>
      <point x="491" y="19"/>
      <point x="541" y="-14"/>
      <point x="628" y="-14" type="curve" smooth="yes"/>
      <point x="760" y="-14"/>
      <point x="831" y="61"/>
      <point x="861" y="110" type="curve"/>
      <point x="828" y="135" type="line"/>
      <point x="787" y="83"/>
      <point x="739" y="58"/>
      <point x="685" y="58" type="curve" smooth="yes"/>
      <point x="577" y="58"/>
      <point x="524" y="161"/>
      <point x="524" y="249" type="curve"/>
      <point x="854" y="249" type="line"/>
      <point x="854" y="421"/>
      <point x="736" y="490"/>
      <point x="629" y="490" type="curve" smooth="yes"/>
      <point x="552" y="490"/>
      <point x="495" y="454"/>
      <point x="457" y="416" type="curve"/>
      <point x="422" y="454"/>
      <point x="361" y="490"/>
      <point x="282" y="490" type="curve" smooth="yes"/>
      <point x="144" y="490"/>
      <point x="36" y="378"/>
      <point x="36" y="236" type="curve" smooth="yes"/>
      <point x="36" y="98"/>
      <point x="139" y="-14"/>
    </contour>
    <contour>
      <point x="280" y="28" type="curve" smooth="yes"/>
      <point x="207" y="28"/>
      <point x="181" y="96"/>
      <point x="181" y="234" type="curve" smooth="yes"/>
      <point x="181" y="422"/>
      <point x="229" y="448"/>
      <point x="278" y="448" type="curve" smooth="yes"/>
      <point x="340" y="448"/>
      <point x="381" y="405"/>
      <point x="381" y="238" type="curve" smooth="yes"/>
      <point x="381" y="79"/>
      <point x="344" y="28"/>
    </contour>
    <contour>
      <point x="525" y="302" type="line"/>
      <point x="525" y="340"/>
      <point x="534" y="450"/>
      <point x="635" y="450" type="curve" smooth="yes"/>
      <point x="645" y="450"/>
      <point x="663" y="449"/>
      <point x="685" y="428" type="curve" smooth="yes"/>
      <point x="707" y="407"/>
      <point x="722" y="374"/>
      <point x="722" y="302" type="curve"/>
    </contour>
  </outline>
</glyph>
<glyph name="Uogonek" format="2">
  <advance width="751"/>
  <unicode hex="0172"/>
  <outline>
    <contour>
      <point x="508" y="-212" type="curve" smooth="yes"/>
      <point x="548" y="-212"/>
      <point x="578" y="-199"/>
      <point x="601" y="-183" type="curve"/>
      <point x="589" y="-162" type="line"/>
      <point x="577" y="-168"/>
      <point x="565" y="-171"/>
      <point x="549" y="-171" type="curve" smooth="yes"/>
      <point x="489" y="-171"/>
      <point x="464" y="-130"/>
      <point x="464" y="-91" type="curve" smooth="yes"/>
      <point x="464" y="-39"/>
      <point x="509" y="-6"/>
      <point x="532" y="12" type="curve"/>
      <point x="478" y="0" type="line"/>
      <point x="426" y="-27"/>
      <point x="395" y="-64"/>
      <point x="395" y="-113" type="curve" smooth="yes"/>
      <point x="395" y="-169"/>
      <point x="435" y="-212"/>
    </contour>
    <component base="U"/>
  </outline>
</glyph>
<glyph name="uogonek" format="2">
  <advance width="632"/>
  <unicode hex="0173"/>
  <anchor x="472" y="368" name="attachhorn"/>
  <anchor x="312" y="0" name="dotbelow"/>
  <anchor x="435" y="0" name="ogonek"/>
  <anchor x="315" y="558" name="top"/>
  <outline>
    <contour>
      <point x="465" y="-212" type="curve" smooth="yes"/>
      <point x="505" y="-212"/>
      <point x="535" y="-199"/>
      <point x="558" y="-183" type="curve"/>
      <point x="546" y="-162" type="line"/>
      <point x="534" y="-168"/>
      <point x="522" y="-171"/>
      <point x="507" y="-171" type="curve" smooth="yes"/>
      <point x="445" y="-171"/>
      <point x="421" y="-130"/>
      <point x="421" y="-90" type="curve" smooth="yes"/>
      <point x="421" y="-50"/>
      <point x="445" y="-24"/>
      <point x="468" y="-5" type="curve"/>
      <point x="516" y="-2"/>
      <point x="563" y="0"/>
      <point x="615" y="1" type="curve"/>
      <point x="615" y="41" type="line"/>
      <point x="554" y="41"/>
      <point x="547" y="54"/>
      <point x="547" y="130" type="curve" smooth="yes"/>
      <point x="547" y="490" type="line"/>
      <point x="349" y="434" type="line"/>
      <point x="349" y="395" type="line"/>
      <point x="408" y="390"/>
      <point x="417" y="372"/>
      <point x="417" y="310" type="curve" smooth="yes"/>
      <point x="417" y="108" type="line"/>
      <point x="393" y="85"/>
      <point x="356" y="65"/>
      <point x="310" y="65" type="curve" smooth="yes"/>
      <point x="231" y="65"/>
      <point x="231" y="125"/>
      <point x="231" y="165" type="curve" smooth="yes"/>
      <point x="231" y="490" type="line"/>
      <point x="34" y="434" type="line"/>
      <point x="34" y="395" type="line"/>
      <point x="92" y="390"/>
      <point x="102" y="372"/>
      <point x="102" y="310" type="curve" smooth="yes"/>
      <point x="102" y="165" type="line" smooth="yes"/>
      <point x="102" y="36"/>
      <point x="154" y="-14"/>
      <point x="244" y="-14" type="curve" smooth="yes"/>
      <point x="322" y="-14"/>
      <point x="377" y="24"/>
      <point x="417" y="61" type="curve"/>
      <point x="417" y="-10" type="line"/>
      <point x="376" y="-36"/>
      <point x="351" y="-70"/>
      <point x="351" y="-114" type="curve" smooth="yes"/>
      <point x="351" y="-168"/>
      <point x="390" y="-212"/>
    </contour>
  </outline>
</glyph>
<glyph name="florin" format="2">
  <advance width="623"/>
  <unicode hex="0192"/>
  <outline>
    <contour>
      <point x="82" y="-144" type="curve" smooth="yes"/>
      <point x="109" y="-144"/>
      <point x="171" y="-139"/>
      <point x="238" y="-69" type="curve" smooth="yes"/>
      <point x="278" y="-27"/>
      <point x="311" y="30"/>
      <point x="332" y="153" type="curve" smooth="yes"/>
      <point x="379" y="426" type="line"/>
      <point x="490" y="426" type="line"/>
      <point x="498" y="476" type="line"/>
      <point x="388" y="476" type="line"/>
      <point x="415" y="611"/>
      <point x="417" y="696"/>
      <point x="444" y="696" type="curve" smooth="yes"/>
      <point x="469" y="696"/>
      <point x="458" y="626"/>
      <point x="519" y="626" type="curve" smooth="yes"/>
      <point x="562" y="626"/>
      <point x="594" y="662"/>
      <point x="594" y="697" type="curve" smooth="yes"/>
      <point x="594" y="738"/>
      <point x="551" y="760"/>
      <point x="499" y="760" type="curve" smooth="yes"/>
      <point x="432" y="760"/>
      <point x="378" y="723"/>
      <point x="341" y="683" type="curve" smooth="yes"/>
      <point x="300" y="639"/>
      <point x="266" y="575"/>
      <point x="252" y="476" type="curve"/>
      <point x="171" y="476" type="line"/>
      <point x="162" y="426" type="line"/>
      <point x="243" y="426" type="line"/>
      <point x="186" y="97" type="line" smooth="yes"/>
      <point x="174" y="29"/>
      <point x="160" y="-80"/>
      <point x="136" y="-80" type="curve" smooth="yes"/>
      <point x="116" y="-80"/>
      <point x="118" y="-10"/>
      <point x="61" y="-10" type="curve" smooth="yes"/>
      <point x="21" y="-10"/>
      <point x="-13" y="-44"/>
      <point x="-13" y="-83" type="curve" smooth="yes"/>
      <point x="-13" y="-130"/>
      <point x="37" y="-144"/>
    </contour>
  </outline>
</glyph>
<glyph name="Uhorn" format="2">
  <advance width="916"/>
  <unicode hex="01AF"/>
  <outline>
    <contour>
      <point x="629" y="464" type="line"/>
      <point x="875" y="598"/>
      <point x="937" y="682"/>
      <point x="937" y="771" type="curve" smooth="yes"/>
      <point x="937" y="839"/>
      <point x="901" y="881"/>
      <point x="848" y="881" type="curve" smooth="yes"/>
      <point x="798" y="881"/>
      <point x="766" y="843"/>
      <point x="766" y="796" type="curve" smooth="yes"/>
      <point x="766" y="724"/>
      <point x="841" y="733"/>
      <point x="841" y="692" type="curve" smooth="yes"/>
      <point x="841" y="656"/>
      <point x="786" y="608"/>
      <point x="629" y="520" type="curve"/>
    </contour>
    <component base="U"/>
  </outline>
</glyph>
<glyph name="uhorn" format="2">
  <advance width="762"/>
  <unicode hex="01B0"/>
  <outline>
    <contour>
      <point x="526" y="284" type="line"/>
      <point x="700" y="354"/>
      <point x="781" y="457"/>
      <point x="781" y="550" type="curve" smooth="yes"/>
      <point x="781" y="610"/>
      <point x="747" y="656"/>
      <point x="691" y="656" type="curve" smooth="yes"/>
      <point x="641" y="656"/>
      <point x="610" y="618"/>
      <point x="610" y="571" type="curve" smooth="yes"/>
      <point x="610" y="499"/>
      <point x="684" y="505"/>
      <point x="684" y="468" type="curve" smooth="yes"/>
      <point x="684" y="432"/>
      <point x="612" y="370"/>
      <point x="526" y="336" type="curve"/>
    </contour>
    <component base="u"/>
  </outline>
</glyph>
<glyph name="jdotless" format="2">
  <advance width="310"/>
  <unicode hex="0237"/>
  <anchor x="159" y="558" name="top"/>
  <anchor x="159" y="558" name="top_dot"/>
  <outline>
    <contour>
      <point x="40" y="-187" type="curve" smooth="yes"/>
      <point x="109" y="-187"/>
      <point x="177" y="-135"/>
      <point x="209" y="-67" type="curve" smooth="yes"/>
      <point x="233" y="-16"/>
      <point x="235" y="40"/>
      <point x="235" y="92" type="curve" smooth="yes"/>
      <point x="235" y="490" type="line"/>
      <point x="32" y="434" type="line"/>
      <point x="32" y="396" type="line"/>
      <point x="91" y="391"/>
      <point x="105" y="382"/>
      <point x="105" y="320" type="curve" smooth="yes"/>
      <point x="105" y="5" type="line" smooth="yes"/>
      <point x="105" y="-107"/>
      <point x="105" y="-119"/>
      <point x="94" y="-119" type="curve" smooth="yes"/>
      <point x="68" y="-119"/>
      <point x="75" y="-53"/>
      <point x="19" y="-53" type="curve" smooth="yes"/>
      <point x="-17" y="-53"/>
      <point x="-46" y="-81"/>
      <point x="-46" y="-117" type="curve" smooth="yes"/>
      <point x="-46" y="-157"/>
      <point x="-12" y="-187"/>
    </contour>
  </outline>
</glyph>
<glyph name="Bstroke" format="2">
  <advance width="726"/>
  <unicode hex="0243"/>
  <outline>
    <contour>
      <point x="36" y="198" type="line"/>
      <point x="446" y="198" type="line"/>
      <point x="446" y="241" type="line"/>
      <point x="36" y="241" type="line"/>
    </contour>
    <component base="B"/>
  </outline>
</glyph>
<glyph name="schwa" format="2">
  <advance width="548"/>
  <unicode hex="0259"/>
  <anchor x="278" y="0" name="dotbelow"/>
  <anchor x="288" y="558" name="top"/>
  <outline>
    <contour>
      <point x="269" y="-14" type="curve" smooth="yes"/>
      <point x="390" y="-14"/>
      <point x="521" y="84"/>
      <point x="521" y="245" type="curve" smooth="yes"/>
      <point x="521" y="382"/>
      <point x="425" y="490"/>
      <point x="268" y="490" type="curve" smooth="yes"/>
      <point x="135" y="490"/>
      <point x="68" y="412"/>
      <point x="36" y="366" type="curve"/>
      <point x="70" y="341" type="line"/>
      <point x="111" y="392"/>
      <point x="160" y="417"/>
      <point x="214" y="417" type="curve" smooth="yes"/>
      <point x="322" y="417"/>
      <point x="375" y="316"/>
      <point x="375" y="228" type="curve"/>
      <point x="44" y="228" type="line"/>
      <point x="44" y="208" type="line" smooth="yes"/>
      <point x="44" y="71"/>
      <point x="156" y="-14"/>
    </contour>
    <contour>
      <point x="270" y="26" type="curve" smooth="yes"/>
      <point x="256" y="26"/>
      <point x="234" y="29"/>
      <point x="211" y="52" type="curve" smooth="yes"/>
      <point x="191" y="72"/>
      <point x="178" y="97"/>
      <point x="178" y="175" type="curve"/>
      <point x="377" y="175" type="line"/>
      <point x="377" y="147"/>
      <point x="364" y="26"/>
    </contour>
  </outline>
</glyph>
<glyph name="commareversedmod" format="2">
  <advance width="267"/>
  <unicode hex="02BD"/>
  <outline>
    <contour>
      <point x="184" y="457" type="curve"/>
      <point x="210" y="484" type="line"/>
      <point x="182" y="515"/>
      <point x="142" y="563"/>
      <point x="142" y="589" type="curve" smooth="yes"/>
      <point x="142" y="619"/>
      <point x="198" y="617"/>
      <point x="198" y="673" type="curve" smooth="yes"/>
      <point x="198" y="715"/>
      <point x="166" y="736"/>
      <point x="136" y="736" type="curve" smooth="yes"/>
      <point x="102" y="736"/>
      <point x="66" y="710"/>
      <point x="66" y="657" type="curve" smooth="yes"/>
      <point x="66" y="580"/>
      <point x="141" y="501"/>
    </contour>
  </outline>
</glyph>
<glyph name="ringhalfright" format="2">
  <advance width="235"/>
  <unicode hex="02BE"/>
  <anchor x="-108" y="504" name="_top"/>
  <outline>
    <contour>
      <point x="52" y="469" type="line"/>
      <point x="62" y="469" type="line" smooth="yes"/>
      <point x="146" y="469"/>
      <point x="198" y="530"/>
      <point x="198" y="613" type="curve" smooth="yes"/>
      <point x="198" y="696"/>
      <point x="146" y="757"/>
      <point x="62" y="758" type="curve" smooth="yes"/>
      <point x="52" y="758" type="line"/>
      <point x="52" y="716" type="line"/>
      <point x="83" y="716"/>
      <point x="125" y="694"/>
      <point x="125" y="613" type="curve" smooth="yes"/>
      <point x="125" y="532"/>
      <point x="83" y="512"/>
      <point x="52" y="512" type="curve"/>
    </contour>
  </outline>
</glyph>
<glyph name="ringhalfleft" format="2">
  <advance width="235"/>
  <unicode hex="02BF"/>
  <outline>
    <contour>
      <point x="186" y="469" type="curve" smooth="yes"/>
      <point x="196" y="469" type="line"/>
      <point x="196" y="511" type="line"/>
      <point x="164" y="511"/>
      <point x="122" y="533"/>
      <point x="122" y="614" type="curve" smooth="yes"/>
      <point x="122" y="695"/>
      <point x="164" y="715"/>
      <point x="196" y="715" type="curve"/>
      <point x="196" y="758" type="line"/>
      <point x="186" y="758" type="line" smooth="yes"/>
      <point x="102" y="758"/>
      <point x="50" y="697"/>
      <point x="50" y="614" type="curve" smooth="yes"/>
      <point x="50" y="531"/>
      <point x="102" y="470"/>
    </contour>
  </outline>
</glyph>
